<!DOCTYPE svg PUBLIC "-//W3C//DTD SVG 1.1//EN" "http://www.w3.org/Graphics/SVG/1.1/DTD/svg11.dtd"><!-- Generated by graphviz version 5.0.0 (20220707.2145)
 --><!-- Title: G Pages: 1 --><svg width="773pt" height="460pt" viewBox="0.00 0.00 773.21 460.00" xmlns="http://www.w3.org/2000/svg" xmlns:xlink="http://www.w3.org/1999/xlink">
<g id="graph0" class="graph" transform="scale(1 1) rotate(0) translate(4 456)">
<title>G</title>
<g><path d="M-5.299566699538117 5.425555257197312 L-3.2066353463329342 -454.4211265799365 L769.7588219053218 -455.4175577697661 L769.8390625000535 4.055756357656297 L-4.061712101335129 2.552921706796208" stroke="none" stroke-width="0" fill="white" fill-rule="evenodd"/><path d="M-3.1199948318735635 3.3325976231225085 C-5.031845813672285 -114.5644204004166, -4.5545455648854665 -232.9948186001666, -3.0862019907988607 -455.8494404416472 M-3.9631742469290914 4.332995495823358 C-4.518344856601709 -139.4316053161453, -5.122149151824363 -283.1870878010703, -4.453313043664719 -455.84641928625706 M-4.496999474218827 -455.500594925344 C155.75256634213406 -453.96165238924283, 315.05524176760105 -453.60152707717054, 768.6616085584775 -456.0444980904979 M-4.332039784490695 -456.24578507159566 C151.95887744102694 -456.7842467228353, 307.13555145671523 -456.69972647787466, 769.1108437087527 -455.9027687601422 M769.4751098784254 -456.2328340790737 C768.9722642627064 -339.87825297567315, 769.9899945310802 -224.47334834977957, 769.4811377492259 4.768375991294372 M768.8946298089895 -456.1626613903928 C769.2383240344521 -287.3880780126028, 769.2009450638168 -118.29533686092213, 769.6231272941676 3.605259240990903 M769.2619395999565 4.7282658885660735 C532.162770130148 5.688827664491615, 292.9072214803874 6.264653273632562, -3.934461575328945 3.72642979698323 M768.9558448479233 4.251615193849535 C504.0742582538447 3.8722802759433215, 239.32675553618776 3.612841968523, -4.048554677320447 3.7751866350125085 M-4 4 C-4 4, -4 4, -4 4 M-4 4 C-4 4, -4 4, -4 4" stroke="transparent" stroke-width="1" fill="none"/></g>
<!-- taskQueue___TaskQueue -->
<g id="node1" class="node">
<title>taskQueue___TaskQueue</title>
<g><path d="M425.0984785784819 -290.224325694387 L349.1297871024673 -288.2679829957309 L349.97960322178164 -252.33014265039313 L422.6097527890093 -255.56101563246264 L424.2150671311957 -290.060140583683" stroke="none" stroke-width="0" fill="none" fill-rule="evenodd"/><path d="M425.9985799457148 -289.51165484427725 C407.1652853300294 -290.79975815469606, 388.5095514491854 -290.2075816300625, 348.31880820291576 -289.56927160577084 M424.5761782410103 -290.58033591530153 C396.1006045027871 -289.8439203157275, 367.7343723407356 -290.65891546065467, 349.1361472441563 -289.6905741030906 M348.5769852822002 -290.5683055255872 C350.9239461898405 -282.0407862094794, 351.050624525838 -273.4513665956964, 349.9509293139572 -255.6236918693512 M349.9513570422638 -290.28946137500816 C350.38396193401337 -276.5977021861943, 349.472180580738 -264.1772200436114, 348.8482783673998 -253.45329124952923 M347.60886614071524 -252.390863490213 C365.08109941129754 -255.06429479105137, 381.8732817009344 -252.10884861049882, 425.58646263314 -253.29503693932273 M350.0670599431738 -254.1464072709777 C376.99487850919894 -254.71001392307105, 406.1839602477371 -254.108192944133, 425.0792829789967 -253.7548716302354 M423.7616996674595 -254.8648015133467 C425.6485074213129 -259.32121970195243, 423.1003851216986 -267.499074396122, 424.02932430391985 -290.9435511178547 M423.7414908098975 -253.16214333510544 C423.52632763333094 -266.3529552423046, 424.4683438249115 -279.12385746626137, 425.1684130461442 -289.05443169685776 M424.5 -290 C424.5 -290, 424.5 -290, 424.5 -290 M424.5 -290 C424.5 -290, 424.5 -290, 424.5 -290" stroke="black" stroke-width="1" fill="none"/></g>
<text text-anchor="middle" x="386.91" y="-267.8" font-family="Times,serif" font-size="14.00">taskQueue</text>
</g>
<!-- taskStore___TaskKeyValueStore -->
<g id="node2" class="node">
<title>taskStore___TaskKeyValueStore</title>
<g><path d="M575.637246969485 -171.9963798044604 L506.90565137423437 -172.92418077773678 L508.02287902867556 -133.00289462430513 L574.4356083442862 -134.83012988170842 L575.0055160717653 -169.6482775350401" stroke="none" stroke-width="0" fill="none" fill-rule="evenodd"/><path d="M576.3663914526807 -172.95722858712026 C561.719126240865 -169.32574492847323, 547.1620891358733 -169.45327744623842, 508.0398141706071 -171.91074425113567 M575.8242431462816 -170.77717247863632 C548.7529450281434 -170.76473483515187, 522.445966411707 -170.99313795123143, 507.27295481842276 -170.81478270833168 M507.15592642864095 -170.3124701109156 C509.26086379603214 -162.0692845595264, 509.26431892160673 -149.0247304209055, 508.54430264242995 -135.3083895747371 M508.85924124360537 -171.6486559107227 C507.52131888222783 -156.96564575338434, 508.8109564195663 -142.29255986988088, 507.2785377382713 -134.50770806814597 M509.1794512313028 -133.52242064511898 C531.6727487431469 -135.83935907777897, 553.2995468631133 -133.47553744721694, 576.0281097597217 -134.30193020889774 M507.7448923570091 -135.633844894678 C533.008672841676 -135.52183126394578, 559.9198938296627 -136.32359120102873, 577.2959770532761 -135.825989967832 M576.2073718887076 -135.63492290831874 C576.8269152431773 -145.37176847313, 577.0403561144672 -157.05328047966512, 574.5985435690795 -172.79504531536452 M576.6205717323184 -135.13863285704957 C577.4598519588016 -146.05953028352087, 577.7020177193922 -158.02388528599812, 576.1750440838771 -170.8236939769237 M576.43 -171 C576.43 -171, 576.43 -171, 576.43 -171 M576.43 -171 C576.43 -171, 576.43 -171, 576.43 -171" stroke="black" stroke-width="1" fill="none"/></g>
<text text-anchor="middle" x="542.32" y="-148.8" font-family="Times,serif" font-size="14.00">taskStore</text>
</g>
<!-- scaler___DorcAutoscaler -->
<g id="node3" class="node">
<title>scaler___DorcAutoscaler</title>
<g><path d="M725.9538482898573 -426.8210766354381 L673.6576991798617 -424.6571875012685 L673.3826209031116 -390.54789737677737 L729.1922985742403 -388.34075242221087 L726.1546354716723 -425.26429757285223" stroke="none" stroke-width="0" fill="none" fill-rule="evenodd"/><path d="M727.799108619142 -425.8488103359639 C705.2471969972644 -424.65329617461543, 686.4331454564134 -425.8286457322168, 674.3230900411829 -424.7401422175613 M727.099111654864 -425.1570502187267 C713.324487879822 -423.5798577324027, 698.3977580883762 -424.89803443181734, 673.9022451286855 -425.1001912048129 M673.1555987285687 -425.8037882987514 C673.4610716131664 -415.34573326698535, 674.0138038447775 -402.82795666789656, 673.9550771906288 -387.841069204657 M674.3543167290665 -425.30436278650166 C674.3357536366024 -416.4290076162192, 672.702734318709 -410.39560069467285, 673.0021413549047 -389.2704881591744 M674.9670247186357 -390.97480871492206 C695.2241420625475 -387.9668341538022, 713.9502989099577 -389.0790677055196, 728.0299464447324 -389.39407085987807 M673.4905701606322 -388.52837249510037 C686.6112184557825 -388.36938247646947, 697.4999565890591 -388.7844037551302, 728.5526291791108 -389.3944884953953 M728.6984122841016 -389.7298090062069 C726.6859949233797 -400.96477441662796, 729.1946102643934 -416.43370885862913, 729.3387014434065 -423.98108929537693 M727.5370750000864 -389.3218969418431 C727.1545001919275 -398.2540272851152, 728.0783092648447 -408.2051417410162, 727.8806031983395 -424.3074275427728 M727.84 -425 C727.84 -425, 727.84 -425, 727.84 -425 M727.84 -425 C727.84 -425, 727.84 -425, 727.84 -425" stroke="black" stroke-width="1" fill="none"/></g>
<text text-anchor="middle" x="700.84" y="-402.8" font-family="Times,serif" font-size="14.00">scaler</text>
</g>
<!-- containerStateTopic___ContainerStateEventTopic -->
<g id="node4" class="node">
<title>containerStateTopic___ContainerStateEventTopic</title>
<g><path d="M767.053973054451 -238.30142111338566 L636.3123391700329 -237.57549543040253 L634.9860924037312 -203.3724033030432 L764.9366340248718 -200.2463418554424 L765.4783443236238 -239.37761578373696" stroke="none" stroke-width="0" fill="none" fill-rule="evenodd"/><path d="M765.1916988119177 -239.53449916455213 C729.5291479334447 -235.80355472620585, 698.1889692243915 -238.7343620178446, 635.4280526189613 -236.80379499240973 M764.9751332668575 -238.3325589344128 C723.8380602593525 -236.82555952694386, 683.4676775135329 -237.02700832150325, 635.6870618767163 -238.8160150564929 M635.0461036399689 -239.28412516020023 C637.9724925802902 -227.0148044497889, 637.9791178530477 -214.38430749659554, 637.7188615874695 -202.20640325959636 M635.9990636148817 -238.18836650596563 C637.3348911899651 -230.01951331939688, 636.2681662683427 -223.55319956759055, 637.3289532666329 -202.2792224910679 M637.5523794709097 -200.9041525990943 C662.1017682040253 -204.95281582041144, 687.7035175450108 -204.3750791847449, 766.198073153592 -203.15164049864669 M635.6505164210492 -201.54367322352252 C664.982266455605 -201.7632427475365, 694.4344419144334 -202.34361760270716, 765.4468755715927 -202.87026596493536 M763.4031077224712 -202.88181438023028 C764.5276481822837 -214.54881971461043, 765.3319490831836 -227.00935291028085, 764.2220631224174 -238.74071666969144 M765.8739250888923 -202.01345499014855 C764.294609267424 -209.89312304154896, 765.0061134057144 -216.82003460190293, 765.9319789554104 -237.46437296427482 M765.07 -238 C765.07 -238, 765.07 -238, 765.07 -238 M765.07 -238 C765.07 -238, 765.07 -238, 765.07 -238" stroke="black" stroke-width="1" fill="none"/></g>
<text text-anchor="middle" x="700.84" y="-215.8" font-family="Times,serif" font-size="14.00">containerStateTopic</text>
</g>
<!-- taskStateTopic___TaskTopic -->
<g id="node5" class="node">
<title>taskStateTopic___TaskTopic</title>
<g><path d="M591.7003307072641 -36.206193743228624 L490.63575188554904 -34.571186228202514 L493.2379544888384 -0.6063346158711713 L592.0303464198131 1.3349848022077158 L593.5864621517619 -34.16747915065634" stroke="none" stroke-width="0" fill="none" fill-rule="evenodd"/><path d="M591.750899444738 -36.57419953585753 C551.9033945035658 -34.90220992716014, 517.1244432223957 -37.156738171595386, 491.8712425063636 -34.59351027651232 M591.517609639944 -36.411466708963744 C566.8027781973263 -36.019672845250824, 543.0882493971594 -35.75023535367349, 492.91336797080186 -36.23395445584469 M494.39354983026215 -34.01917054720769 C493.1290376367559 -25.395343752796613, 491.30157708396246 -13.925444762470564, 494.4610697877433 0.6970356134868707 M492.17815664827197 -36.75836502000112 C493.22104919371037 -28.04634165396932, 493.3013366646557 -21.431940210553112, 492.19767397044643 -0.9921138734404473 M492.83984653407396 -0.1677038416348111 C513.2748703040286 -1.704444231147267, 534.6672653416299 1.1024844963887628, 591.5532860845873 -1.8426281612822262 M492.4084084937216 -0.7731059940968437 C532.6840951148481 0.6390654461423929, 571.1228928157237 0.02932626896022683, 591.6049051659044 -0.9097453722689379 M593.9992630221927 0.9051355476002989 C591.3442284576734 -8.16492762567659, 590.608847798191 -17.236474343471322, 593.6747384552655 -37.42748235150838 M592.6906488937833 -0.3700266782540922 C592.5204003453268 -8.865550745069335, 591.8567609268332 -15.106060827583077, 591.133871723375 -36.87497116687211 M592.03 -36 C592.03 -36, 592.03 -36, 592.03 -36 M592.03 -36 C592.03 -36, 592.03 -36, 592.03 -36" stroke="black" stroke-width="1" fill="none"/></g>
<text text-anchor="middle" x="542.32" y="-13.8" font-family="Times,serif" font-size="14.00">taskStateTopic</text>
</g>
<!-- containerRuntime___DorcContainerRuntime -->
<g id="node6" class="node">
<title>containerRuntime___DorcContainerRuntime</title>
<g><path d="M601.3226896149407 -423.4724118335279 L483.1574602417711 -426.055635173863 L484.9802955762029 -388.5000008959706 L600.513421588714 -389.25066684090854 L598.9618352741201 -425.0762677158379" stroke="none" stroke-width="0" fill="none" fill-rule="evenodd"/><path d="M600.9520793196953 -426.5662990717008 C569.2444108488356 -424.83663315472455, 537.4929779503306 -426.0121285026687, 483.1990861734328 -425.33234191595795 M600.1669319424448 -424.3870463590811 C569.4813904139545 -424.6587582787794, 539.8283574934137 -424.41105626845086, 483.2271977609981 -424.5570077154851 M484.57342321257426 -424.10659257753923 C483.42364611940707 -412.66445493525725, 485.4282589216253 -401.01762193032965, 485.70943249931076 -390.0399668580964 M483.2274522973653 -424.04643598132833 C483.50118176115797 -411.89993886700836, 483.5290717162579 -399.93051694473615, 483.32715093686744 -388.29749395420953 M483.5184986067038 -387.00799041361427 C521.9981644229721 -387.96555697414425, 557.2969633079404 -390.0964098522152, 599.5794741305401 -388.8252894256874 M483.51523769416224 -389.7008670652404 C514.8127926314548 -388.52110158111196, 543.9977274542819 -388.4102061576293, 601.4277769908575 -389.6584006650304 M602.4937895251356 -388.95748714157713 C601.914309005201 -401.343088579468, 599.5226707174813 -410.9558407296035, 598.8922460944652 -426.3202619681863 M601.283141179209 -388.0329592924046 C599.3954044836555 -399.2631104011088, 599.4984038745728 -411.2776300178587, 600.0607671228868 -424.79502158383747 M600.63 -425 C600.63 -425, 600.63 -425, 600.63 -425 M600.63 -425 C600.63 -425, 600.63 -425, 600.63 -425" stroke="black" stroke-width="1" fill="none"/></g>
<text text-anchor="middle" x="542.32" y="-402.8" font-family="Times,serif" font-size="14.00">containerRuntime</text>
</g>
<!-- containerRuntime___DorcContainerRuntime&#45;&gt;scaler___DorcAutoscaler -->
<g id="edge14" class="edge">
<title>containerRuntime___DorcContainerRuntime-&gt;scaler___DorcAutoscaler</title>
<g><path d="M599.5201168476649 -408.695490211622 M600.9 -407 C602.7250358616756 -408.388887838065, 663.8947562285274 -406.265326945991, 664.1950312333954 -405.9311926424447 M599.1126995213912 -406.25719544836875 C598.8610404392912 -408.41039160690906, 662.155403696099 -405.7402371043864, 661.3211501873593 -408.85064213585514" stroke="black" stroke-width="1" fill="none"/></g>
<g><path d="M663.1656374823061 -408.6949473357862 L671.9355478406297 -407.42498037879164 L662.9643915444941 -405.2618860175971 L662.304159116181 -408.5605422224703" stroke="none" stroke-width="0" fill="black" fill-rule="evenodd"/><path d="M663.3806051587499 -410.2945316421192 C665.597279531277 -410.7897312633067, 667.4061425151557 -408.9532006308837, 672.5618373712164 -407.18173882134977 M663.7103544548668 -410.226463129866 C666.3394720736344 -409.70200648363635, 668.6629581934291 -407.9871277496276, 673.9831844036283 -407.44421077378325 M674.2761168388141 -406.1199519312719 C670.44608231357 -405.71590517980354, 669.8668527058229 -405.2334690372019, 663.9701224359775 -404.0405249844198 M674.0332015473684 -407.51679092569333 C669.2007949388815 -405.72531293692094, 665.3022254093934 -404.75052758260284, 663.1150629015523 -403.5959095126642 M663.7972795034631 -404.11704283069963 C662.9591807411599 -406.7723007988697, 662.9105997665345 -408.27195457128306, 662.9037781667672 -410.9297742204474 M663.6036693813304 -403.2568813124612 C663.8221243877164 -406.48274605326156, 663.3567827916653 -409.2220802337032, 663.6386856762477 -410.7457170100427 M663.51 -410.5 C663.51 -410.5, 663.51 -410.5, 663.51 -410.5 M663.51 -410.5 C663.51 -410.5, 663.51 -410.5, 663.51 -410.5" stroke="black" stroke-width="1" fill="none"/></g>
</g>
<!-- containerRuntime___DorcContainerRuntime&#45;&gt;containerStateTopic___ContainerStateEventTopic -->
<g id="edge15" class="edge">
<title>containerRuntime___DorcContainerRuntime-&gt;containerStateTopic___ContainerStateEventTopic</title>
<g><path d="M596.0023020055089 -388.3973920204609 M596.21 -388.78 C594.6557732247464 -343.989981023389, 594.6571889151977 -223.42934341589608, 594.3591755904124 -224.29297905183498 M594.6670196366736 -387.3584886418825 C597.7370243269708 -342.1374579204985, 597.1158623030045 -224.35172134248992, 595.9214486005836 -222.77402355266517 M596.21 -224 C594.603974537532 -223.5079573525102, 627.1735696395367 -225.62269916518193, 627.7798193640546 -223.020659431593 M595.2755574352019 -224.2718910229242 C598.4728256402767 -223.44326884883768, 625.2552257398603 -225.4995061481519, 625.5238852865278 -222.28353643031684" stroke="black" stroke-width="1" fill="none"/></g>
<g><path d="M625.9875457964888 -226.35848742759833 L634.8151776573558 -223.1078465334846 L624.6636483364849 -218.6012075767906 L626.7389331664679 -226.43710963844234" stroke="none" stroke-width="0" fill="black" fill-rule="evenodd"/><path d="M626.7767826217679 -228.06853645103328 C628.8482014177307 -226.9300793234525, 631.5637631188789 -225.17442095509472, 635.503929837333 -224.45986211712423 M625.8362903517244 -227.57010392739966 C629.0663729942206 -226.94507151839835, 632.228935758061 -225.37905753707932, 635.9716019863586 -223.5019722322363 M635.3191638834483 -224.8091586850745 C633.8396577067582 -224.1800560478683, 630.8202756894722 -222.40856307301766, 625.773010511452 -220.38282171688948 M636.461847017643 -224.44139989546815 C634.5082245365041 -222.8455104456468, 631.5680600716651 -222.57584476690877, 625.9570700016743 -220.65113811317858 M625.7909980814891 -221.15605515283215 C626.6578460438783 -222.71755561584146, 626.986950447797 -225.2742404457813, 626.8393045622054 -226.9315226740616 M626.1037869200932 -220.3306559718093 C626.1681441904284 -223.25246779423045, 626.3708131134065 -225.77960018866142, 626.0989624053958 -227.2313799877081 M626.36 -227.5 C626.36 -227.5, 626.36 -227.5, 626.36 -227.5 M626.36 -227.5 C626.36 -227.5, 626.36 -227.5, 626.36 -227.5" stroke="black" stroke-width="1" fill="none"/></g>
</g>
<!-- submitTaskFunction___Func -->
<g id="node7" class="node">
<title>submitTaskFunction___Func</title>
<g><path d="M290.5208606348644 -269.39420148722843 L160.13214621265084 -271.10920359477 L158.02278228061377 -236.827681033454 L290.20481738514957 -234.749376663445 L290.3227176629352 -270.8504897388546" stroke="none" stroke-width="0" fill="none" fill-rule="evenodd"/><path d="M288.88847398104156 -271.93660340574286 C247.5418915622393 -271.1588525847201, 204.07454416392505 -272.9789661119009, 158.90346414338168 -271.2709789934116 M289.375473244526 -270.2788156623083 C249.04236871730208 -270.2786593935937, 207.106974620012 -270.87255000567393, 158.89630132628884 -270.280792640522 M160.34058647198927 -271.36601888400605 C159.24182665975545 -261.5894968456546, 159.34396346293505 -253.88809920940014, 157.1828710048631 -233.76339563392213 M157.85875519928607 -271.5962155760757 C158.51902949760742 -260.37588398040964, 158.99718853742115 -246.98560136471417, 158.98601900214695 -235.38396801750164 M156.86443362087667 -234.92563942723461 C197.26308475589215 -235.75228272188335, 232.870400515046 -236.04859807028618, 290.8119914969741 -234.53781277628946 M159.01985311811728 -235.4887319399513 C205.99667861725504 -234.54124998059515, 255.25739821555754 -234.0495742258323, 290.4201402497093 -234.30084072537312 M290.4337902425914 -234.29297283182473 C290.72288466862653 -245.03639997822106, 289.8084548336746 -252.47510623997752, 290.7213707794047 -270.3759751575146 M289.0889594174835 -235.37186178746197 C289.28974435247386 -244.27768514854748, 290.15132356560383 -253.18306744899706, 290.07752693606386 -271.3289668007637 M289.7 -271 C289.7 -271, 289.7 -271, 289.7 -271 M289.7 -271 C289.7 -271, 289.7 -271, 289.7 -271" stroke="black" stroke-width="1" fill="none"/></g>
<text text-anchor="middle" x="224.09" y="-248.8" font-family="Times,serif" font-size="14.00">submitTaskFunction</text>
</g>
<!-- submitTaskFunction___Func&#45;&gt;taskQueue___TaskQueue -->
<g id="edge1" class="edge">
<title>submitTaskFunction___Func-&gt;taskQueue___TaskQueue</title>
<g><path d="M290.5487414322239 -263.1967337287119 M289.84 -262.5 C287.86094304794136 -264.22735378631296, 337.9509268811516 -262.5465071948614, 338.47566064699436 -262.0428864601971 M287.88099906245986 -262.34660055062864 C289.9733870799138 -261.86208644360937, 340.0074631818979 -260.47660518507547, 340.76565266514115 -262.7096165282064" stroke="black" stroke-width="1" fill="none"/></g>
<g><path d="M337.50644950342786 -266.240073856283 L350.87490350650677 -261.4220451062326 L340.4140209960288 -258.0165349780906 L340.68398980788857 -264.1013242359325" stroke="none" stroke-width="0" fill="black" fill-rule="evenodd"/><path d="M338.57813655097846 -266.4043656756453 C342.21592839056586 -265.2312906563371, 345.6348609426885 -262.9984651284298, 349.8538945107503 -261.8965854864919 M339.26661334350445 -266.06906870812367 C343.306066936436 -264.67111038752387, 346.8357305380726 -263.72231106852695, 349.4609168372994 -262.1196486010378 M349.5427212271352 -263.4937722516418 C345.2581659008434 -261.750914853749, 342.25288799511804 -260.7775305288314, 339.5781062505281 -258.46987171999035 M348.8300489595945 -262.51684537926843 C346.17753069928165 -261.5182707992025, 343.98517897086634 -260.88197022048274, 338.96968321164866 -258.51297530931225 M339.39640446899705 -258.3609114846697 C338.6718357345631 -260.7977361883015, 339.3007103872417 -263.5499177792779, 338.9370006484681 -266.3028519401822 M338.9046589434884 -259.03989957357265 C338.9945555894369 -261.39619771168884, 339.12781993537345 -263.6982006467726, 338.7933938679315 -265.9600862501616 M339.02 -266 C339.02 -266, 339.02 -266, 339.02 -266 M339.02 -266 C339.02 -266, 339.02 -266, 339.02 -266" stroke="black" stroke-width="1" fill="none"/></g>
</g>
<!-- submitTaskFunction___Func&#45;&gt;taskStore___TaskKeyValueStore -->
<g id="edge4" class="edge">
<title>submitTaskFunction___Func-&gt;taskStore___TaskKeyValueStore</title>
<g><path d="M277.3855447848773 -235.182208369951 M279.21 -234.66 C280.9554738147917 -205.59866385240008, 277.52379292834075 -151.86140808284802, 279.567443696415 -152.50755102943856 M280.0290753024558 -234.65430752376452 C280.7429663349033 -206.81003239598596, 278.6482193521944 -153.40140299739235, 278.7757457002874 -151.47208529622188 M279.21 -153 C278.87200684454774 -152.10899858760098, 499.92788822241755 -154.90769800081034, 496.8207152282343 -152.13243676425947 M280.13532697370204 -152.1121263392089 C279.7470970393833 -153.89839951896715, 496.9940965765205 -152.02276747667213, 499.61522265511405 -152.69725337660847" stroke="black" stroke-width="1" fill="none"/></g>
<g><path d="M496.50572995282363 -155.77308621824352 L508.1389532823353 -152.07265929543124 L499.4508106665002 -147.54524155276744 L497.3620757119449 -156.92918070442352" stroke="none" stroke-width="0" fill="black" fill-rule="evenodd"/><path d="M498.09027925157926 -157.41448530221055 C502.3174839270548 -154.56056304899948, 506.09881263534777 -153.52954866455784, 508.676840764476 -152.41480906903632 M498.6830901547059 -156.79679221328684 C500.4812589917458 -155.838896166078, 502.6200103613872 -155.01916400954667, 508.4889373333283 -152.5030653615436 M508.7628291968316 -152.87758707783075 C506.6258172236793 -151.67014799624542, 503.70787904501816 -151.43672888113278, 498.4434831804347 -149.61829494725805 M508.03519012193556 -152.8584236033959 C505.45768665426317 -152.26847711656606, 502.1327292144033 -150.93112992933155, 498.4253189277821 -149.88583190288466 M497.894142590585 -149.20474201610173 C497.5139267359495 -151.14041718005095, 498.7676192005343 -152.52528819209246, 498.7917204762573 -156.4153906572726 M498.09717411761994 -149.60877783011173 C497.8622620754524 -152.03718320885525, 498.170381462367 -155.38931541226899, 497.9443368035711 -156.6392299475351 M498.2 -156.5 C498.2 -156.5, 498.2 -156.5, 498.2 -156.5 M498.2 -156.5 C498.2 -156.5, 498.2 -156.5, 498.2 -156.5" stroke="black" stroke-width="1" fill="none"/></g>
</g>
<!-- apiRunTask___Api -->
<g id="node8" class="node">
<title>apiRunTask___Api</title>
<g><path d="M102.46181507040154 -269.71665380555226 L20.423354023753376 -271.2427563251023 L20.087492025034983 -236.0754528831302 L101.05115199981543 -233.45792540536567 L104.26451639065384 -270.0600383121812" stroke="none" stroke-width="0" fill="none" fill-rule="evenodd"/><path d="M103.49429509281815 -272.68105820423705 C74.96683876342158 -270.66501099811273, 43.44316391473247 -268.49059810471357, 18.207256491734498 -270.93704302582415 M103.74880444002457 -270.52334357011046 C70.76133872321442 -271.47698959731275, 36.81362693846439 -270.22799177983177, 19.495865380273685 -271.38142668724595 M18.865453560360574 -271.1785839573751 C19.68154459624469 -258.71993622033006, 19.099039131107126 -249.9358311293423, 18.785011054811363 -233.89420531450733 M18.981130590852672 -271.25581197400896 C19.23441671109113 -260.6657182862837, 18.564714443082337 -250.03728216129463, 19.99243986561035 -234.34623861955265 M19.903839272805143 -234.20649164147434 C38.52186478673599 -235.54219423941504, 58.8922631387275 -235.81517213135143, 103.1299343750791 -233.47020381492104 M18.622414074974554 -235.16652530668588 C40.39565429538227 -234.60338191000676, 59.53264650645899 -234.38414810648595, 102.552562535341 -234.29369755970941 M102.45846128063522 -235.59640892639766 C103.48921715715636 -249.43564570626575, 101.2376640881023 -259.6904302766975, 102.63247136512479 -270.9980344104792 M102.10156139618616 -234.42794476778042 C102.89303997418703 -243.18244027404748, 101.76442281099358 -250.48263964244603, 102.46391619015365 -270.79648963490723 M102.92 -271 C102.92 -271, 102.92 -271, 102.92 -271 M102.92 -271 C102.92 -271, 102.92 -271, 102.92 -271" stroke="black" stroke-width="1" fill="none"/></g>
<text text-anchor="middle" x="61.27" y="-248.8" font-family="Times,serif" font-size="14.00">apiRunTask</text>
</g>
<!-- apiRunTask___Api&#45;&gt;submitTaskFunction___Func -->
<g id="edge21" class="edge">
<title>apiRunTask___Api-&gt;submitTaskFunction___Func</title>
<g><path d="M101.52173180338346 -252.4784579093124 M103.2 -253 C104.40267024234149 -251.34560202393052, 146.83259324287562 -254.21998787793714, 148.8122199314254 -254.45114225091368 M104.55259235678544 -251.0126556897613 C102.98713749417654 -251.38442682008187, 147.88304228360388 -254.64860727024373, 148.07499150216185 -252.0271051281312" stroke="black" stroke-width="1" fill="none"/></g>
<g><path d="M147.87061451128233 -255.34101770347075 L160.00800600801992 -251.77594665637608 L147.2959642133284 -248.6612261627064 L147.30694545141247 -255.02522603709232" stroke="none" stroke-width="0" fill="black" fill-rule="evenodd"/><path d="M147.44384079380015 -256.70016597783643 C151.78992976891726 -254.77902086670042, 153.4829459558101 -255.39980955816517, 158.8851030966571 -252.49021329435476 M148.22340688484348 -256.3141910350762 C150.49809763595275 -255.13584662268582, 153.19512195351098 -254.25439577751789, 158.12713241780318 -252.9706500295992 M157.94688954639076 -253.24821393720114 C156.9789648165755 -251.84281788264562, 154.35186571363337 -252.56859447760925, 148.8975147780505 -250.065866845099 M157.76275212018382 -253.33379301097088 C155.1798500992139 -252.3555352261952, 151.905510584456 -251.23801798883704, 148.6810796448337 -249.15887498019893 M148.93816922216322 -249.57280512203016 C147.76379414068884 -252.102523682, 148.68211442995707 -252.7887500822079, 148.90744723024582 -256.6025850587409 M148.3800692623656 -249.4700419196203 C148.0370787534539 -251.23200714728026, 148.11905034043448 -252.9355970128269, 148.2747068532694 -256.8042077973905 M148.28 -256.5 C148.28 -256.5, 148.28 -256.5, 148.28 -256.5 M148.28 -256.5 C148.28 -256.5, 148.28 -256.5, 148.28 -256.5" stroke="black" stroke-width="1" fill="none"/></g>
</g>
<!-- runTaskFunction___Func -->
<g id="node9" class="node">
<title>runTaskFunction___Func</title>
<g><path d="M442.7901833520007 -344.12248234883833 L333.1961102674178 -345.02566636540666 L331.2592445653972 -308.99849033573327 L443.8548546750798 -308.9804511898665 L443.1847058890715 -344.97169496983855" stroke="none" stroke-width="0" fill="none" fill-rule="evenodd"/><path d="M444.3290602956053 -342.3685592280317 C417.35720392426197 -346.18898530615843, 390.8527494832803 -342.97509895598586, 331.34825577100236 -342.240317995655 M443.36940361559016 -343.90882600854604 C406.80185120976955 -345.8759167620555, 370.16750123690747 -345.5778178897073, 331.42884257637513 -343.0447625695948 M332.0285735860219 -342.3196384065043 C333.1561401487503 -334.46163824621647, 332.98350137632696 -329.0411023123252, 330.1632817244652 -306.98174444385506 M331.55224385943853 -343.3536947273896 C332.26580088215644 -333.1658162156677, 331.44515831892164 -321.3189307665388, 331.27991860606477 -308.6934656861027 M331.3212741231682 -307.5850978587216 C371.6589020082848 -310.30274987833957, 411.6525140186604 -309.91147432008387, 441.00569450933784 -307.1364252421784 M330.3007759667427 -308.2398491935886 C364.84768539675434 -308.35120049457896, 398.882576931447 -309.4024891325338, 442.9081220434025 -308.65444688452203 M444.5294750923051 -309.7187765200264 C444.2207474913945 -318.30333794456413, 443.29526179972476 -328.35378509152685, 443.25527148085087 -342.73894902188044 M443.0698155991462 -308.3624663699017 C442.84582693307755 -319.86289798353283, 443.4455882391112 -331.58055728233796, 443.54195528460224 -343.8641699235278 M442.56 -344 C442.56 -344, 442.56 -344, 442.56 -344 M442.56 -344 C442.56 -344, 442.56 -344, 442.56 -344" stroke="black" stroke-width="1" fill="none"/></g>
<text text-anchor="middle" x="386.91" y="-321.8" font-family="Times,serif" font-size="14.00">runTaskFunction</text>
</g>
<!-- runTaskFunction___Error -->
<g id="node10" class="node">
<title>runTaskFunction___Error</title>
<g><path d="M442.7652107051475 -399.4807016114043 L329.9648873840843 -397.9922072654357 L329.5182841952546 -362.1771631725337 L442.34176741216527 -362.78572593053445 L443.4021204283041 -399.99681998714" stroke="none" stroke-width="0" fill="none" fill-rule="evenodd"/><path d="M443.9140605434861 -399.143049930267 C417.9213854085056 -397.4380260416088, 392.02700839045525 -396.31539912221007, 331.8702404846762 -399.44477441461237 M442.0002877816855 -398.0622542652354 C419.66896361099253 -397.84049753162634, 395.8812068095664 -396.71453605316964, 331.55398967094413 -398.61388225808736 M332.8152970043074 -398.4026462890926 C331.50583385309153 -390.7954986139197, 329.26514478297423 -378.7980575514299, 329.74543035356425 -360.57242292886383 M330.2893856616452 -398.4371446804683 C331.19036648886345 -389.9047371948032, 331.8659715540169 -382.81973193599043, 332.0919189996909 -361.87152684007583 M329.4780167750667 -363.11059027951944 C368.01086295789617 -361.10197102958136, 404.8003576912018 -362.85337671685886, 441.0616462722342 -360.8492713770698 M331.3295206568993 -361.215155744436 C356.48409425888866 -361.2731289950438, 379.8868436652128 -361.08429171982175, 443.41066005397215 -362.8233209746914 M443.38551948308884 -361.76645570340384 C444.0593527361453 -371.73178048353674, 441.5839672817383 -383.975035019026, 443.9582863679987 -398.15754403959505 M442.28275253439057 -361.93064018149516 C441.5926736587444 -377.34207478024183, 442.95260294813625 -390.8391963141052, 442.0696007850429 -397.66632544388875 M442.56 -398 C442.56 -398, 442.56 -398, 442.56 -398 M442.56 -398 C442.56 -398, 442.56 -398, 442.56 -398" stroke="black" stroke-width="1" fill="none"/></g>
<text text-anchor="middle" x="386.91" y="-375.8" font-family="Times,serif" font-size="14.00">runTaskFunction</text>
</g>
<!-- runTaskFunction___Error&#45;&gt;taskStore___TaskKeyValueStore -->
<g id="edge5" class="edge">
<title>runTaskFunction___Error-&gt;taskStore___TaskKeyValueStore</title>
<g><path d="M443.78590790221335 -377.31208672115423 M442.89 -375.5 C487.7496069195256 -377.4554637748699, 543.964709813814 -375.42482805387715, 541.5020649794478 -374.60097186408285 M443.21809110367025 -377.08992240940046 C487.1551756300833 -375.5862019331414, 541.3225959051747 -375.82722778307004, 541.3285299586051 -375.98392001677706 M543.21 -375.5 C542.0136859344731 -373.6323968507403, 541.8682665122711 -182.86714035865126, 544.3801558565243 -181.56802039830222 M542.8655654222955 -375.25050499300306 C541.0383010468091 -375.5633853560561, 542.5953364578537 -182.7426738121409, 543.5227858097325 -180.22176774197314" stroke="black" stroke-width="1" fill="none"/></g>
<g><path d="M548.1478059317868 -182.22210660308298 L544.2302456162616 -170.99077438388105 L541.4208266990579 -180.8151454651415 L545.3927537408782 -179.83731294859837" stroke="none" stroke-width="0" fill="black" fill-rule="evenodd"/><path d="M547.0163120662916 -180.3178792678486 C544.5444337070351 -177.28998957491436, 543.5939358781349 -174.9695439513219, 543.8675078117054 -172.1043607613723 M547.0628018161946 -181.51874093362315 C545.5038568526613 -178.28173701916955, 544.2949562160443 -174.7877231700925, 542.949996001188 -170.87332923789188 M542.921120339806 -170.82335717044754 C541.5042422071638 -173.85706288501888, 540.2931910713888 -176.70130815695666, 540.529499510009 -181.10641412127734 M543.5329728670663 -171.13048083913674 C541.8007256222247 -174.10987317877476, 541.2087457834509 -176.34002777020984, 539.5463352558692 -181.44404659616305 M539.6580102772581 -180.530423322811 C540.6685631023075 -181.2745353075206, 543.4452640050891 -180.57056628029522, 547.1522527554346 -181.4166450060176 M539.6846421691622 -181.22604056616902 C542.2115138790483 -181.0566115213987, 545.2148857514296 -181.22559800154244, 546.6691977150066 -181.4642370327173 M546.71 -181.21 C546.71 -181.21, 546.71 -181.21, 546.71 -181.21 M546.71 -181.21 C546.71 -181.21, 546.71 -181.21, 546.71 -181.21" stroke="black" stroke-width="1" fill="none"/></g>
</g>
<!-- runTaskFunction___Error&#45;&gt;containerRuntime___DorcContainerRuntime -->
<g id="edge18" class="edge">
<title>runTaskFunction___Error-&gt;containerRuntime___DorcContainerRuntime</title>
<g><path d="M442.99572971446315 -395.2453702147271 M442.58 -393.5 C441.625240259245 -393.5523188960552, 474.68958232099845 -393.4735692200263, 474.61437912599496 -393.80000596944853 M444.4898648325202 -394.9153036885151 C443.7242908060133 -394.3358919660823, 475.19012370734225 -394.16457412010004, 473.12130140553495 -394.0951247800293" stroke="black" stroke-width="1" fill="none"/></g>
<g><path d="M475.9228659361656 -397.21955075685884 L485.49118978901157 -395.1788069302063 L475.66915676572364 -391.73399310350715 L472.401213796429 -395.1725073260903" stroke="none" stroke-width="0" fill="black" fill-rule="evenodd"/><path d="M474.8041496338285 -396.0478231076243 C477.15320981948 -395.8568717642023, 482.1065502414186 -394.25706158722403, 483.45641426174006 -393.5887543292428 M474.02354595509195 -397.01960631441403 C475.94961794309 -396.30940487713247, 478.03281628575064 -396.05621117891127, 483.77663374705526 -393.88181443010865 M484.151696593446 -393.31982081257803 C480.2053680719234 -391.3239237818676, 475.44524663198666 -391.685402133322, 474.32569130680884 -389.1935490314869 M484.10408229860604 -393.9010597255092 C480.091923459486 -391.9333386363665, 476.94856055960815 -391.2190360765858, 474.24114273969735 -389.9071526941064 M473.6312202011787 -390.49407561634416 C473.8363927773487 -390.9762218318129, 474.32371476899914 -392.132914865763, 473.6270195915699 -396.4156858848235 M474.0155674647779 -389.80267064356275 C474.3849519352753 -392.53392782954694, 473.8974918535386 -394.66322592642655, 474.02722348532376 -397.1006706301155 M474.16 -397 C474.16 -397, 474.16 -397, 474.16 -397 M474.16 -397 C474.16 -397, 474.16 -397, 474.16 -397" stroke="black" stroke-width="1" fill="none"/></g>
</g>
<!-- taskQueuePoller___TaskQueuePoller -->
<g id="node11" class="node">
<title>taskQueuePoller___TaskQueuePoller</title>
<g><path d="M280.100662903795 -342.74753697280556 L168.59877331472 -345.635722211741 L170.01133198176646 -309.1848996300502 L279.12409151974424 -308.7120110280266 L278.4324508891641 -343.6688426348804" stroke="none" stroke-width="0" fill="none" fill-rule="evenodd"/><path d="M276.40231048435 -344.60496693715453 C235.61115529713695 -344.9449534512333, 192.06398218711567 -346.23639520987547, 169.448980999584 -345.00897814200204 M277.4148936149779 -343.3826009424487 C252.3069800089162 -344.46950591903914, 227.3132498757131 -344.2285629955553, 170.03666642644367 -344.28855919462063 M168.95508225896353 -345.80906896597054 C168.25458703209912 -333.4122075028801, 168.72739932944887 -321.44721807865466, 170.63059927375642 -306.7712697533637 M169.99153058880904 -344.2097383157384 C170.6796274373437 -333.876020853785, 168.99242853926128 -323.16917643101476, 171.00569355072142 -307.0881536657272 M171.13097753920852 -306.3488525857922 C201.30120804191222 -308.8435968297399, 235.48794327158603 -308.0472506127432, 279.63611776937404 -309.8846184253288 M169.75917134095155 -307.1733245794698 C196.17048875305917 -309.39882287199237, 222.8052313999128 -307.77312956302006, 277.5541234354803 -308.96787836041517 M277.09432734619963 -309.6139492693861 C278.00097928188706 -319.12720842847705, 279.69402659461696 -330.89851486075224, 279.9714548793686 -342.5133202212703 M277.14854773317273 -308.3399186635592 C277.92939085469334 -320.78770135218036, 279.00842981757324 -336.4088842015144, 277.5882662333075 -343.4162931452231 M278.12 -344 C278.12 -344, 278.12 -344, 278.12 -344 M278.12 -344 C278.12 -344, 278.12 -344, 278.12 -344" stroke="black" stroke-width="1" fill="none"/></g>
<text text-anchor="middle" x="224.09" y="-321.8" font-family="Times,serif" font-size="14.00">taskQueuePoller</text>
</g>
<!-- taskQueuePoller___TaskQueuePoller&#45;&gt;taskQueue___TaskQueue -->
<g id="edge2" class="edge">
<title>taskQueuePoller___TaskQueuePoller-&gt;taskQueue___TaskQueue</title>
<g><path d="M204.9365849864253 -306.6278245516581 M206.21 -307.75 C208.03087997558904 -293.5315917798901, 207.42666320251803 -276.5404459186688, 205.8271105172193 -276.8932756660813 M204.44219078482737 -305.9217751497306 C205.91830978595502 -291.9181414361899, 207.90194433514716 -275.1349745820558, 205.4932836797783 -276.5455130171284 M206.21 -277 C204.702710291383 -277.91741361292304, 339.56907869804166 -275.7090491254942, 337.7609217884072 -277.2781173451898 M206.88775051946797 -275.31798812310006 C204.01180324985532 -277.84394436616026, 337.0749806315847 -278.9393591942594, 337.1913849171088 -277.359809521881" stroke="black" stroke-width="1" fill="none"/></g>
<g><path d="M340.64428836629776 -281.6773050917106 L349.54850197249414 -278.11177507542885 L339.0727270444036 -272.8621291765732 L340.6959821289471 -281.2117223437047" stroke="none" stroke-width="0" fill="black" fill-rule="evenodd"/><path d="M338.76504244864975 -280.4805625270318 C341.3597170564245 -279.06522090243675, 344.0543834042711 -278.1658139120237, 350.02677961056685 -277.3262893036946 M339.04141254662585 -280.04745913416525 C341.1289601049233 -279.96589624662136, 343.7338909689487 -279.53155662501723, 348.83699238164473 -277.2344594824974 M349.04211685663824 -276.0863237496393 C344.10155276576495 -274.7199507533143, 340.28045178312715 -273.4581425395336, 339.0119862178543 -274.04025431907024 M348.82928432949245 -277.03495655190045 C346.45706106847746 -275.7068057394721, 343.9057579794923 -274.86466885217146, 338.6751680591542 -273.28259451983126 M338.76148940923355 -272.9229039905238 C339.60560916383406 -275.4893848695028, 339.2379182654595 -277.03988592557874, 339.0725054482619 -279.8879872276015 M339.0697443803538 -273.69423658416804 C339.14530858956863 -275.9293947276962, 339.2976118212666 -278.8910857188428, 339.3115143766574 -280.2232832142872 M339.03 -280.5 C339.03 -280.5, 339.03 -280.5, 339.03 -280.5 M339.03 -280.5 C339.03 -280.5, 339.03 -280.5, 339.03 -280.5" stroke="black" stroke-width="1" fill="none"/></g>
</g>
<!-- taskQueuePoller___TaskQueuePoller&#45;&gt;taskQueue___TaskQueue -->
<g id="edge3" class="edge">
<title>taskQueuePoller___TaskQueuePoller-&gt;taskQueue___TaskQueue</title>
<g><path d="M241.96612010160916 -307.18652668311546 M242.21 -307.51 C243.25423226144167 -294.9046754444142, 242.36778253583716 -283.829385999893, 243.06594860103544 -282.20939180082246 M243.80403045282458 -308.16729524007997 C243.37394900966817 -296.7187896042035, 241.08474970409466 -282.03378506218075, 242.46945028149338 -281.81462451522714 M242.21 -283 C243.17169955608279 -284.87940093568847, 337.66665491012463 -282.57009242970724, 340.07748285173244 -284.318390760635 M241.85230772103841 -284.3505798074736 C241.63693922762823 -284.1940477015215, 340.8106330641205 -284.8201672842736, 339.236451850649 -283.0815123791194" stroke="black" stroke-width="1" fill="none"/></g>
<g><path d="M340.0583247407518 -288.1388826417323 L350.63629936493595 -281.90432356587525 L339.07748194970605 -279.68940268769205 L339.24082113926414 -285.2602688025874" stroke="none" stroke-width="0" fill="black" fill-rule="evenodd"/><path d="M338.8030795326232 -286.5269144705206 C341.59859713025946 -286.7050996460434, 343.07696982303975 -285.3079203494412, 349.1384506126279 -283.8860981128884 M339.5842330513998 -286.8405551830655 C343.07349497301857 -285.0287635038668, 346.57730961503086 -283.6960473037767, 349.54997665987736 -283.365398533932 M349.6464819112908 -281.9593817198675 C346.73459169188067 -282.96563435341125, 343.9870016124314 -281.9869172303606, 339.8691322047318 -279.9624790214835 M349.4460949088517 -283.4085126203022 C345.4417759568786 -281.77843497363716, 341.34378700833867 -280.3182924621555, 339.2211168521671 -279.9397090840648 M339.9284298947894 -279.54754529632925 C338.7518489416649 -281.049148303732, 339.7162988265963 -283.7658552273605, 339.7342536905677 -286.0029962270372 M339.07501074890484 -279.3111112540212 C338.97204562653764 -281.9605472544177, 338.97682538472304 -284.1437757950942, 338.98387842052205 -286.49287208658956 M339.27 -286.5 C339.27 -286.5, 339.27 -286.5, 339.27 -286.5 M339.27 -286.5 C339.27 -286.5, 339.27 -286.5, 339.27 -286.5" stroke="black" stroke-width="1" fill="none"/></g>
</g>
<!-- taskQueuePoller___TaskQueuePoller&#45;&gt;runTaskFunction___Func -->
<g id="edge22" class="edge">
<title>taskQueuePoller___TaskQueuePoller-&gt;runTaskFunction___Func</title>
<g><path d="M279.05089931762194 -331.25347003225465 M278.3 -332 C279.8906707295457 -331.51630731632724, 321.7248419715665 -332.4366730054445, 322.0972804092645 -332.2647056443856 M279.7266629534024 -333.02623247901226 C278.32107155783166 -330.7567910730743, 321.9620474338536 -331.9612757512599, 320.12998770529595 -331.9717752572858" stroke="black" stroke-width="1" fill="none"/></g>
<g><path d="M320.9438309131219 -335.01262744943404 L331.75026478167723 -333.4484100096138 L319.576147872786 -329.36861548384644 L321.3041472150055 -335.5705672955522" stroke="none" stroke-width="0" fill="black" fill-rule="evenodd"/><path d="M320.168655199668 -335.16131615904817 C324.90463011865205 -335.3824358188259, 326.90605511170855 -333.9243093728249, 330.9833019125138 -331.1560584177962 M321.0571547447972 -335.5246591493407 C323.8982758265636 -334.1134693808875, 327.4269717119948 -333.82049029527707, 331.40313971659185 -331.9413317777368 M331.55621938254603 -332.1758905105233 C328.4681907473855 -330.1863888706205, 324.53363901389514 -329.3053988145514, 320.9170678328799 -329.1975310643295 M330.47496331403056 -331.93632617566215 C328.3347581573253 -331.3394632426577, 326.40945133454704 -330.531097435396, 321.0569561471342 -328.1017069571659 M321.3016869946868 -327.98408929976193 C320.9948990326619 -330.0658122512842, 320.7403626369166 -330.71636166420996, 321.5862731070365 -335.35621123639953 M320.9806676612405 -328.5876042222855 C321.32949752162745 -330.30018037194975, 320.96654121772 -332.6781895350336, 320.7452361309442 -335.363727861454 M320.98 -335.5 C320.98 -335.5, 320.98 -335.5, 320.98 -335.5 M320.98 -335.5 C320.98 -335.5, 320.98 -335.5, 320.98 -335.5" stroke="black" stroke-width="1" fill="none"/></g>
</g>
<!-- taskQueuePoller___TaskQueuePoller&#45;&gt;runTaskFunction___Func -->
<g id="edge23" class="edge">
<title>taskQueuePoller___TaskQueuePoller-&gt;runTaskFunction___Func</title>
<g><path d="M276.5132033749979 -318.0286900830177 M278.3 -320 C279.6535338279192 -321.872629658274, 321.93169324135704 -318.49444516639755, 322.28070787798003 -321.359324447636 M276.4709438977057 -320.957682296411 C276.340572765941 -318.9465657106791, 321.70709937124707 -318.2237654073758, 320.78626193333906 -320.368492427963" stroke="black" stroke-width="1" fill="none"/></g>
<g><path d="M321.5289187070746 -322.8283451790876 L330.57395477151164 -318.27962582763746 L319.88292343835604 -315.9426310277166 L321.3067436298448 -325.31028927229215" stroke="none" stroke-width="0" fill="black" fill-rule="evenodd"/><path d="M321.9682011806137 -324.1410659216307 C323.88581461300356 -323.36079370060435, 324.9954924920628 -322.12830681617527, 330.0232370646685 -319.443183180138 M320.93763961594556 -323.0655972400468 C322.76819526841473 -322.45601491399515, 324.5603630765996 -321.9247380980333, 330.92295406198645 -319.9250481180204 M331.33120614446943 -320.32781911391453 C326.83671504125283 -318.17971450797154, 323.8240870861679 -317.3601318305907, 320.26853179856755 -317.494211034197 M330.897074583468 -319.6735724325116 C327.60149333918685 -319.04852225242325, 324.40694233695456 -317.7028645071139, 320.9081153914467 -316.98089045842687 M320.9170775537294 -315.82437760125237 C321.0446114576474 -317.8067572963478, 320.8266470731103 -319.2023943557895, 320.92019188074283 -323.67007282756526 M320.8523589918132 -316.1823761249652 C320.85499080692796 -318.9177759758253, 320.928809203195 -320.73959021605094, 320.7965737121331 -323.42373804881544 M320.98 -323.5 C320.98 -323.5, 320.98 -323.5, 320.98 -323.5 M320.98 -323.5 C320.98 -323.5, 320.98 -323.5, 320.98 -323.5" stroke="black" stroke-width="1" fill="none"/></g>
</g>
<!-- taskQueuePoller___TaskQueuePoller&#45;&gt;runTaskFunction___Error -->
<g id="edge24" class="edge">
<title>taskQueuePoller___TaskQueuePoller-&gt;runTaskFunction___Error</title>
<g><path d="M240.52277444360118 -346.0927575850161 M242.21 -344.4 C242.49970006668755 -354.00356934543237, 242.31961227872463 -366.2099476402808, 240.2517895410287 -367.6208778711194 M240.38585531100873 -342.41401893577387 C242.25064710967172 -357.397894126853, 241.07516544083327 -368.5195438126537, 241.9293158836303 -367.44694248494704 M242.21 -367.67 C242.48681960989526 -366.57040382013537, 322.5912822095235 -368.1594216981165, 320.3638878860437 -369.6073445261494 M241.23804221399516 -368.3986761100736 C240.10705848973151 -369.1097682117514, 321.5832233089582 -369.73847549340195, 320.6457489425565 -367.3915591223452" stroke="black" stroke-width="1" fill="none"/></g>
<g><path d="M322.88660919574806 -370.59457344323437 L329.54818792221903 -366.68963365117975 L322.1346932570017 -365.6198823459334 L320.649550169241 -371.44350514863464" stroke="none" stroke-width="0" fill="black" fill-rule="evenodd"/><path d="M321.87803599081025 -371.4065951076539 C323.4994068619256 -370.80658367705564, 325.4801374060789 -370.4279956061661, 330.50609784580854 -368.0143738041164 M320.920471684424 -371.1216092717327 C323.90461983972745 -370.0498999741526, 327.22618257046105 -369.06022900551824, 330.9965716196416 -367.4853852214024 M331.0802084986642 -368.2771094831028 C327.86924470726876 -365.63765295316966, 324.7556008882643 -365.7945654910794, 320.9711915240118 -364.99469649222203 M331.3089549072091 -367.30817946668304 C328.9766463486015 -366.5713535522204, 325.90496125872266 -365.60734424077214, 320.4722575012603 -363.8648937062507 M320.86267512914657 -363.7584767077989 C320.40226673833524 -366.19151740660834, 320.9790363253084 -369.2176266648845, 321.3383916215946 -371.322996549041 M320.9391169243353 -363.91382155962793 C320.67921257001643 -366.34484434069196, 320.940513299715 -368.6878226187079, 321.2415210354602 -371.09900779191906 M320.96 -371.17 C320.96 -371.17, 320.96 -371.17, 320.96 -371.17 M320.96 -371.17 C320.96 -371.17, 320.96 -371.17, 320.96 -371.17" stroke="black" stroke-width="1" fill="none"/></g>
</g>
<!-- taskQueuePoller___TaskQueuePoller&#45;&gt;runTaskFunction___Error -->
<g id="edge25" class="edge">
<title>taskQueuePoller___TaskQueuePoller-&gt;runTaskFunction___Error</title>
<g><path d="M204.49917935652567 -342.9694846293218 M206.21 -344.16 C206.81619451655015 -356.6982419643921, 208.09409277363648 -372.50379516271386, 205.30221153582738 -371.6758011745712 M206.36580715843456 -344.88230175721134 C206.03668441219392 -357.66340723723533, 206.94896739716987 -374.39886062834205, 205.7043924160005 -371.18818577493766 M206.21 -373.33 C206.40810603423108 -373.63666762560206, 321.72606834994207 -374.9513446482477, 321.1450033322079 -373.3165843068442 M207.76399291808357 -374.2546612794424 C204.36399875154297 -373.6744355355955, 321.0108319750095 -371.4150811778776, 321.0019209835591 -372.3451413522389" stroke="black" stroke-width="1" fill="none"/></g>
<g><path d="M323.17993139953546 -377.8050601146368 L329.4518032721713 -373.4199094539669 L320.88278797108745 -370.0353912234322 L322.6895609933444 -374.9663647662652" stroke="none" stroke-width="0" fill="black" fill-rule="evenodd"/><path d="M321.78609859574215 -376.88062651874617 C323.4657514392593 -375.09423664693577, 327.4850633400547 -375.0772951668792, 331.84789203528504 -373.41032983779866 M320.87121652625143 -376.7719674629737 C323.4039872365358 -376.33928969475403, 325.67014245903636 -375.22860914181297, 331.090575640179 -373.63710458044534 M330.2715600814043 -372.5181363955718 C328.4724144011246 -371.9420009479848, 325.38308051815426 -370.710154000851, 320.3489682460963 -369.9443070390567 M331.43564469585743 -372.98625743021586 C327.40730897345213 -372.46941009331505, 323.60620609293557 -370.5878455726293, 321.5115859388656 -369.59804961925 M321.276991651181 -369.5902235774792 C321.16902508220863 -371.90021841454103, 320.59712676309897 -374.6328132211931, 321.080164336048 -376.94814980463434 M321.54055988644853 -369.96517497230104 C321.1524029692645 -372.2101240477326, 321.3471998855857 -374.37742015408145, 320.9418155459306 -376.57347646641847 M321.22 -376.83 C321.22 -376.83, 321.22 -376.83, 321.22 -376.83 M321.22 -376.83 C321.22 -376.83, 321.22 -376.83, 321.22 -376.83" stroke="black" stroke-width="1" fill="none"/></g>
</g>
<!-- listTasksFunction___Func -->
<g id="node12" class="node">
<title>listTasksFunction___Func</title>
<g><path d="M442.98527947434894 -88.92646463563277 L331.09045564826005 -89.10465642325131 L331.26354783689413 -54.065912140628605 L444.5328361808653 -53.81560733168626 L442.74249151229685 -89.99412340882135" stroke="none" stroke-width="0" fill="none" fill-rule="evenodd"/><path d="M445.99688480833623 -88.49148072518567 C420.6294025189768 -89.21581777768733, 399.55606352893824 -90.80236280693185, 328.9556540405685 -91.75066854530976 M443.71374926698564 -89.71845127824155 C418.4002809707048 -90.7105181348989, 390.92520678322467 -89.7531893814852, 329.0011328271766 -90.05131531235887 M330.62204401577947 -89.37445593927886 C331.2741279048793 -81.73551684605746, 329.23349846802006 -69.2510285007757, 328.109218102019 -55.91080491819146 M328.7362775483936 -89.8857854588895 C330.2002329255292 -78.14287957029809, 330.09954526171845 -67.2654118903649, 328.45538976861917 -54.5508624597839 M328.5989403397694 -52.59160911822268 C362.612744872581 -52.40132042604745, 400.4983234365189 -54.77995483668383, 444.32153847853175 -55.69330438862169 M329.08150557885676 -53.139084907762935 C373.8217332855702 -53.417274652556074, 419.2770233155466 -53.087779831515874, 445.08401923489004 -54.60505427843143 M443.53057542793493 -55.90835265424399 C444.17071931162735 -62.58036268120046, 444.1031323047047 -72.80716359641373, 444.52141475756116 -90.210120874556 M444.43063354981393 -53.0794765664044 C445.1837468141077 -64.04741868150256, 444.5919765160832 -74.09376794241462, 444.9338704771316 -89.97896912013097 M444.47 -90 C444.47 -90, 444.47 -90, 444.47 -90 M444.47 -90 C444.47 -90, 444.47 -90, 444.47 -90" stroke="black" stroke-width="1" fill="none"/></g>
<text text-anchor="middle" x="386.91" y="-67.8" font-family="Times,serif" font-size="14.00">listTasksFunction</text>
</g>
<!-- listTasksFunction___Func&#45;&gt;taskStore___TaskKeyValueStore -->
<g id="edge6" class="edge">
<title>listTasksFunction___Func-&gt;taskStore___TaskKeyValueStore</title>
<g><path d="M442.6761516966192 -72.28937343494685 M444.66 -72 C488.00091088870226 -73.13017577316752, 544.0109756636887 -70.55956204078039, 544.4290831349509 -71.59772432827499 M443.87932941950413 -72.65481626208633 C490.7271856874533 -71.1036399983148, 544.2056878890945 -72.2953188790503, 541.4521837939448 -73.87337633176068 M543.21 -72 C545.0836426050209 -72.87105834204296, 543.9224595981002 -124.2151902937345, 543.6522742216215 -122.64869471897529 M544.5824655577022 -71.27015882628939 C541.936755052581 -71.82673378997254, 542.4031927549463 -126.78430168455593, 543.8298938294829 -124.02596486062667" stroke="black" stroke-width="1" fill="none"/></g>
<g><path d="M541.3239661084376 -124.6171981160539 L544.4877889792463 -135.60009869330725 L546.6729606849065 -126.46368695523779 L541.6671216309081 -124.18922510858681" stroke="none" stroke-width="0" fill="black" fill-rule="evenodd"/><path d="M539.1363840491373 -124.77781938448331 C540.4232508171093 -126.47967365505534, 542.007779325326 -129.45078258049853, 543.4989192544145 -134.50014289869955 M539.257290693134 -125.13634175106733 C540.6553122508532 -128.62032340080987, 542.7193285590707 -132.72301247387514, 543.0684743899669 -134.6692616053107 M542.3359482919185 -133.84765934838165 C543.8140988449542 -130.66803686679432, 545.9851251509975 -127.89538440736159, 545.6642475425502 -125.06571891654421 M543.6626946469984 -134.77999609970362 C544.1307466894885 -132.20945046047953, 545.5180684856871 -129.12858716775213, 547.1058073319451 -124.84132451300268 M546.4070217437836 -124.3484626793311 C545.613287917435 -124.92206013997054, 543.9839679910766 -125.0821931033659, 540.0715256803699 -124.59693765104741 M546.7307869558755 -124.44923928177754 C544.2024599016636 -124.53240601555748, 541.3265307222855 -124.83540650491972, 539.8508511010095 -124.30182078575358 M539.71 -124.62 C539.71 -124.62, 539.71 -124.62, 539.71 -124.62 M539.71 -124.62 C539.71 -124.62, 539.71 -124.62, 539.71 -124.62" stroke="black" stroke-width="1" fill="none"/></g>
</g>
<!-- apiListTasks___Api -->
<g id="node13" class="node">
<title>apiListTasks___Api</title>
<g><path d="M267.9765125056953 -89.8390982904337 L181.36357724165214 -91.38977379732641 L181.72029515481026 -52.099401911436225 L268.74584089186646 -54.99652171331097 L269.61430894629365 -88.39998991670399" stroke="none" stroke-width="0" fill="none" fill-rule="evenodd"/><path d="M268.45467108395326 -90.98644128952226 C235.83548067403632 -89.85932209652582, 203.5351680406302 -88.6353870944946, 178.55584318191296 -91.32527649026571 M268.088495193149 -89.9530257270288 C234.62104533366983 -90.34665430803568, 199.4778474903717 -89.66589869334864, 180.63232030039623 -89.54991317231656 M179.612489970123 -91.23801070349428 C180.3931211513471 -81.15322013402889, 181.26077067133835 -76.60024313199938, 179.68669170535992 -52.81556332980243 M180.73276676405067 -89.87355661456324 C180.09040046988983 -76.60320101964311, 179.69173199190053 -64.12727065859004, 179.95071194798146 -54.584792658955315 M178.58239808131526 -53.55486986028791 C207.44602130075728 -55.10741148925154, 235.91433587156206 -54.145755720695625, 266.256582634476 -52.71386158618448 M180.89278280503223 -54.57117854093017 C210.31747595300848 -53.50183367048303, 239.93630068419844 -54.26569574525263, 266.88181723083443 -54.159584928366 M266.01416717953055 -53.83618171559296 C268.89400762529823 -60.002354404619155, 266.072672683368 -68.42061680074599, 269.4923399962003 -88.92758468624929 M268.2059651791698 -54.8446561981627 C268.7729085468865 -61.1573517393897, 266.9356794213448 -69.72183052745648, 267.94461004750593 -90.04482856865559 M267.63 -90 C267.63 -90, 267.63 -90, 267.63 -90 M267.63 -90 C267.63 -90, 267.63 -90, 267.63 -90" stroke="black" stroke-width="1" fill="none"/></g>
<text text-anchor="middle" x="224.09" y="-67.8" font-family="Times,serif" font-size="14.00">apiListTasks</text>
</g>
<!-- apiListTasks___Api&#45;&gt;listTasksFunction___Func -->
<g id="edge26" class="edge">
<title>apiListTasks___Api-&gt;listTasksFunction___Func</title>
<g><path d="M266.2219708736235 -73.33494952909979 M267.72 -72 C269.0567710137971 -71.01082931615339, 318.85010586500294 -71.51653941872857, 320.9530935628601 -73.28257513358773 M266.78641133153246 -71.07186728372487 C267.19147191795315 -72.31174895833746, 320.6668496744407 -71.56888098971012, 319.5405025131404 -72.78111230029515" stroke="black" stroke-width="1" fill="none"/></g>
<g><path d="M320.30522275938597 -74.80562621674704 L328.08656561591965 -73.15486294807438 L318.5477839844128 -67.992600065944 L320.55976307283595 -76.95085269841256" stroke="none" stroke-width="0" fill="black" fill-rule="evenodd"/><path d="M319.6482151880279 -74.7377000820831 C322.3503346795454 -75.31666901569625, 324.9659471363022 -73.37468436369332, 329.87544949935136 -72.74954558330491 M318.94644756105856 -75.92508660886304 C322.1534265099691 -74.71836440445423, 323.74920983890024 -73.39718826919444, 328.64609460784203 -71.96591021365074 M329.13299553277943 -71.31880056444031 C325.42920589649015 -70.37403318751315, 323.4956887151316 -69.7666064593579, 318.93967710784796 -69.45526131036151 M329.42388986145477 -72.20291183044081 C326.42896205454406 -70.93128185444655, 323.060130208173 -70.23851175666263, 319.47016026664085 -68.1241630460811 M319.57126191609086 -68.69414880931052 C319.2932462707054 -70.77926170823328, 318.8300405190804 -72.02632821763832, 319.36407677123907 -75.81135553395316 M319.4099017245632 -68.67157593027508 C318.7809485682585 -71.31610769228904, 319.123985546525 -73.6633889040796, 319.05881557841144 -75.65973221561535 M319.06 -75.5 C319.06 -75.5, 319.06 -75.5, 319.06 -75.5 M319.06 -75.5 C319.06 -75.5, 319.06 -75.5, 319.06 -75.5" stroke="black" stroke-width="1" fill="none"/></g>
</g>
<!-- getTaskFunction___Func -->
<g id="node14" class="node">
<title>getTaskFunction___Func</title>
<g><path d="M440.6287526103662 -198.31261641044412 L329.96016808057476 -198.4550771703764 L331.74387034669934 -160.7330852594341 L441.6135639205267 -162.60336354523568 L442.06514917696506 -199.3080401699961" stroke="none" stroke-width="0" fill="none" fill-rule="evenodd"/><path d="M441.0805095752048 -197.03792556605504 C400.78579427122713 -196.22204500304628, 362.09738737804753 -197.42428484149718, 330.67294812305806 -197.9783719868061 M442.8671226543905 -198.34815258067533 C405.40510861214733 -197.26476635252197, 368.3152692304854 -197.53298365769604, 331.7698213454316 -198.7952950346601 M332.7732454396657 -199.61344934446933 C332.15525327463735 -182.761365338893, 330.3828748953578 -171.6981051095318, 332.57210053796973 -162.77355920940155 M331.604834286635 -198.97822339162116 C330.63657348262007 -184.82342224688165, 331.66991849701697 -169.52073532776518, 331.9631581140298 -161.8665621672598 M331.98144064623654 -163.4135752987618 C374.1875872001743 -161.4206535963588, 419.09378750963776 -162.14975582955248, 440.67587874849886 -163.49587145162292 M331.7757059733639 -161.16980505967297 C357.24185272872717 -160.88339895704596, 383.85814746048266 -161.778573539139, 442.3859751120672 -161.2815699358772 M443.12331503339567 -160.3169303703845 C443.5780894788607 -176.96626946909345, 442.014487967284 -189.01774452767614, 443.54137673698546 -196.29968030380206 M441.1037164910533 -161.27759883150037 C441.7750744825215 -170.5989906563498, 441.1166656512905 -178.68856137116958, 441.1991422111431 -197.75769322795082 M442 -198 C442 -198, 442 -198, 442 -198 M442 -198 C442 -198, 442 -198, 442 -198" stroke="black" stroke-width="1" fill="none"/></g>
<text text-anchor="middle" x="386.91" y="-175.8" font-family="Times,serif" font-size="14.00">getTaskFunction</text>
</g>
<!-- getTaskFunction___Func&#45;&gt;taskStore___TaskKeyValueStore -->
<g id="edge7" class="edge">
<title>getTaskFunction___Func-&gt;taskStore___TaskKeyValueStore</title>
<g><path d="M442.633021592378 -163.25533101628906 M442.14 -164.25 C443.57262353983583 -163.78337368720037, 499.25331506445525 -162.4242736646064, 498.0955640177622 -166.11810817107806 M441.5487221125029 -163.91718757946612 C443.7577802947874 -164.9724698910971, 499.3328301807572 -163.2558314444395, 496.0431864995516 -162.74247117963463" stroke="black" stroke-width="1" fill="none"/></g>
<g><path d="M496.14759591493066 -168.4416652283115 L507.55382856274616 -163.28075280176614 L499.0869850027383 -161.68962038166453 L496.5831495634285 -168.59270231219736" stroke="none" stroke-width="0" fill="black" fill-rule="evenodd"/><path d="M499.00474052252065 -168.76460870656845 C500.8818039163916 -167.16118004769072, 505.655591953902 -164.18211726409046, 508.72487310123773 -163.49306379962002 M497.5502719456788 -167.9306725207811 C501.169959276628 -166.1528320785648, 505.4089478964282 -165.5505741501552, 507.68746941108367 -163.81954498283673 M507.3877926382516 -164.33507210435792 C504.85127705902215 -163.7677158670997, 502.41849881032766 -163.2040743682458, 498.5445039244762 -160.51689140227907 M508.22660315335065 -164.70530717922546 C505.8665819521666 -163.02250612173052, 503.2062335067893 -163.05532664230287, 498.2851512739426 -160.59301026378148 M498.67105362761174 -160.29574899631407 C498.4767656590575 -162.60706836726587, 497.3735064261596 -163.12374731904723, 498.7442989907356 -168.29584058797442 M498.00532848733485 -160.8642527221331 C497.8454499151477 -163.1314488319818, 497.97903480864034 -165.8219321553868, 498.3017070154358 -167.69216792903458 M498.07 -167.75 C498.07 -167.75, 498.07 -167.75, 498.07 -167.75 M498.07 -167.75 C498.07 -167.75, 498.07 -167.75, 498.07 -167.75" stroke="black" stroke-width="1" fill="none"/></g>
</g>
<!-- apiGetTask___Api -->
<g id="node15" class="node">
<title>apiGetTask___Api</title>
<g><path d="M266.05604775890384 -197.35495632237343 L183.88856065392693 -196.42457283997473 L184.7206291354706 -162.40700761266694 L262.5339546554533 -160.895832670567 L264.2590797275987 -197.09657670629136" stroke="none" stroke-width="0" fill="none" fill-rule="evenodd"/><path d="M265.28664410252685 -197.07107374921793 C239.50397551658173 -199.7771069911478, 215.99121588152974 -197.50607645949358, 185.42050697697775 -198.884560940365 M264.86293407681796 -197.03231397263974 C242.52310978538907 -197.56475314394476, 222.60444198120865 -198.1368898057144, 183.4009152305452 -197.71602771671718 M184.7369644011564 -199.62634656931303 C185.48351435127663 -187.6584436247449, 186.0221446485664 -176.97914300583736, 184.579170177896 -161.1337337094717 M183.1191029582314 -198.26605255844163 C183.0758785446822 -186.92922135605437, 183.9674272730415 -174.32283123519179, 184.2545291939769 -161.29698138522838 M185.519447694826 -163.86261447305404 C210.66206122961879 -161.64946698640233, 239.52645503412168 -163.93961843617097, 265.31256833713184 -162.78075383749635 M183.30197367747266 -162.70844603290826 C208.94609339848012 -163.6180036316714, 231.14708720083323 -162.07693412702827, 263.8659582191718 -161.37318269361506 M265.7998715231783 -162.80158607758094 C265.570324540063 -175.61331031626835, 265.56278937319826 -186.5023052118958, 265.09941313831047 -199.87028030089573 M263.5945816088831 -161.45964053257146 C264.0999343980378 -173.768412753983, 264.10288232151134 -187.0870840581576, 264.18211439578045 -197.92972429213987 M264.12 -198 C264.12 -198, 264.12 -198, 264.12 -198 M264.12 -198 C264.12 -198, 264.12 -198, 264.12 -198" stroke="black" stroke-width="1" fill="none"/></g>
<text text-anchor="middle" x="224.09" y="-175.8" font-family="Times,serif" font-size="14.00">apiGetTask</text>
</g>
<!-- apiGetTask___Api&#45;&gt;getTaskFunction___Func -->
<g id="edge27" class="edge">
<title>apiGetTask___Api-&gt;getTaskFunction___Func</title>
<g><path d="M266.071656717381 -178.76175279617223 M264.33 -180 C266.29767587921566 -181.888506319566, 321.7635076336336 -179.71337513079092, 321.0363595401983 -178.82560046556745 M264.8302266425758 -181.19834565914113 C264.84624052996907 -181.89406505819176, 321.2527814803854 -178.58595142824643, 323.9741168096949 -178.989862748336" stroke="black" stroke-width="1" fill="none"/></g>
<g><path d="M319.9707521876852 -183.59043664079496 L330.34322279038463 -178.77860471476288 L320.6973852442769 -177.13270681548735 L321.0187946212607 -183.34003135130405" stroke="none" stroke-width="0" fill="black" fill-rule="evenodd"/><path d="M320.9716855265999 -183.35863769637362 C325.87893802926254 -181.80133484006666, 328.71740582004577 -180.66311459241288, 332.1858179475129 -179.5873058277035 M322.0254645464419 -183.27721192522398 C326.1915354689361 -182.175395119702, 329.43920372282656 -180.78440431092312, 332.25816265000174 -179.56885767486813 M332.57299884960787 -179.2293601551732 C329.2454393175966 -178.64451025162282, 325.5291676677168 -179.00848087747482, 321.7221760645821 -177.46133317600552 M331.8919366640211 -180.42158279255747 C328.40829116467836 -178.5310518896525, 325.41570580153825 -177.8130146203961, 322.2064081191202 -176.36892095413833 M322.0724577123791 -176.26615105171723 C321.20024800973636 -179.23662635130398, 322.13140614922645 -180.97845985138102, 321.71838992294624 -183.76557824872404 M321.6639861053947 -176.58122994150938 C321.5796003408788 -178.27122689268134, 321.3792588268557 -180.1987817481793, 322.08084135567515 -183.8495898165666 M321.77 -183.5 C321.77 -183.5, 321.77 -183.5, 321.77 -183.5 M321.77 -183.5 C321.77 -183.5, 321.77 -183.5, 321.77 -183.5" stroke="black" stroke-width="1" fill="none"/></g>
</g>
<!-- apiGetTaskHistory___Api -->
<g id="node16" class="node">
<title>apiGetTaskHistory___Api</title>
<g><path d="M122.7217823694605 -323.5229090855856 L1.727292808528643 -323.3417325402115 L0.8726122725405632 -290.2329180499765 L122.39674554695112 -290.14440226202316 L122.06886117788913 -326.78006873672433" stroke="none" stroke-width="0" fill="none" fill-rule="evenodd"/><path d="M121.86824432228784 -323.93679442326555 C81.33305738182189 -325.28643822889865, 41.546630438094326 -325.3219098470446, 2.2177962779096254 -325.733142369677 M122.07284969778591 -325.7051692319508 C90.02821146560281 -324.8713439685759, 57.14431577270215 -323.75956832644886, 1.1844292789073543 -325.3315235817168 M1.5985734130885265 -324.0853116527252 C-0.8155391495111721 -316.3368422365059, 1.5658905291936187 -303.70926136634347, -0.9000267773263277 -289.9664151128324 M-0.4277041999984723 -324.425971278903 C-0.6287887895972245 -317.63240171063114, 0.7788145526605527 -311.08263362191957, 0.8535402514941257 -289.4922758021864 M-0.26016448499806666 -289.37355559023655 C38.15261361794724 -287.1748584786491, 79.8041439058299 -289.0680305639429, 120.73319690588725 -289.6522674469101 M1.0315807329082713 -288.24163377857576 C49.711187439642764 -289.1479363705247, 97.04427855133785 -289.54643687220374, 122.30789329122194 -288.5106224942606 M121.65430946517328 -289.4487498140638 C123.72352316310908 -298.65935839369905, 123.79739828903867 -305.742018083159, 121.39555015068952 -325.3189126539521 M122.69254336421356 -288.43802938648145 C121.86246735471332 -296.6499165386002, 123.077234085142 -305.5200907610656, 122.1327002892131 -324.195812440666 M122.3 -325 C122.3 -325, 122.3 -325, 122.3 -325 M122.3 -325 C122.3 -325, 122.3 -325, 122.3 -325" stroke="black" stroke-width="1" fill="none"/></g>
<text text-anchor="middle" x="61.27" y="-302.8" font-family="Times,serif" font-size="14.00">apiGetTaskHistory</text>
</g>
<!-- apiGetTaskHistory___Func -->
<g id="node17" class="node">
<title>apiGetTaskHistory___Func</title>
<g><path d="M448.66768151557454 -142.40321766526333 L323.93903591847806 -145.7026772667762 L324.80606171131035 -106.04137333277339 L447.96709545129045 -107.28234109084642 L448.21268731063174 -145.36947246496024" stroke="none" stroke-width="0" fill="none" fill-rule="evenodd"/><path d="M448.4473162630611 -144.50813768689912 C420.8156146631411 -143.84525589926236, 395.1998749865497 -141.5584284536238, 325.86197089569384 -142.76910381887598 M447.034171754405 -143.21124419908114 C409.75032736215576 -143.83711731321372, 371.4596054114578 -143.53539421226498, 326.4437743676192 -143.51802164615145 M324.2862905815517 -144.3882974704864 C325.64314425431735 -132.87120451793675, 327.71580995064573 -123.58352632556084, 326.9630345695687 -108.12501879170242 M326.3009478768993 -143.1382596673504 C326.0914631204898 -130.75158409558998, 326.32724296157977 -117.79778333928816, 325.8506444005457 -107.22573171623633 M327.2979822703196 -107.02169366418514 C372.7631295712117 -106.38646173180254, 415.19592122641285 -108.71526568044882, 447.9476522554688 -108.99577067418748 M325.7820555523065 -108.17217019775079 C353.08910941329793 -108.74603116327198, 380.1048933921747 -108.98376282748418, 448.43371490293595 -107.20606540242892 M449.10784126414916 -108.91267757002656 C446.39690900404077 -122.57465047314584, 448.6293991448155 -135.135402066156, 446.4980914557937 -144.20762526294936 M446.99761652754364 -108.54520494245506 C448.16276461652814 -121.11678795544577, 447.16126307780553 -132.01985044075514, 447.72929607820913 -143.0053705014043 M447.94 -144 C447.94 -144, 447.94 -144, 447.94 -144 M447.94 -144 C447.94 -144, 447.94 -144, 447.94 -144" stroke="black" stroke-width="1" fill="none"/></g>
<text text-anchor="middle" x="386.91" y="-121.8" font-family="Times,serif" font-size="14.00">apiGetTaskHistory</text>
</g>
<!-- apiGetTaskHistory___Func&#45;&gt;taskStore___TaskKeyValueStore -->
<g id="edge8" class="edge">
<title>apiGetTaskHistory___Func-&gt;taskStore___TaskKeyValueStore</title>
<g><path d="M448.68872992847065 -140.8438143693076 M448.33 -142.2 C446.83829206828045 -141.0628477582347, 498.4956442483394 -144.05356982553315, 497.85134459042513 -140.4286284937372 M447.59949014648095 -141.26339126161017 C449.10230379087 -143.75417278931363, 499.09325650029047 -141.7480652013005, 496.46816053595325 -140.83816017347255" stroke="black" stroke-width="1" fill="none"/></g>
<g><path d="M496.8099439216789 -144.32491539550608 L509.49198149791357 -143.7086331417904 L497.3924968693958 -140.13992974871098 L496.80529885803185 -147.5522324524415" stroke="none" stroke-width="0" fill="black" fill-rule="evenodd"/><path d="M498.15371864010115 -145.42348000093781 C501.7999320301523 -145.25388511051688, 505.38966296430294 -143.8107275929454, 508.4942792417713 -141.46775307774385 M497.9121378541922 -145.51033296184838 C501.0089916114284 -145.32814810435477, 502.9067366551946 -143.96326164124807, 508.65027625938563 -142.12525883887426 M507.5438367502992 -142.46498113393037 C505.8587519113755 -141.59282331440662, 502.54795827620956 -139.45296983033225, 499.16189940181755 -138.21564500678912 M508.5948404110316 -142.15042518421743 C504.8939601393778 -140.6062252042911, 501.0231584009356 -139.61230183220226, 498.3684746694977 -139.2143003053443 M498.02863065088735 -138.64717028953766 C497.4286461728119 -140.20830011970452, 498.330491434589 -142.4025171221837, 498.26099363675576 -145.9166375347152 M497.931037844888 -138.89997205313065 C498.2428335183487 -140.82004298953473, 498.4173434080805 -142.58800092100967, 498.19962136733227 -145.67715299891344 M498.17 -145.7 C498.17 -145.7, 498.17 -145.7, 498.17 -145.7 M498.17 -145.7 C498.17 -145.7, 498.17 -145.7, 498.17 -145.7" stroke="black" stroke-width="1" fill="none"/></g>
</g>
<!-- apiGetTaskLogs___Api -->
<g id="node18" class="node">
<title>apiGetTaskLogs___Api</title>
<g><path d="M115.10492273811727 -379.20620203904076 L8.404106974932285 -380.501796889964 L6.01765959792848 -343.08843787040263 L116.62403259819592 -343.4997688254196 L116.18403894783894 -379.0191280128118" stroke="none" stroke-width="0" fill="none" fill-rule="evenodd"/><path d="M115.08620724769469 -380.6746438889199 C87.21847453051093 -380.49753606223635, 56.270830592668894 -379.9225105389711, 5.827535339226778 -380.39340670418864 M115.81441153190164 -378.6550755408695 C75.29742589020458 -379.05486703769964, 34.935247803654846 -379.19556193371864, 8.024556933510226 -379.22742271208864 M8.091745034973458 -379.4239471754781 C7.209631200381317 -367.910631569, 5.51287714158874 -358.004930075162, 7.644821673965613 -343.61875184386594 M7.9411727444230795 -379.58826081121504 C7.800509831015006 -368.19293893490743, 8.245178269547745 -358.0736563381364, 7.066065737299993 -343.67572281885947 M8.842342297229951 -344.8081048619614 C50.04890010106143 -341.78150401336745, 90.04335337120654 -345.0216399610738, 114.97014325670129 -343.30916210814377 M7.9745767778294585 -342.5261060601228 C30.381204336595076 -341.7000785861613, 54.276804649293084 -343.08108184472525, 114.86522233793625 -343.25188751969523 M116.50515718850042 -344.74838998109817 C114.4529396080041 -355.10827760510597, 113.23047162635287 -366.0884470825902, 114.69777682457446 -377.42120858906344 M116.17471006372794 -342.0103311145879 C114.96829924148547 -356.9468496069478, 114.74067792016669 -370.59833099573507, 115.1873978260465 -379.90130676544146 M115.3 -379 C115.3 -379, 115.3 -379, 115.3 -379 M115.3 -379 C115.3 -379, 115.3 -379, 115.3 -379" stroke="black" stroke-width="1" fill="none"/></g>
<text text-anchor="middle" x="61.27" y="-356.8" font-family="Times,serif" font-size="14.00">apiGetTaskLogs</text>
</g>
<!-- apiGetTaskLogs___Func -->
<g id="node19" class="node">
<title>apiGetTaskLogs___Func</title>
<g><path d="M114.41562429198676 -434.8796948821252 L8.681166920442006 -434.5199748169095 L8.476021773388851 -398.13338618271086 L116.57804191599193 -396.7040350655112 L114.11348775171801 -433.4531656426971" stroke="none" stroke-width="0" fill="none" fill-rule="evenodd"/><path d="M115.69689142339459 -434.4135400972273 C90.82062537942228 -431.76672229846514, 64.60668916047541 -431.8205312508874, 7.661061635113705 -433.63924500705355 M115.15363831493241 -432.09190182422253 C74.63559626134223 -433.64934793901523, 32.17758246087561 -432.70262633054745, 6.502877407660025 -433.54269604857257 M6.613509075465145 -433.3265204828232 C6.163324342979705 -425.16864515547496, 5.684754534007378 -416.7699134752284, 7.306847713059164 -397.51727286278 M7.99163379517936 -432.1389712311813 C6.54720836073269 -422.88749266384116, 6.186577200614532 -414.4693125002788, 6.522757623375766 -397.118974907973 M9.101572993528944 -397.38149772937635 C30.98817016278474 -397.1314883899542, 54.47159917411901 -396.25891565355676, 113.75107267587501 -398.727055155408 M7.860123588171171 -397.4272357045527 C48.08977507039233 -395.51650171084, 88.07667042681474 -395.4710141807494, 114.38337951419831 -397.1353448322995 M116.33417500831874 -397.3520106543017 C115.42303688506567 -410.43329157852185, 113.75413967294334 -422.8003054003857, 114.48896801479361 -434.66732852840397 M115.30917147227774 -397.94620655841413 C115.34227041445244 -408.46173139996506, 115.65841925714899 -421.1432243217351, 115.4396154338114 -433.4979653277713 M115.3 -433 C115.3 -433, 115.3 -433, 115.3 -433 M115.3 -433 C115.3 -433, 115.3 -433, 115.3 -433" stroke="black" stroke-width="1" fill="none"/></g>
<text text-anchor="middle" x="61.27" y="-410.8" font-family="Times,serif" font-size="14.00">apiGetTaskLogs</text>
</g>
<!-- apiGetTaskLogs___Error -->
<g id="node20" class="node">
<title>apiGetTaskLogs___Error</title>
<g><path d="M441.13551103594926 -453.1299848077445 L334.3269117540033 -451.000695069519 L334.0759658465745 -416.66270105671447 L441.2756385487392 -416.3395144144865 L441.67644176148707 -451.0605185157279" stroke="none" stroke-width="0" fill="none" fill-rule="evenodd"/><path d="M441.9762434393427 -450.7829129148344 C405.60675516459133 -451.70135628048627, 368.92323579658625 -451.7659412425377, 331.1065588973582 -453.21556485857593 M440.73629862906876 -451.3631590445365 C404.43484858607326 -451.8298433830862, 367.28964530054697 -452.33901701651433, 333.82552975371914 -451.8218751298832 M334.8687399946395 -453.6416335057389 C333.7449156497836 -442.2373403031255, 333.98529686347507 -428.8529592066134, 333.10416037783796 -416.1121466854324 M333.44778216064435 -451.1383824855199 C332.59762284038146 -443.81722248813975, 333.25305627303146 -437.1211570325575, 332.5342832242934 -415.4007242106884 M333.2857375591611 -417.14605885811153 C365.0857008351585 -417.6905350582897, 394.7602436802571 -415.245140692073, 439.4905713774242 -417.0801720783674 M333.4847831232393 -415.35247525566507 C367.95760294620203 -416.79270464835065, 404.0307040029105 -416.3218422868071, 440.78982599959454 -415.5466985095471 M442.42354878802854 -416.0608346316866 C439.52706558095593 -425.1276999579917, 439.3171803817422 -431.7013426960495, 442.47439878154034 -452.4615268201172 M441.8161230911937 -416.8701422843783 C440.1872090197086 -429.90604043215563, 441.29780920700455 -442.7231765957536, 441.45008511770254 -452.50418599732166 M440.94 -452 C440.94 -452, 440.94 -452, 440.94 -452 M440.94 -452 C440.94 -452, 440.94 -452, 440.94 -452" stroke="black" stroke-width="1" fill="none"/></g>
<text text-anchor="middle" x="386.91" y="-429.8" font-family="Times,serif" font-size="14.00">apiGetTaskLogs</text>
</g>
<!-- apiGetTaskLogs___Error&#45;&gt;taskStore___TaskKeyValueStore -->
<g id="edge9" class="edge">
<title>apiGetTaskLogs___Error-&gt;taskStore___TaskKeyValueStore</title>
<g><path d="M442.30203423351753 -419.56319246200377 M440.96 -417.8 C449.7684043380558 -417.64921001771154, 457.37737202808677 -419.407899855758, 460.46575925894393 -419.3524278807212 M442.2916673162922 -416.41099811498447 C451.26273176785946 -417.7634245152388, 457.00825340713476 -418.23338045642646, 461.2097899855893 -417.32032590976553 M459.21 -417.8 C457.9487307729129 -419.28962545752717, 458.1089413482664 -167.20831380124375, 459.37635318138183 -168.21654415246692 M460.5800550730315 -418.14900096677525 C458.8343637379359 -419.4374012094981, 457.56743340616043 -167.15515124167456, 461.50231483679823 -167.10219342723116 M459.21 -166.5 C457.89727505404477 -166.83776733668094, 496.74735141049445 -168.498813973358, 498.64184376239245 -165.30519619309524 M459.27954415355856 -164.85287407591548 C457.48914055664073 -165.4308061007375, 496.61804370878775 -164.8051860894934, 497.4367775254922 -165.39585516596594" stroke="black" stroke-width="1" fill="none"/></g>
<g><path d="M497.10929777843893 -170.05092189803136 L508.2877849554945 -166.36671710781383 L498.2555759531888 -164.02652920222997 L498.3455463433915 -170.49158487228297" stroke="none" stroke-width="0" fill="black" fill-rule="evenodd"/><path d="M497.0841621568942 -169.5087869490642 C501.50252416748896 -168.1542864790099, 505.1035102383947 -167.87978808132536, 508.2480303189338 -167.1291452015247 M497.73624719198847 -169.56711313484703 C500.4929731485475 -169.2063990700946, 503.3795361809294 -167.80049904090816, 507.66679759421146 -166.20141080347366 M508.0386063315339 -165.51728991160692 C504.25190408741366 -164.56770545271996, 500.9074121958354 -164.15496287871233, 497.4898859582968 -163.5326900338076 M508.4687113576957 -167.02802068755315 C505.2824727698047 -165.2189589940993, 501.84922858704476 -164.28156060950047, 498.06879668194483 -163.24991140228136 M498.582570526289 -163.3078182704544 C497.4388239024756 -165.44148933325235, 497.8968658105699 -167.49071996347257, 497.77605017420404 -170.23460251841027 M497.86528308059746 -163.06091054889 C498.1966211272064 -164.91801708189536, 497.85290736323265 -166.8311358959409, 498.30972374581665 -169.87814048947638 M498.04 -170 C498.04 -170, 498.04 -170, 498.04 -170 M498.04 -170 C498.04 -170, 498.04 -170, 498.04 -170" stroke="black" stroke-width="1" fill="none"/></g>
</g>
<!-- apiGetTaskLogs___Error&#45;&gt;taskStore___TaskKeyValueStore -->
<g id="edge10" class="edge">
<title>apiGetTaskLogs___Error-&gt;taskStore___TaskKeyValueStore</title>
<g><path d="M442.1223064657021 -420.6005461686328 M441.02 -419.6 C454.9253382316824 -420.054701716801, 465.153085857035 -420.9820776172016, 463.82339932350294 -418.67920842925565 M442.98722514163626 -421.08044157928185 C453.30084174655815 -417.7372717570196, 464.1481264586481 -418.66477438839127, 465.7463078566703 -421.50287796692396 M464.21 -419.6 C464.0257534819465 -419.85732441883243, 464.7071015534993 -170.71951248935858, 465.97187191950536 -168.51329479383583 M462.8780282147405 -418.8685534844393 C466.0049272414154 -421.7580834463721, 465.50196405948947 -166.79280118853885, 464.3878411925785 -169.21595135086645 M464.21 -168.75 C464.35873466631085 -169.84877550138543, 498.82157908441815 -167.37986168000697, 498.9571757542353 -168.96350844464567 M462.45479885292144 -170.35114013848874 C462.8690333215136 -167.7067814270301, 498.65658889278336 -167.31519582864422, 499.27984297359865 -167.42340965061214" stroke="black" stroke-width="1" fill="none"/></g>
<g><path d="M497.3167358114145 -170.38747558921008 L509.72924112259386 -167.02259857829878 L498.54814283729564 -166.58006314633766 L497.19938563119075 -171.97821477776648" stroke="none" stroke-width="0" fill="black" fill-rule="evenodd"/><path d="M498.0768680214768 -172.04954735327772 C501.00898825089445 -170.66955327471862, 506.0156790563277 -169.3105217434233, 508.11070491604045 -168.57543282165773 M497.3368673953413 -172.65810409272206 C501.5393031952047 -170.58110549217116, 505.14282630801847 -169.53523568701905, 507.67525318521007 -168.40085443458153 M508.0300954624184 -167.71169214963038 C503.832071043158 -167.65291832871583, 501.4765345288425 -167.186247781817, 498.4340726372612 -165.6520829223433 M507.39203831774375 -168.9149959090204 C504.39664136980264 -167.38993703579743, 501.14070646733103 -166.01992604637488, 497.95488430963246 -164.8805686976223 M498.47631268796346 -164.97046175340873 C497.31054297628776 -167.4612760389052, 498.4227045341648 -168.02052315358594, 497.94284680519036 -172.15835772952096 M497.66735202668815 -165.13370177425435 C497.52745380834034 -167.3324507744288, 497.64998321383075 -170.1838614255768, 497.5955326291429 -171.99035413238806 M497.83 -172.25 C497.83 -172.25, 497.83 -172.25, 497.83 -172.25 M497.83 -172.25 C497.83 -172.25, 497.83 -172.25, 497.83 -172.25" stroke="black" stroke-width="1" fill="none"/></g>
</g>
<!-- apiGetTaskLogs___Error&#45;&gt;containerRuntime___DorcContainerRuntime -->
<g id="edge19" class="edge">
<title>apiGetTaskLogs___Error-&gt;containerRuntime___DorcContainerRuntime</title>
<g><path d="M442.84787590893416 -422.1980054764307 M441.26 -421.4 C440.2352789213093 -423.36554538063314, 475.81339567499094 -420.4095318267992, 474.8293631853762 -420.6703712853254 M439.6117014305295 -420.46133266175383 C443.248335463609 -422.2266273053372, 474.98784768835003 -422.8068943229085, 475.4066527931294 -421.7117128918237" stroke="black" stroke-width="1" fill="none"/></g>
<g><path d="M475.0192847776267 -423.93718311539357 L483.9566464589206 -420.997175421023 L473.06433066743136 -419.63790750801036 L474.67154290404454 -425.1319074703762" stroke="none" stroke-width="0" fill="black" fill-rule="evenodd"/><path d="M473.2999099774029 -425.8866079694431 C477.61782944818776 -424.7301302309584, 479.9706952296955 -422.4752220387214, 483.3162346350624 -422.2840527292169 M473.9053316138147 -424.50085114719593 C477.4823486806755 -423.342597999793, 481.08821963253047 -422.61224046400633, 484.5073691790034 -421.29185523028576 M483.71841741023655 -422.18393043669704 C480.7072502511779 -420.5405398482126, 475.98933053603093 -419.4818313944382, 474.96998073946816 -418.0696161415767 M484.13379252767487 -421.9029076297428 C481.23558993250805 -420.8660180926932, 478.40870378693916 -419.08951897709755, 474.08270422961493 -417.8860961193103 M473.5101315414557 -418.2098734487628 C473.9270708415428 -419.1698388468891, 473.907237908956 -421.76047560176096, 473.58712337656175 -424.8036394998976 M474.14304810320164 -417.651395797473 C473.7261525537995 -419.7828975841127, 474.3240009675092 -421.3243395220278, 474.111672780058 -424.6099589807004 M474.03 -424.9 C474.03 -424.9, 474.03 -424.9, 474.03 -424.9 M474.03 -424.9 C474.03 -424.9, 474.03 -424.9, 474.03 -424.9" stroke="black" stroke-width="1" fill="none"/></g>
</g>
<!-- apiGetTaskLogs___Error&#45;&gt;containerRuntime___DorcContainerRuntime -->
<g id="edge20" class="edge">
<title>apiGetTaskLogs___Error-&gt;containerRuntime___DorcContainerRuntime</title>
<g><path d="M442.1775717283394 -421.5284825656205 M441.26 -423.2 C442.58413062525113 -421.9110914964329, 474.0875869184428 -423.6303864433432, 475.6836077141629 -424.9963285182603 M439.36183042543297 -424.11603748558935 C443.2226794130528 -422.8901630879843, 475.48792633430304 -422.9564234144782, 476.10503347084574 -422.34775306701454" stroke="black" stroke-width="1" fill="none"/></g>
<g><path d="M475.09595115227836 -428.38659956733665 L483.6462932948753 -425.1825885549443 L475.22355567183155 -421.61664086250363 L474.4037909176462 -428.5121268176499" stroke="none" stroke-width="0" fill="black" fill-rule="evenodd"/><path d="M474.25188042757287 -427.2504805703468 C477.1616040572583 -425.31023538463404, 480.1372338107192 -424.0557960278309, 483.7981613399947 -424.0851964488684 M474.5329616603297 -426.90010243569503 C476.3819962187169 -425.5401445079607, 478.66725934409527 -424.91012957370646, 483.77162022203527 -423.72331604821 M484.4313902705126 -423.62497370236775 C480.5336412670516 -423.169508874208, 478.6557529529936 -421.7809467996306, 473.16314116593117 -419.4094620805498 M483.92903406699537 -423.25727699498503 C480.6802550368843 -421.702376070925, 478.1136006538113 -421.25520687655876, 473.65895400340185 -419.2807544753737 M474.5666799384318 -419.5017298427176 C473.5769460648189 -421.85355008276116, 473.42807749678093 -423.13242740966706, 473.4200292176121 -426.2180100876582 M474.2774270199377 -419.52418992370514 C474.20778967863276 -421.961622872846, 474.33304732273075 -424.39932617472994, 474.09996011167004 -426.4963890430526 M474.03 -426.7 C474.03 -426.7, 474.03 -426.7, 474.03 -426.7 M474.03 -426.7 C474.03 -426.7, 474.03 -426.7, 474.03 -426.7" stroke="black" stroke-width="1" fill="none"/></g>
</g>
<!-- taskStateFunction___Func -->
<g id="node21" class="node">
<title>taskStateFunction___Func</title>
<g><path d="M445.8772511005693 -35.963974159889624 L327.52296316705844 -37.02711033759847 L328.87459932586836 1.5084916578058145 L446.90722062957354 -1.6542539038053903 L444.98493505067074 -37.737058895375554" stroke="none" stroke-width="0" fill="none" fill-rule="evenodd"/><path d="M446.3656356148467 -36.65449286233043 C411.52691882204 -36.790165439046724, 378.03563276043536 -38.14079373382964, 329.8476286676964 -34.312445064581546 M444.4045807005972 -36.67427042456389 C398.6789128605035 -35.2503712773083, 353.1760625412136 -34.95671789750386, 327.7608480393721 -35.302555949234495 M327.13034393699536 -34.34057787118584 C329.17057284244953 -25.289779785591943, 328.54212732669987 -16.774377981497487, 329.5309546215964 0.2600857918956381 M329.1743901335794 -35.200972053884826 C328.6951514722647 -28.801733748462258, 327.4733604539232 -18.944839962513736, 328.5485870969424 0.9036398726298538 M328.1491625568756 1.0069644126799746 C362.91786626631637 0.7872614590732285, 398.3864302139935 -0.5754537520295313, 443.42301109640346 1.3555824090658 M329.1340010244744 -0.20685086839865763 C360.81565959208126 1.311584082728105, 392.46017096962316 -0.1691530302938593, 444.6412948073555 0.9015299779974648 M445.11748025305894 -0.857704424908893 C444.14965817670696 -9.291180766897881, 446.04690439169497 -21.560056907833463, 445.682006465677 -35.88013695584284 M444.6298616517161 -0.9287040293728901 C444.43339909505687 -9.419040319608772, 446.0157308985076 -19.471473673064057, 444.2495736879576 -36.2097422072549 M445.23 -36 C445.23 -36, 445.23 -36, 445.23 -36 M445.23 -36 C445.23 -36, 445.23 -36, 445.23 -36" stroke="black" stroke-width="1" fill="none"/></g>
<text text-anchor="middle" x="386.91" y="-13.8" font-family="Times,serif" font-size="14.00">taskStateFunction</text>
</g>
<!-- taskStateFunction___Func&#45;&gt;taskStore___TaskKeyValueStore -->
<g id="edge11" class="edge">
<title>taskStateFunction___Func-&gt;taskStore___TaskKeyValueStore</title>
<g><path d="M446.55034014496704 -10.965868923514456 M445.1 -12 C462.8582504399094 -11.323609793639953, 477.64621916626965 -10.231982585933473, 479.84602862933355 -10.300812471390227 M444.89693536795625 -10.223963522256941 C463.6853756206722 -10.397317340477478, 480.8783220790566 -12.294386111158584, 479.5161153117246 -11.932205428351468 M479.21 -12 C479.762814050307 -10.588048922875611, 479.2891764188117 -135.08182854739877, 480.3895770977264 -136.81135737514103 M480.53252251406127 -12.960980185905088 C479.40841231291813 -12.075866502191996, 477.84618392190697 -137.80859094336296, 480.1883301814633 -134.5204593903548 M479.21 -136.8 C478.78254653069774 -135.6267290314728, 496.1805997116369 -135.225734353135, 497.6786973631745 -138.2790605429803 M479.25398261969684 -137.41052978226872 C478.05871527244784 -138.1347762871595, 499.9728680655634 -138.5272061798648, 496.26009094255096 -139.0545306891207" stroke="black" stroke-width="1" fill="none"/></g>
<g><path d="M497.9344177372767 -140.96317095824628 L507.42577732847116 -137.48741831517356 L498.73971752184184 -132.7689520184187 L496.96618630858706 -138.91408696487463" stroke="none" stroke-width="0" fill="black" fill-rule="evenodd"/><path d="M498.18432535586646 -140.27321962450188 C500.50835446522217 -138.87117941348703, 505.3598915345655 -138.8528533949259, 507.6314364658841 -136.3052181604395 M497.814651687578 -140.6953641765363 C501.78121158041165 -138.94139900084076, 503.909619426638 -138.58582416332422, 508.6909513337717 -137.24665610896736 M507.41274667479365 -137.53436215240401 C504.60401604792935 -134.6687743630079, 500.2693294236358 -134.5174563810799, 498.37733609020364 -132.9419921023859 M508.3433521587411 -136.35219188339616 C505.18113537836535 -136.1338707461472, 502.88481805779327 -135.09782532443452, 497.91301461238476 -133.45110515781585 M498.79009751963184 -133.0056212632434 C498.3633532986586 -135.17303036356532, 498.35471824755575 -137.1157634471025, 497.6760155427972 -140.44235778301203 M498.233533214756 -133.4250860274114 C498.0243686929052 -135.44992278728716, 497.871008467861 -137.36076304672667, 498.2389002719871 -140.49459052342294 M498.18 -140.3 C498.18 -140.3, 498.18 -140.3, 498.18 -140.3 M498.18 -140.3 C498.18 -140.3, 498.18 -140.3, 498.18 -140.3" stroke="black" stroke-width="1" fill="none"/></g>
</g>
<!-- taskStateFunction___Func&#45;&gt;taskStore___TaskKeyValueStore -->
<g id="edge12" class="edge">
<title>taskStateFunction___Func-&gt;taskStore___TaskKeyValueStore</title>
<g><path d="M444.1852578813408 -16.494719754893538 M445.14 -18 C459.4504265661147 -16.85485659442712, 473.56809972250176 -17.83209653734419, 472.9174377834068 -19.70376688261448 M445.39149264243326 -18.2733776790088 C462.40200200905 -16.510303351762765, 472.47940288083043 -18.210945972716317, 473.72962690361214 -18.90747930157123 M474.21 -18 C475.3559918580437 -18.88361317684454, 472.5585820748202 -136.99999164760652, 474.2323602850203 -139.26008490151122 M473.63517836973836 -18.181518297873215 C474.99966412862113 -16.722310976920895, 474.78516823794047 -136.99563281301417, 473.9453904426013 -139.10257588082763 M474.21 -138.6 C476.0344079784304 -138.57250954866325, 497.52778777430865 -139.25242169888236, 500.0405776842351 -137.30804596931543 M475.5821074193143 -139.2024480599508 C472.520396651663 -137.87228839983047, 496.56637115379027 -139.69643275018433, 497.90625504035825 -136.33222519458457" stroke="black" stroke-width="1" fill="none"/></g>
<g><path d="M498.6304155502944 -141.03067750475864 L509.13320204334565 -139.6229671935742 L498.2194013590428 -134.34664976736278 L497.2058234239116 -141.45369914293642" stroke="none" stroke-width="0" fill="black" fill-rule="evenodd"/><path d="M498.45778415114984 -141.47098405136882 C501.5983561243215 -141.0306888740941, 504.83762883519245 -139.7291347190874, 508.88808472662674 -139.12388116197477 M498.2849602756862 -141.91991115289082 C501.76182737145075 -140.87205837910972, 505.56393454099845 -139.64888602244835, 508.7303411862015 -138.14794213735038 M507.23377883999154 -138.59232269220328 C503.6335135458235 -137.60094624760077, 501.30660781188107 -136.31246141919345, 498.784437535255 -134.57160450773534 M507.8693170308921 -138.27953596327788 C506.3117041983163 -137.72319329233224, 502.89030992459067 -137.43047067145625, 498.20730904164583 -135.51122331108513 M498.58074946255874 -135.75732712414066 C498.94219956568264 -137.4450306151747, 498.9928012493578 -139.8627521786495, 497.85959276377986 -142.39143996752918 M498.19290721099685 -135.08149000004286 C498.50203151684656 -137.4064125691185, 498.4507476652673 -140.24630191589367, 498.1324719313516 -142.0620196231323 M498.27 -142.1 C498.27 -142.1, 498.27 -142.1, 498.27 -142.1 M498.27 -142.1 C498.27 -142.1, 498.27 -142.1, 498.27 -142.1" stroke="black" stroke-width="1" fill="none"/></g>
</g>
<!-- taskStateFunction___Func&#45;&gt;taskStore___TaskKeyValueStore -->
<g id="edge13" class="edge">
<title>taskStateFunction___Func-&gt;taskStore___TaskKeyValueStore</title>
<g><path d="M446.2932629443227 -22.16886906832992 M445.4 -24 C457.47913062877905 -25.62788114282907, 469.39297706304455 -24.42344047033677, 469.1320782352601 -22.199498420513738 M444.90899007870246 -22.885195845404176 C459.89991658423594 -24.144146928300767, 471.45103686865815 -24.15708728683325, 467.96754308966393 -22.219515734597984 M469.21 -24 C470.5177483796302 -24.41668902476681, 470.1650738557692 -141.81454697176613, 469.25938031895487 -140.62422622552555 M467.26748157909265 -25.05524582669746 C468.65279267122145 -23.05215937388507, 468.49734315836776 -138.4576970079105, 468.57148061644807 -138.77974565682914 M469.21 -140.4 C467.7060082051235 -140.69481369654684, 498.5583911795101 -142.13274143549242, 496.5592331583028 -139.66157359248547 M467.3364613577101 -140.35627755717286 C470.1698431864772 -139.7902637465328, 496.60270606542207 -139.05863820772842, 499.2382717713465 -140.67933804201562" stroke="black" stroke-width="1" fill="none"/></g>
<g><path d="M499.8454664680999 -144.59781350743134 L506.2342300679691 -142.1026093814095 L499.31614121819393 -137.61337099246737 L496.38248391361424 -142.98687196730222" stroke="none" stroke-width="0" fill="black" fill-rule="evenodd"/><path d="M497.4203982704716 -143.7414200681051 C499.6492278308369 -142.79996648409062, 502.28884794905787 -142.04753444736627, 507.4911376290014 -139.84935027565012 M497.9508822433678 -144.28696479413978 C501.4632887887865 -142.5581543588357, 505.167446531997 -141.59818140257227, 507.8025524850382 -139.89033995170684 M508.36141736139757 -140.44285967476088 C504.10835964121463 -138.92981054670986, 501.856610219335 -137.44652782697608, 498.4192445819467 -137.0198845776159 M507.91273191045696 -140.0024496312572 C504.78801483157775 -139.52763616153075, 502.23003206920316 -138.42352821063744, 497.402937036562 -137.41235601182507 M497.57828419424607 -137.5289940302589 C498.62152903002294 -138.2649474866462, 497.48461054529247 -140.38657868073633, 497.90384798950896 -144.5248501050663 M498.08112741444023 -137.04408932195062 C497.89928171135125 -139.27892646259846, 497.87601914286677 -141.79711342319192, 497.88675762559717 -143.93037512801425 M497.91 -143.9 C497.91 -143.9, 497.91 -143.9, 497.91 -143.9 M497.91 -143.9 C497.91 -143.9, 497.91 -143.9, 497.91 -143.9" stroke="black" stroke-width="1" fill="none"/></g>
</g>
<!-- taskStateFunction___Func&#45;&gt;containerStateTopic___ContainerStateEventTopic -->
<g id="edge16" class="edge">
<title>taskStateFunction___Func-&gt;containerStateTopic___ContainerStateEventTopic</title>
<g><path d="M445.10187442624994 -29.20046736410289 M445.13 -30 C449.3186749447908 -31.842761406008723, 454.65940935587867 -31.82122964106658, 453.09902900738336 -31.5414440211103 M446.2170339016136 -31.218573099209234 C450.78194277247184 -31.164716594363718, 455.5011789681456 -32.05023560480077, 456.40113577109224 -31.77211157612197 M454.21 -30 C454.47201542339315 -30.419875557281653, 453.070112076454 -212.7327099978593, 453.9103587017532 -211.63632168164995 M455.5705911452681 -30.631869283446676 C454.6181061935531 -29.06654239388436, 452.58919659729 -211.17562874800927, 451.9562047740178 -214.67675479044996 M454.21 -213 C454.54764928251916 -211.27919909266677, 625.5854811335871 -214.6665965521681, 624.8659990289876 -213.31638208376575 M453.13998761076124 -211.50044873139896 C455.10229366791214 -214.61668307442417, 626.7204711848703 -210.8142972755801, 627.7452926664043 -213.1505209656045" stroke="black" stroke-width="1" fill="none"/></g>
<g><path d="M627.4525351670185 -217.3560381957563 L637.2232241411098 -212.3085015671657 L627.4363010375414 -210.77522598439026 L625.615297055163 -217.80786641966785" stroke="none" stroke-width="0" fill="black" fill-rule="evenodd"/><path d="M626.4442452952368 -216.0590031279373 C628.8302574246742 -215.93576124309809, 633.4680245286569 -214.70404872829081, 636.8036256960481 -213.11612829803823 M626.7236532479792 -216.058937015975 C629.3287991006955 -215.88327216967699, 632.9281306593113 -214.27049671454446, 636.3601552141852 -213.27572306325195 M636.0269430474827 -212.37292542382684 C635.0353748585059 -211.37396354450104, 632.6894174618038 -211.06122946057488, 625.5945880719576 -209.2215279432766 M636.5384073771336 -212.695451442047 C632.6149102949481 -212.19798785608685, 628.5157720835703 -210.4147570937041, 626.8646506387155 -209.87244846688708 M626.8238454799881 -209.15881224209002 C625.9371234596471 -211.94221067871953, 626.8781198591266 -214.2980749142827, 626.0701805552939 -215.94444078933174 M626.09553825521 -209.70733632427948 C626.4657009123551 -211.57423378982867, 626.6321159427945 -214.0497890072308, 626.6079465649664 -216.79636264667462 M626.36 -216.5 C626.36 -216.5, 626.36 -216.5, 626.36 -216.5 M626.36 -216.5 C626.36 -216.5, 626.36 -216.5, 626.36 -216.5" stroke="black" stroke-width="1" fill="none"/></g>
</g>
<!-- taskStateFunction___Func&#45;&gt;taskStateTopic___TaskTopic -->
<g id="edge17" class="edge">
<title>taskStateFunction___Func-&gt;taskStateTopic___TaskTopic</title>
<g><path d="M443.38956542204727 -4.095043242944521 M445.22 -6 C446.9502868675622 -6.75813637976526, 483.815219487548 -4.193751628433659, 480.7388537391874 -6.380374178671522 M445.12067879172247 -5.170550228730603 C443.9660303505748 -5.271245436588707, 483.9233114554021 -6.854908944016276, 480.49523255388755 -3.706327377853299" stroke="black" stroke-width="1" fill="none"/></g>
<g><path d="M480.553143624761 -10.780312332049952 L490.70915073551976 -6.783190033752461 L484.1903888476185 -2.1101197535217002 L480.3837194934598 -7.880434755983701" stroke="none" stroke-width="0" fill="black" fill-rule="evenodd"/><path d="M482.1644683329684 -9.7206419599519 C486.3123184954035 -8.614373752304948, 490.0297843783798 -6.9970162640349685, 492.93169641648217 -5.7124730428189 M482.4796225889036 -9.308238501474374 C485.95511545290674 -8.650542153977005, 489.8659341132446 -7.019592752058375, 492.66318736699316 -6.479164275865528 M491.89650600873364 -7.052267785134916 C488.3425539916859 -4.204027807759206, 485.4862748767457 -2.4111820940961604, 482.10321567685406 -2.5696554614867373 M491.93926753162685 -5.76458901309274 C489.55374262566784 -4.875804557622196, 487.3203199180057 -4.807351109872389, 482.8319604608152 -2.1737539948418285 M482.28042888862416 -2.1113053003740294 C481.77882727689945 -4.4768924900957945, 482.2513856337677 -8.180446568888476, 481.96035447613116 -9.484858635201897 M482.4873189696993 -2.5525460071904136 C482.3878336267572 -5.099273391244962, 482.04573237549954 -7.671753616465956, 482.2383558488936 -9.204127512884027 M482.34 -9.5 C482.34 -9.5, 482.34 -9.5, 482.34 -9.5 M482.34 -9.5 C482.34 -9.5, 482.34 -9.5, 482.34 -9.5" stroke="black" stroke-width="1" fill="none"/></g>
</g>
</g>
</svg>
