<!DOCTYPE svg PUBLIC "-//W3C//DTD SVG 1.1//EN" "http://www.w3.org/Graphics/SVG/1.1/DTD/svg11.dtd"><!-- Generated by graphviz version 5.0.0 (20220707.2145)
 --><!-- Title: G Pages: 1 --><svg width="181pt" height="44pt" viewBox="0.00 0.00 180.99 44.00" xmlns="http://www.w3.org/2000/svg" xmlns:xlink="http://www.w3.org/1999/xlink">
<g id="graph0" class="graph" transform="scale(1 1) rotate(0) translate(4 40)">
<title>G</title>
<g><path d="M-3.56203998629106 3.8845654965033463 L-3.1004722769530675 -39.061195617364476 L177.61231570913372 -40.97205622115499 L177.19673485687093 5.675870969338076 L-2.6883202986145722 2.0653930839365895" stroke="none" stroke-width="0" fill="white" fill-rule="evenodd"/><path d="M-2.4106351752550115 5.151885939962752 C-5.058224717376443 -4.0192806713234015, -3.970432036506679 -14.073058470420923, -4.756856764485757 -40.74031088035039 M-4.789680704055733 3.533229973440164 C-4.3094246886064065 -6.821460885999467, -5.23956617783108 -18.450352486197477, -3.202185398791461 -40.70777347938827 M-2.455405840894593 -41.371852019277966 C57.634243668012935 -37.07301100524076, 120.98527558330201 -40.12937644356601, 175.2060956776098 -39.60084411274917 M-4.7940104124837895 -39.29087717129356 C47.65893294201524 -39.01361313257048, 99.04188974920156 -38.98454874632206, 176.08212861267387 -40.64730910293165 M175.96596681340702 -38.0238794331286 C177.5024389975627 -24.898165392266886, 175.14004882851765 -12.037155519390712, 176.6868565038251 4.527654889547722 M176.27435361927445 -39.27676484035452 C177.38403231704078 -24.77325345926311, 176.1976523444038 -9.0608856644285, 177.55367043189506 4.50610085062775 M176.95601432134328 5.357174638393642 C114.12554373902773 2.5001012279439996, 46.59725864916033 1.0747996724502, -3.6175939257863545 3.515990213734221 M176.33056732921267 3.6376535265848493 C118.43761163099893 5.169864643809242, 59.08362894972441 5.279277195654043, -3.7182605235964252 3.6863005910911 M-4 4 C-4 4, -4 4, -4 4 M-4 4 C-4 4, -4 4, -4 4" stroke="transparent" stroke-width="1" fill="none"/></g>
<!-- helloFunc___Func -->
<g id="node1" class="node">
<title>helloFunc___Func</title>
<g><path d="M172.8773749137794 -35.520891379296984 L100.1133950362459 -37.68614158408107 L101.75609821678053 0.7343783592074358 L174.8915037419104 -1.967580632735011 L171.89740978313876 -35.764409199895226" stroke="none" stroke-width="0" fill="none" fill-rule="evenodd"/><path d="M172.1031387166868 -37.05032763328054 C151.90388169833653 -35.58257296953961, 128.64701804097865 -35.77041562766178, 102.6023997748378 -34.1402427104271 M173.87084567474386 -36.366756810701006 C157.7370430378396 -34.64153806099935, 142.02093098337116 -36.018854077336385, 100.59955995016526 -35.94191323843342 M100.56115594322348 -37.4359261592246 C100.70307998120664 -23.816179612679647, 101.59184293693255 -12.0963302446129, 102.24624764221738 -0.5141613847608442 M100.13260857172399 -36.200126567339616 C101.41366461021472 -26.921176299714894, 100.56174670298292 -18.68375248352304, 101.95797783322182 0.0951065897147707 M101.1735851965592 0.8563402366308459 C120.5299158328004 1.1026228770450022, 142.35269139893543 -1.0649750324012945, 173.51362293251256 1.6604428566198681 M101.83059568533758 0.5614488267840949 C115.52921971933542 0.7842169317058144, 132.34855501701978 1.0487490853221053, 172.44029810377435 -0.17091999588795703 M171.10504084599182 0.823397320615312 C171.75579782382135 -12.892475367960593, 173.2672692457805 -24.626606038857645, 172.45506547686495 -35.42284932760353 M172.7858872140425 -0.5505107666678719 C171.8516467173733 -9.345560794177354, 173.52970374254477 -18.76569171188363, 172.07565037018082 -36.792358046945594 M172.98 -36 C172.98 -36, 172.98 -36, 172.98 -36 M172.98 -36 C172.98 -36, 172.98 -36, 172.98 -36" stroke="black" stroke-width="1" fill="none"/></g>
<text text-anchor="middle" x="136.99" y="-13.8" font-family="Times,serif" font-size="14.00">helloFunc</text>
</g>
<!-- helloApi___Api -->
<g id="node2" class="node">
<title>helloApi___Api</title>
<g><path d="M64.3317901503711 -37.44434691850719 L0.6409386980024756 -34.38889006229249 L-1.5841215466741412 0.52052038315668 L65.49140910568552 -1.4594210910146828 L65.5205705731394 -34.63006194540255" stroke="none" stroke-width="0" fill="none" fill-rule="evenodd"/><path d="M63.30047217086445 -35.707538309634195 C48.93267841414198 -36.885429912435185, 35.30393854335738 -34.62272557063013, 1.6636568615881009 -37.144904055811665 M65.18114304388105 -36.82092929347369 C41.59831980214341 -36.86307673533087, 19.217250177937025 -35.26624819676664, -0.38838724243109457 -35.21294967991373 M-0.4287791436488684 -35.4063306846383 C1.4136258178522967 -26.57630666933665, -0.6425600483357456 -14.874234316887861, 1.8823557974967633 0.27027796698306705 M-0.6241818259329674 -36.98826359540738 C0.4828088615317248 -20.945096376634275, 1.0759516535256906 -6.847928196552257, 0.15309466786672044 0.4341683085948671 M-0.39547246903453903 -0.003312373562698312 C15.430129306073429 1.581214378812019, 30.630245736472816 1.5781612572031427, 63.98943206802691 -1.6147465835542532 M-0.317188679945585 0.7759373650997516 C18.29957339237695 -0.8969491937874642, 35.57392961179484 -0.007911286565150388, 65.88846484684306 0.8244360909706643 M66.50065443924522 -1.5731213526365684 C65.46505697651752 -7.621913162750136, 65.00331097624104 -17.296091945919077, 65.61813425534835 -34.83075089206978 M65.65077060088286 0.8374342312151168 C65.26699318685203 -11.804589539357089, 64.59611214486526 -24.41109764947485, 64.82479219213285 -36.956334730275145 M64.99 -36 C64.99 -36, 64.99 -36, 64.99 -36 M64.99 -36 C64.99 -36, 64.99 -36, 64.99 -36" stroke="black" stroke-width="1" fill="none"/></g>
<text text-anchor="middle" x="32.5" y="-13.8" font-family="Times,serif" font-size="14.00">helloApi</text>
</g>
<!-- helloApi___Api&#45;&gt;helloFunc___Func -->
<g id="edge1" class="edge">
<title>helloApi___Api-&gt;helloFunc___Func</title>
<g><path d="M64.96929032511463 -17.304701285293756 M65.27 -18 C64.27242876185898 -19.66272474068529, 91.95790954605049 -17.825891825948652, 88.98307143345131 -19.3494793926334 M66.50286132003794 -19.61496383434923 C66.96685312395539 -16.78970093068877, 88.68164517095185 -18.103409852451524, 92.14426461580908 -19.758190839139655" stroke="black" stroke-width="1" fill="none"/></g>
<g><path d="M91.03312554542532 -20.111679041400578 L100.35197188443846 -18.84546042885605 L90.88810781152539 -13.860614096732302 L92.4270196869879 -20.857778579994953" stroke="none" stroke-width="0" fill="black" fill-rule="evenodd"/><path d="M89.89037088411759 -22.41300753040121 C92.28508433088643 -20.705859537450625, 95.86324062688004 -19.20457470993305, 100.79699221330728 -17.356661852868417 M91.18325980722257 -21.595755151762162 C93.52332817841051 -20.69922541878245, 95.44164939136624 -19.306211630494598, 100.50142861374553 -17.712208008108025 M99.75451642104593 -17.59148365328832 C97.99171378746396 -16.737326456294905, 93.20804621242375 -14.847101159682351, 91.56738409576147 -15.218685901607467 M100.1788227947195 -18.001085215142655 C97.92685716290839 -16.674914887524796, 94.91383425026612 -15.98623556740582, 90.38352327382067 -14.747046269247546 M90.81210002339849 -14.807412295109412 C90.19905388541808 -16.78806050886919, 90.31524700936437 -18.957229555669375, 90.36803435768898 -20.900775728677996 M90.80373994841493 -14.75617687284286 C90.40711025863129 -17.182389022032464, 90.39048378371712 -19.573661139108317, 90.55629223346376 -21.273732862871867 M90.7 -21.5 C90.7 -21.5, 90.7 -21.5, 90.7 -21.5 M90.7 -21.5 C90.7 -21.5, 90.7 -21.5, 90.7 -21.5" stroke="black" stroke-width="1" fill="none"/></g>
</g>
</g>
</svg>
