<!DOCTYPE svg PUBLIC "-//W3C//DTD SVG 1.1//EN" "http://www.w3.org/Graphics/SVG/1.1/DTD/svg11.dtd"><!-- Generated by graphviz version 5.0.0 (20220707.2145)
 --><!-- Title: G Pages: 1 --><svg width="345pt" height="368pt" viewBox="0.00 0.00 345.47 368.00" xmlns="http://www.w3.org/2000/svg" xmlns:xlink="http://www.w3.org/1999/xlink">
<g id="graph0" class="graph" transform="scale(1 1) rotate(0) translate(4 364)">
<title>G</title>
<g><path d="M-4.739019099004496 2.3068832857084614 L-2.4390713554571386 -364.04601738360503 L339.59670592768657 -365.4728296610343 L343.450156345498 4.144765537730111 L-3.8000869840447207 2.148783706224311" stroke="none" stroke-width="0" fill="white" fill-rule="evenodd"/><path d="M-3.420004771967571 4.891317930560691 C-2.1991815736068085 -127.84516450171478, -3.128708031511944 -260.30307192078584, -4.880327962032717 -364.20493130617956 M-3.4110486581672963 3.872072766933775 C-1.9822084393500112 -115.80955680110962, -2.292678758516219 -235.84461220676022, -4.241645834001082 -364.32463418791826 M-3.8419414363287507 -364.46841441717424 C83.52474179806292 -363.1675342570145, 172.25822572843416 -362.789491596805, 342.27388845174664 -363.8077109257805 M-3.4615227640920967 -364.23461154761486 C108.62361147212016 -362.45487678567855, 221.73314167916004 -361.9472307112809, 341.4964185091694 -363.8526030324679 M341.9387264509537 -363.54681838902445 C343.163767256525 -265.21469236181275, 343.3469481712875 -166.01334373896918, 340.72381285363616 4.740658561512206 M341.97630501877575 -363.4859314210577 C340.61826055596407 -256.76281453497967, 339.99008582100737 -149.42253770424784, 341.98778970036875 4.4758180835045565 M340.26287712401796 4.8475840387642135 C262.46651199374384 5.303081866484969, 183.44679362472576 4.975478160922024, -3.6121419894903326 2.749825261732423 M341.23046578553146 4.097493178573828 C263.41521663959026 5.715675153678592, 185.39529453003726 5.358107196023631, -3.398087779288869 3.6520947295448947 M-4 4 C-4 4, -4 4, -4 4 M-4 4 C-4 4, -4 4, -4 4" stroke="transparent" stroke-width="1" fill="none"/></g>
<!-- API___list_tasks_api -->
<g id="node1" class="node">
<title>API___list_tasks_api</title>
<g><path d="M104.23364948307423 -37.129075854366526 L18.118603737097093 -34.78547451791294 L19.488435580465577 1.8495383024582734 L102.98454955015666 -1.8470689275364771 L103.99053545262196 -35.915585993560505" stroke="none" stroke-width="0" fill="none" fill-rule="evenodd"/><path d="M105.0313788294234 -36.54569684110303 C71.81968657790318 -35.76688629009119, 40.74699471154818 -37.28348336741796, 19.690357790553314 -36.63813936215067 M103.06213812934261 -35.90902064664681 C69.20198939221399 -35.127127669763354, 36.4570443527818 -35.40556604968525, 18.288436064385667 -35.289961998064925 M19.080666479908878 -34.292258355138465 C19.86911284633445 -24.084469241212847, 16.549812054777167 -12.42655093488599, 19.307682992091657 -1.5499177671371491 M18.666029745643748 -36.606583301526115 C19.37708973301499 -22.98858766755375, 18.625465517921263 -8.953097979739331, 17.516026676825383 -0.10238226252531613 M18.716882269190904 -0.5184904237262646 C49.93967208200495 1.551314701176222, 82.87913118299635 0.25555959275223594, 102.6035090790096 0.9206785386480911 M19.31522936396009 0.9814527444413526 C47.23656900301662 0.27908630288936, 77.31136739349678 0.07888656177430531, 104.37869260752475 -0.9050680343831212 M104.88493194384343 -0.16943352566226633 C104.84678310769378 -12.44023414442815, 104.9395664826605 -22.63967769745312, 104.33204688345882 -37.35596190866451 M103.30072863180696 0.7410201825333487 C103.96008742993324 -7.351858736864731, 103.49856658744416 -14.051174433046627, 104.24364172420212 -36.94694388586387 M103.8 -36 C103.8 -36, 103.8 -36, 103.8 -36 M103.8 -36 C103.8 -36, 103.8 -36, 103.8 -36" stroke="black" stroke-width="1" fill="none"/></g>
<text text-anchor="middle" x="61.07" y="-13.8" font-family="Times,serif" font-size="14.00">list tasks api</text>
</g>
<!-- Function___list_tasks -->
<g id="node5" class="node">
<title>Function___list_tasks</title>
<g><path d="M278.2018612786611 -34.447499704423024 L215.1841800490113 -37.61515491387683 L216.1858652718745 -1.6900622457375656 L280.0514847782133 -1.6119196176994128 L279.61994233612046 -34.830790642342265" stroke="none" stroke-width="0" fill="none" fill-rule="evenodd"/><path d="M281.25601469706487 -36.69503030374301 C261.6127588075349 -35.0382080388623, 247.2861209950652 -37.05899928116211, 215.397329249466 -36.66081931189792 M280.9045234259663 -35.867810893937616 C261.094967234484 -36.48695250615379, 242.73642589308173 -35.73362127976289, 215.19917140142311 -36.38617638747033 M216.5874439674658 -36.310567005228734 C216.75682922953746 -26.343985866094066, 215.28353547450783 -18.831181051030264, 215.73935731914392 0.22404007116857816 M214.8708330529738 -36.68400452065596 C216.9444750890447 -22.050498538549135, 216.9021283463897 -9.651063447054362, 214.88199631483914 -0.06942309107037747 M214.74066207740003 0.9957096483588632 C232.17506479065875 -1.4026785499210006, 248.0445503576696 -1.0974142271851854, 278.28360951316006 -1.9395021622654722 M214.95603511908638 0.3524202256383666 C233.7622359115983 1.0431315806096197, 253.42640455560112 0.48860087554307075, 279.90008310972564 0.7416932118705755 M280.30370617329237 -0.8546390371351134 C279.63909772104256 -9.65772737942389, 281.5453107118589 -19.617587014252813, 278.7936327663917 -37.33529520324514 M279.3198550959582 -0.5042553501811082 C278.9843692517334 -8.458755823894371, 279.45711378834824 -14.661826676232991, 280.66089037485375 -36.617522226287655 M279.93 -36 C279.93 -36, 279.93 -36, 279.93 -36 M279.93 -36 C279.93 -36, 279.93 -36, 279.93 -36" stroke="black" stroke-width="1" fill="none"/></g>
<text text-anchor="middle" x="247.81" y="-13.8" font-family="Times,serif" font-size="14.00">list tasks</text>
</g>
<!-- API___list_tasks_api&#45;&gt;Function___list_tasks -->
<g id="edge1" class="edge">
<title>API___list_tasks_api-&gt;Function___list_tasks</title>
<g><path d="M105.55886704691099 -19.987613135966896 M103.92 -18 C105.1493260398574 -19.930896527501964, 205.28444215498482 -18.977532301980958, 207.27552881264944 -17.147696796236726 M103.85179670401303 -18.016425959529926 C103.586258995138 -16.392138113781368, 204.81528328965987 -16.25628689476502, 203.4239664582512 -20.251210813232753" stroke="black" stroke-width="1" fill="none"/></g>
<g><path d="M204.73924137568278 -21.14886642932874 L216.57094107203602 -17.929555103106647 L204.6804911127393 -16.386838074192767 L203.93198114926827 -23.2408313646173" stroke="none" stroke-width="0" fill="black" fill-rule="evenodd"/><path d="M205.66275702442118 -21.79945881235781 C209.45208331810858 -20.11519713450039, 211.33244596407107 -20.024424579395806, 215.96318617085694 -18.34375978413689 M205.40713511401364 -21.801877609065475 C208.58154134351568 -20.726854315966555, 212.59226690512799 -19.003323744109572, 215.29895098122344 -18.068621202563087 M215.03419540133163 -17.30508282073854 C211.9492710485572 -17.49150895414723, 208.1080670029593 -15.266433825777332, 206.54721639579893 -15.003163989535905 M215.7919349344571 -17.535380803419052 C211.40255053417172 -16.612301587374958, 207.97994559964818 -14.841206837697142, 206.0471117248573 -14.960064829297814 M205.8308654719151 -14.829377683410167 C205.33263386254555 -16.404089501750178, 205.66815267508457 -18.714799071481792, 205.60332938022717 -22.05732292999232 M205.58783782039967 -14.611184465522665 C205.25808811512204 -16.648229925545795, 205.59321597520483 -18.215282702810327, 205.9990178315731 -21.414364618887348 M205.65 -21.5 C205.65 -21.5, 205.65 -21.5, 205.65 -21.5 M205.65 -21.5 C205.65 -21.5, 205.65 -21.5, 205.65 -21.5" stroke="black" stroke-width="1" fill="none"/></g>
</g>
<!-- API___submit_task_api -->
<g id="node2" class="node">
<title>API___submit_task_api</title>
<g><path d="M113.22772809377969 -88.49104477753971 L10.972725475770957 -88.65237725223365 L10.025362813790833 -53.6479611120546 L112.15499907477407 -53.90255993000247 L112.0254577728263 -89.68446172547489" stroke="none" stroke-width="0" fill="none" fill-rule="evenodd"/><path d="M112.38011018799865 -91.01030973964139 C73.55888373544396 -90.63674761305724, 31.54891395744054 -92.50543993030834, 9.612234495653944 -88.72386218850178 M110.405409432 -89.8700009597744 C77.06566538343733 -89.9092396620472, 44.238851043589065 -89.88460149995797, 11.038401465480494 -89.37085928482907 M10.264990667348362 -89.43345297378613 C11.364430498552853 -77.73738424431934, 11.34259179423357 -64.54623628181969, 12.077942289254228 -54.422729493306996 M11.269052835631712 -90.85130170474706 C11.359639584345032 -77.94908496109274, 11.917858774661102 -67.25471837554356, 11.455033473409692 -53.10242733704566 M11.734488510441821 -53.2466261722512 C30.494680787294588 -51.98847323028199, 52.728856973010785 -54.78953471836435, 111.81198274257247 -55.459385872938014 M10.136225004373586 -53.589049891596915 C51.6544262334584 -52.62734565137422, 90.3236645083953 -53.31047152039404, 111.61198230051983 -53.14235692709679 M111.27246696546305 -55.21094239060813 C110.52900458753471 -63.32537387507092, 112.82153968662631 -68.35588013422105, 110.00300759903598 -90.52735061252281 M112.0297015711952 -53.69342567001483 C112.00638471250365 -64.84140292964504, 112.39464878457323 -75.31217775879145, 112.17126392199282 -89.91869689314642 M111.35 -90 C111.35 -90, 111.35 -90, 111.35 -90 M111.35 -90 C111.35 -90, 111.35 -90, 111.35 -90" stroke="black" stroke-width="1" fill="none"/></g>
<text text-anchor="middle" x="61.07" y="-67.8" font-family="Times,serif" font-size="14.00">submit task api</text>
</g>
<!-- Function___submit_task -->
<g id="node8" class="node">
<title>Function___submit_task</title>
<g><path d="M288.6808617030771 -89.38671717224025 L207.64061024739337 -88.96356391717926 L206.14666827371167 -55.05432421204584 L289.8740352906894 -55.63656386185337 L286.00383467546044 -90.64747941438914" stroke="none" stroke-width="0" fill="none" fill-rule="evenodd"/><path d="M289.02805981091063 -88.61394872147008 C259.96548918834674 -89.8529381361884, 232.96856251905842 -89.96704543813418, 206.2147381352597 -88.56263429331192 M288.97558039833467 -90.7223143438245 C258.3702375399249 -88.48835077402717, 227.51951222212713 -89.4112927127287, 207.5089416483525 -89.18282006793311 M209.5834215129284 -88.13002176038131 C208.81303061896443 -78.50522549334998, 208.69338237365073 -64.81846003642534, 207.73644791763556 -53.18453286055342 M206.75826715546256 -89.1520622242539 C206.6581581058101 -80.95786994813665, 208.1049521733704 -74.14793983009287, 207.35438852988432 -53.648284235673046 M208.55516173901486 -54.20338259154575 C224.70755661851442 -55.65035841870056, 245.30380535376545 -53.51656332553208, 288.7979682318292 -54.71990184100325 M206.82855172435072 -54.112467711002694 C225.68555746207042 -52.91806288225097, 240.92239072892949 -53.592774118093374, 288.33650090485025 -54.96490139365133 M287.37709407610936 -55.67224570522884 C287.18241869572734 -66.02520284972846, 287.71925903420055 -78.19343095515282, 288.22226139515465 -90.40536701524776 M287.13722584615965 -54.68384366298627 C287.40279143472776 -65.30986847834478, 288.29705584249274 -76.51242762392198, 287.44632979969504 -89.66804269141458 M287.98 -90 C287.98 -90, 287.98 -90, 287.98 -90 M287.98 -90 C287.98 -90, 287.98 -90, 287.98 -90" stroke="black" stroke-width="1" fill="none"/></g>
<text text-anchor="middle" x="247.81" y="-67.8" font-family="Times,serif" font-size="14.00">submit task</text>
</g>
<!-- API___submit_task_api&#45;&gt;Function___submit_task -->
<g id="edge2" class="edge">
<title>API___submit_task_api-&gt;Function___submit_task</title>
<g><path d="M110.99856795400594 -71.91386482897529 M111.61 -72 C110.03497961645591 -72.09320610610624, 197.9442733035751 -72.21011752232442, 195.5980437024505 -70.9693702366976 M112.27855492984855 -72.60254120608856 C113.38921735352045 -70.41750135228418, 196.00339913783205 -73.0111124863637, 197.60775732908095 -73.30963117044097" stroke="black" stroke-width="1" fill="none"/></g>
<g><path d="M197.9411513967372 -75.58809290472749 L206.4347107564 -73.15255189978316 L199.14988544951842 -68.91310515925231 L199.0842886121037 -75.17483607141996" stroke="none" stroke-width="0" fill="black" fill-rule="evenodd"/><path d="M197.71418943858 -75.38866087820594 C199.76889116671705 -74.30281131653851, 202.4783756175349 -74.74538265576032, 207.41746481841562 -71.86123224644535 M197.20910370359746 -75.7791334781881 C201.18301623049965 -74.23204010313667, 204.8530316138873 -72.51200856732083, 207.0604855499773 -72.51751052068204 M206.95854447207898 -72.77123293342078 C204.8364530759444 -70.95595843690751, 203.33696179756632 -70.07177762889353, 196.70773245818842 -69.00567152024196 M208.02406356011636 -71.6385632914767 C203.51447369289286 -70.69196346217109, 200.19933184740523 -69.08595994990492, 197.9984648261548 -67.99938619586942 M197.15106835989803 -68.97783172313362 C198.24629901744711 -70.8055786946272, 197.99985698522732 -72.7228888429448, 197.90000281444617 -75.79375541480981 M197.43595677156614 -68.57612711112607 C197.21885938802902 -70.84596320778698, 197.20960069466346 -72.97308257697645, 197.5418112875865 -75.39728093562738 M197.59 -75.5 C197.59 -75.5, 197.59 -75.5, 197.59 -75.5 M197.59 -75.5 C197.59 -75.5, 197.59 -75.5, 197.59 -75.5" stroke="black" stroke-width="1" fill="none"/></g>
</g>
<!-- API___get_task_api -->
<g id="node3" class="node">
<title>API___get_task_api</title>
<g><path d="M98.87652552529458 -145.30488659645198 L20.886488405280012 -144.9427952550687 L19.539146806622725 -107.10301782790522 L101.09284654389401 -108.67320800327884 L100.55122128692211 -145.3967060514399" stroke="none" stroke-width="0" fill="none" fill-rule="evenodd"/><path d="M99.69189272745882 -142.34483243829445 C78.81273000953509 -146.36684588289373, 59.588604042595534 -145.13065159194838, 21.149237323355166 -144.69570804379794 M101.65691211939638 -144.48932994518688 C83.31187929624214 -143.226392981707, 64.28871917503119 -143.12412457884588, 20.385615579103288 -144.92826422378639 M22.92483661031511 -145.39191158725276 C20.171540230205686 -133.0725142446844, 19.55291210059356 -124.21959748113028, 19.959651823566183 -106.4215064066209 M21.77099565983999 -143.9830731638798 C20.400813763642173 -132.04191735477372, 21.900302029629366 -120.18856550711999, 22.052321808762798 -107.57481405520147 M21.465257042537992 -106.86229683417605 C49.314868916531246 -106.27973457839973, 78.08255808336253 -108.67934946012912, 101.11337717193835 -108.55738498458362 M21.47317106851289 -108.92129664961645 C52.28606687491122 -108.52900734868827, 84.38581347757487 -107.1417434483421, 100.16260171422952 -107.2948727280088 M101.81902195474005 -107.70245273264126 C100.7397841906285 -114.7424285324344, 101.02535822586533 -123.89523399438471, 100.76338124613758 -145.2401747382642 M99.99539307681677 -108.46937632677654 C101.45900927326886 -118.89447915181599, 100.89752317590576 -129.0298830713824, 101.1730225570513 -143.57666639540048 M100.83 -144 C100.83 -144, 100.83 -144, 100.83 -144 M100.83 -144 C100.83 -144, 100.83 -144, 100.83 -144" stroke="black" stroke-width="1" fill="none"/></g>
<text text-anchor="middle" x="61.07" y="-121.8" font-family="Times,serif" font-size="14.00">get task api</text>
</g>
<!-- Function___get_task -->
<g id="node7" class="node">
<title>Function___get_task</title>
<g><path d="M277.8962575559947 -143.4866924384049 L217.04479042656945 -143.18681231803635 L217.09227086775894 -107.23197973049223 L277.5499880317913 -106.18591940379497 L276.9215853782768 -145.40616771766375" stroke="none" stroke-width="0" fill="none" fill-rule="evenodd"/><path d="M276.64331108924677 -144.49753665294736 C259.874583453195 -145.91800810927265, 246.76466170900335 -144.7270446863467, 216.56418521732485 -145.60488346985153 M278.4414389651293 -143.80082823391413 C256.06052577388556 -143.06190413739307, 235.54732094316512 -143.4215222556923, 218.86339158313078 -143.71316987526123 M216.26785882365553 -144.1511601167867 C218.6372262482593 -130.04275938954368, 220.1036055730355 -117.13863209697871, 216.39031418919816 -109.29030797238751 M218.32424545315686 -144.93043616296458 C217.42942576704502 -133.29581328646285, 218.90397640316402 -123.982521546665, 218.00528208651178 -107.09384842078771 M218.59349783133672 -106.8583412230711 C237.97135138475284 -107.29279270962391, 256.80841976878645 -109.16161818970238, 277.0755150767185 -109.54460085828643 M218.45365283526365 -107.66526898123587 C231.83297209359637 -108.23338501471676, 244.09607059214517 -108.33365753756102, 277.4377797834999 -107.77485691653706 M276.94184672958846 -109.51437964881998 C278.70993803687566 -117.52040764070705, 276.402497999906 -126.54898004348112, 278.3536003362477 -144.22064205058683 M277.5658728047704 -108.9835436006136 C278.2850382378567 -118.66065222533136, 276.8287145428285 -130.51145304644254, 277.9895445109491 -143.62284745559307 M277.47 -144 C277.47 -144, 277.47 -144, 277.47 -144 M277.47 -144 C277.47 -144, 277.47 -144, 277.47 -144" stroke="black" stroke-width="1" fill="none"/></g>
<text text-anchor="middle" x="247.81" y="-121.8" font-family="Times,serif" font-size="14.00">get task</text>
</g>
<!-- API___get_task_api&#45;&gt;Function___get_task -->
<g id="edge3" class="edge">
<title>API___get_task_api-&gt;Function___get_task</title>
<g><path d="M101.4222338998494 -127.9912954787984 M101.13 -126 C101.90118983323904 -124.9556566211812, 207.7654955425009 -127.52075112131067, 207.25052703251177 -125.03564930557737 M101.64373379797112 -127.06201815178261 C99.88095943059699 -124.21651605797857, 210.15883086608252 -126.62747264624585, 208.71459852368025 -127.35733837380877" stroke="black" stroke-width="1" fill="none"/></g>
<g><path d="M209.26298356814164 -131.45524766712177 L218.47449481668153 -126.7069627040343 L208.12664230390914 -120.5151239190067 L207.03464418988057 -128.3336849183572" stroke="none" stroke-width="0" fill="black" fill-rule="evenodd"/><path d="M208.2380965941752 -129.57026391344723 C209.88968661969218 -128.78019155749269, 211.75536830156955 -127.6646404849948, 219.04967249969985 -124.97689851161934 M208.164122062941 -129.81691245359153 C210.84407459863516 -128.75178923950463, 212.1380642782623 -128.08675627239933, 217.75354315200568 -126.22804278925773 M218.46890505698914 -126.5098372231836 C215.14707209509575 -124.48114995270944, 211.2502777332689 -122.5613268786413, 208.7667183219991 -121.94583232635343 M218.50962125982147 -125.89151577360467 C216.16404956116398 -125.0324093511055, 213.99856122549014 -124.28051364597017, 207.93298050355253 -122.15302928946481 M207.66820495293632 -122.28591557134651 C207.9481240779209 -124.7306182866185, 208.53646279808896 -126.0195216182723, 207.57696092033115 -129.6138594711133 M207.91665306505772 -122.18468249337592 C208.41012381313678 -125.00392627253817, 208.35478533359597 -127.13735412623802, 207.87306789161443 -129.45092597820357 M208.22 -129.5 C208.22 -129.5, 208.22 -129.5, 208.22 -129.5 M208.22 -129.5 C208.22 -129.5, 208.22 -129.5, 208.22 -129.5" stroke="black" stroke-width="1" fill="none"/></g>
</g>
<!-- API___get_task_history_api -->
<g id="node4" class="node">
<title>API___get_task_history_api</title>
<g><path d="M123.56503450063069 -197.84369807819348 L1.5048337374529634 -199.87511186076998 L-0.8900999932072533 -160.2900487760589 L122.00292886347842 -161.90567679425666 L123.5010278645394 -196.2298862212585" stroke="none" stroke-width="0" fill="none" fill-rule="evenodd"/><path d="M122.87207253156299 -197.22668535375448 C88.4155177249656 -196.9160606589471, 56.90529708436557 -200.03570706320178, -1.7203550556682072 -198.9555523578944 M121.84424612459676 -198.47913736085454 C73.78416470910024 -198.7010934925401, 25.237691417645966 -197.4940871569412, -0.07967936133736692 -198.45474534713182 M-0.02181152830615013 -196.47263526003488 C-0.4124060026370878 -188.61248323915325, 1.4560830611816593 -178.39128704988448, 1.6445729131781264 -161.13886579643435 M0.8785136840323478 -197.71495874348494 C-0.44706047221113093 -190.75621443516675, 0.8274172615267699 -181.5009999638748, -0.93484714059032 -161.24234889120112 M0.8357243525016431 -162.15573930140724 C39.865392556024204 -161.59726071284408, 81.25426148678254 -164.3694429792859, 120.57332896204818 -163.67573305020747 M0.5749977616672124 -161.37923915122093 C33.161702960777056 -162.1418327138956, 65.19323612936223 -162.6107668134467, 122.67293254673189 -161.5081929260785 M121.23226940164821 -160.86770584815315 C122.29180521299446 -172.37194726081134, 121.76419342517588 -180.40748516957254, 122.85057163380809 -197.87077549162882 M121.57871701117104 -162.06268014836908 C122.47546936919517 -172.43972010747996, 121.8827453741584 -183.32779073137527, 122.18865858294937 -197.04715243459017 M122.22 -198 C122.22 -198, 122.22 -198, 122.22 -198 M122.22 -198 C122.22 -198, 122.22 -198, 122.22 -198" stroke="black" stroke-width="1" fill="none"/></g>
<text text-anchor="middle" x="61.07" y="-175.8" font-family="Times,serif" font-size="14.00">get task history api</text>
</g>
<!-- Function___get_task_history -->
<g id="node11" class="node">
<title>Function___get_task_history</title>
<g><path d="M336.65729499247504 -198.6777564514927 L156.2713531102191 -196.79055663878813 L158.56584261100238 -161.67119265215277 L335.7053525404565 -162.98067578654982 L337.6854453378522 -197.51992255928056" stroke="none" stroke-width="0" fill="none" fill-rule="evenodd"/><path d="M337.5246362453868 -199.23603738858364 C278.92386152910143 -194.4265674506559, 217.22666134400663 -198.15277017250003, 159.13410011032434 -197.9400385442401 M336.98605379624473 -198.16447408569695 C277.6298241944274 -196.76129434712024, 218.84480504695756 -197.0446372539592, 158.5911322311497 -198.37083706192263 M158.21095535767063 -198.41706899790987 C158.57855171549625 -184.37360407674018, 156.4135116418708 -173.03786905653968, 158.79568776291876 -163.16243190116845 M158.92863210890945 -197.00617116490113 C158.24522728553495 -188.18397775422056, 158.8580666847116 -176.48346131389735, 158.624058143915 -161.7547338412751 M158.28374735776367 -161.6395373355008 C216.85742995610258 -161.59939094576745, 279.4115002844122 -160.068831849423, 336.2870172210985 -163.6953647109411 M157.86684767989286 -161.27913404998486 C210.11482434980928 -160.685027521091, 260.64392521293877 -162.12149954341754, 337.0006110497256 -162.83367704246825 M336.27676086181265 -161.48721703307783 C338.79078521681396 -175.9051322552061, 339.45869443660706 -184.37231590422456, 337.165482835703 -199.43785398928233 M337.0886762466498 -162.5881480259859 C337.8920950486667 -177.15201551456838, 338.00486243617945 -191.16264983225824, 338.47433868346076 -197.80985896622443 M337.64 -198 C337.64 -198, 337.64 -198, 337.64 -198 M337.64 -198 C337.64 -198, 337.64 -198, 337.64 -198" stroke="black" stroke-width="1" fill="none"/></g>
<text text-anchor="middle" x="247.81" y="-175.8" font-family="Times,serif" font-size="14.00">Function___get_task_history</text>
</g>
<!-- API___get_task_history_api&#45;&gt;Function___get_task_history -->
<g id="edge4" class="edge">
<title>API___get_task_history_api-&gt;Function___get_task_history</title>
<g><path d="M121.89432378134316 -178.5222486648524 M122.22 -180 C121.36889778232428 -179.163138806941, 149.62475313208182 -180.46659841119646, 149.61618447467964 -178.43898731630097 M120.79531911911961 -181.05159021492105 C123.4708957993635 -178.32664490362424, 147.22746993748527 -178.7393374971004, 148.8767763707926 -178.70368018211698" stroke="black" stroke-width="1" fill="none"/></g>
<g><path d="M147.8357391233413 -185.13197989037624 L159.21140568087247 -180.6203782415359 L148.54209767030088 -178.1166802098699 L148.8876234882107 -184.30726008223536" stroke="none" stroke-width="0" fill="black" fill-rule="evenodd"/><path d="M147.5773786649213 -184.1450928890873 C150.53049531827298 -182.31172761708092, 153.55285736985874 -180.8330249543899, 157.1236977268732 -179.4034192616665 M147.69304204788057 -183.06035825071032 C151.66261583017163 -182.81724791145336, 154.06325289875684 -181.6641368005232, 157.6337973687394 -179.61157252374815 M157.10152697074886 -179.89998764408855 C153.63321835640184 -178.614497200226, 149.58082809282948 -176.94352730178065, 148.58977173498693 -176.8098301782751 M157.76406662251475 -180.38132420139658 C154.8415535487161 -179.3765241358539, 151.48702146480366 -177.3832816601937, 147.57517694971745 -176.33556307816374 M147.82109172555172 -175.8845585145663 C148.36834189266582 -177.64261191487753, 147.8444794332945 -179.56701608999262, 147.73453645353405 -183.70389554696186 M148.26552966867683 -176.46483100851123 C147.95960436994008 -178.863695664272, 147.8366711536489 -181.0392389031545, 148.38215333237972 -183.45831187677717 M148.08 -183.5 C148.08 -183.5, 148.08 -183.5, 148.08 -183.5 M148.08 -183.5 C148.08 -183.5, 148.08 -183.5, 148.08 -183.5" stroke="black" stroke-width="1" fill="none"/></g>
</g>
<!-- Function___run_task -->
<g id="node6" class="node">
<title>Function___run_task</title>
<g><path d="M89.54865766044897 -253.08237938277736 L32.05554133471848 -250.85385787600595 L29.268637106409663 -214.91402383336606 L90.66382866496862 -217.39406790459398 L89.3936546072657 -251.82429853946493" stroke="none" stroke-width="0" fill="none" fill-rule="evenodd"/><path d="M91.81118391171715 -252.02455079841263 C71.62676051687603 -252.01156212887287, 54.50196538492031 -252.15020241144956, 29.162817051307137 -253.04782606928222 M91.34342843495627 -251.93292690261688 C68.32913680219335 -252.39059576163763, 46.501872151011064 -250.57560588373465, 31.543589920536334 -252.65742275938646 M32.10079768764263 -253.65056339793446 C31.55032802033247 -241.9379480994562, 29.40259362179316 -231.60162759529112, 31.768383155981304 -215.72883746750531 M30.33684200395251 -252.14431370252464 C30.945432564061218 -238.71108183217808, 30.325498143280694 -226.59027232982908, 30.361346676236018 -216.445030369786 M32.75112651463542 -215.1091528241218 C52.1247603560079 -216.2306770926076, 72.18217733888744 -217.2538349802437, 90.53803491131893 -215.35791833515802 M30.568599693868144 -215.8061662783813 C47.007263230722266 -216.4449949004177, 62.95948416400721 -216.53645845119098, 90.53587570473307 -215.21410586892733 M90.56259813140517 -215.87724177348207 C90.37159980884995 -228.11457301518473, 91.64862378643998 -240.01834649915133, 93.03669780848477 -252.78027434467663 M92.19338663842086 -215.23254805755215 C91.67552440409148 -228.19702882567233, 92.56720875464708 -240.13558993997808, 91.0991558160741 -251.45497387638179 M91.29 -252 C91.29 -252, 91.29 -252, 91.29 -252 M91.29 -252 C91.29 -252, 91.29 -252, 91.29 -252" stroke="black" stroke-width="1" fill="none"/></g>
<text text-anchor="middle" x="61.07" y="-229.8" font-family="Times,serif" font-size="14.00">run task</text>
</g>
<!-- Queue___task_queue -->
<g id="node9" class="node">
<title>Queue___task_queue</title>
<g><path d="M100.95368519320951 -306.037736144199 L22.437731506269202 -307.77671950008744 L22.50904402310831 -270.2698277344413 L98.99045297246258 -271.802143526045 L100.7891119574573 -304.1670236153339" stroke="none" stroke-width="0" fill="none" fill-rule="evenodd"/><path d="M98.90284421292483 -304.17040264740166 C70.50742198208722 -307.49568010399, 43.81679517596501 -304.7056885079633, 21.84344237551283 -305.1219027577619 M98.52105791945324 -306.68064904925086 C74.98156239832088 -305.6482810422699, 49.31217291159699 -305.8850471627414, 23.707962315772008 -306.7055166156182 M24.831558201678508 -305.76217839509627 C24.07354867272521 -295.8565583638356, 25.034506753787518 -286.0238587584277, 21.55842541288763 -271.14469739129606 M22.75688921291576 -306.861720905203 C23.452405781616058 -297.0837141353094, 24.02938565877998 -288.48048455616726, 23.630696983917048 -269.88933658655526 M24.951225683938855 -270.277675788262 C52.51608123384592 -268.2304374459048, 77.54423401501742 -270.60587062123835, 99.19193543754574 -271.6194569244024 M22.923891076927852 -270.46351120715946 C44.38182263390183 -269.1991668524888, 64.61554579332338 -270.1892441579572, 98.49022240624451 -270.03554308631914 M98.20806017561674 -270.38644301437785 C97.88202072175702 -284.82963866590825, 97.07014106387305 -298.43528488219863, 100.42221404745165 -307.5861573370889 M98.41151004656952 -270.4766934775439 C98.46610696109025 -281.64511969733763, 98.31275115829939 -292.5526944748736, 98.40945454531592 -306.6752439491724 M99.06 -306 C99.06 -306, 99.06 -306, 99.06 -306 M99.06 -306 C99.06 -306, 99.06 -306, 99.06 -306" stroke="black" stroke-width="1" fill="none"/></g>
<text text-anchor="middle" x="61.07" y="-283.8" font-family="Times,serif" font-size="14.00">task queue</text>
</g>
<!-- Dummy_autoscaler___ -->
<g id="node10" class="node">
<title>Dummy_autoscaler___</title>
<g><path d="M88.8281808476841 -358.5805501431012 L36.021604170211255 -358.95334439582695 L32.3621977874954 -323.26358008490337 L87.42327239903936 -325.35833224528386 L87.60462510877868 -360.7095722673684" stroke="none" stroke-width="0" fill="none" fill-rule="evenodd"/><path d="M89.30166564898596 -358.72085577942363 C69.30942801126993 -357.860176138075, 47.69656733861086 -361.41265100700093, 34.43537344016817 -358.189574972142 M87.45039140560532 -360.9474995530871 C66.70397501603627 -359.0662571353102, 46.43577041147753 -360.547064656876, 34.490588152299914 -359.67126748344873 M33.83454952184724 -360.13610438905283 C34.909874264907884 -348.2374120640611, 33.82538313706488 -333.6385751283045, 32.086593031800625 -325.8733399166046 M33.54147366059419 -359.5927060577476 C33.7228460617356 -346.02382536260495, 34.7505714616333 -333.2195581511886, 33.468233926693784 -323.1868442561585 M33.0169579984749 -323.28398911119166 C54.920180739444575 -321.88495184233443, 74.89484872752821 -325.1942286177903, 87.43059802114132 -324.0194425419101 M34.94827990024202 -324.23536803828415 C55.658885425863424 -324.21383498585567, 76.16156294495889 -324.51021368221825, 87.72473277100801 -323.4592085645517 M88.88697109805878 -323.1675602005908 C89.59655131281755 -330.00318958966733, 88.71297098561375 -341.06077485905814, 89.23281333365837 -359.29075032600065 M87.59072975340638 -323.2927187691425 C87.71573091304377 -334.2301874923783, 88.816313146686 -346.2000797794259, 87.3169364756718 -359.3912540347975 M88.07 -360 C88.07 -360, 88.07 -360, 88.07 -360 M88.07 -360 C88.07 -360, 88.07 -360, 88.07 -360" stroke="black" stroke-width="1" fill="none"/></g>
</g>
</g>
</svg>
