<!DOCTYPE svg PUBLIC "-//W3C//DTD SVG 1.1//EN" "http://www.w3.org/Graphics/SVG/1.1/DTD/svg11.dtd"><!-- Generated by graphviz version 5.0.0 (20220707.2145)
 --><!-- Title: G Pages: 1 --><svg width="960pt" height="539pt" viewBox="0.00 0.00 959.64 539.00" xmlns="http://www.w3.org/2000/svg" xmlns:xlink="http://www.w3.org/1999/xlink">
<g id="graph0" class="graph" transform="scale(1 1) rotate(0) translate(4 535)">
<title>G</title>
<g><path d="M-4.354954510812439 5.283814136778519 L-3.8609484666664073 -536.0311420470401 L954.624967011828 -535.6163132907376 L954.7135445678231 5.724291776076913 L-5.181729021126335 3.27636983190407" stroke="none" stroke-width="0" fill="white" fill-rule="evenodd"/><path d="M-4.502662188182107 4.779666940130049 C-5.073111889938356 -157.03463633249038, -5.6115472614104 -319.1351393052809, -3.3384559601669905 -535.6078515584358 M-3.6066853924728997 4.064538625716004 C-3.9180960144761925 -175.72103762542187, -3.8705870617707285 -354.9377752032478, -4.175868937244939 -535.2035347624908 M-4.4504450315087585 -535.6135981030518 C327.84849506919716 -539.0453299584594, 660.7652679627914 -538.5284255839681, 955.7233292504303 -535.643815658371 M-4.3065603288186765 -535.029017223336 C350.4366932494749 -532.7440856064136, 704.3965699079132 -532.4925406678713, 955.8317086712148 -535.3362403627514 M955.5792854026255 -534.2442215927178 C954.7002299009597 -367.0205280866627, 954.5619729440543 -200.33280428877904, 955.8281263520662 4.596469289803906 M955.7304947871155 -535.3069279866202 C954.4404298946118 -323.29939969905405, 954.7073299251191 -112.62556696115196, 955.4142100344154 4.193719543397026 M954.9623943745532 3.917406025266484 C663.4911258738135 5.817241212079308, 370.5006246009769 5.70301341638772, -3.930235399709044 4.546334336796133 M955.9796312684264 3.6689657047046063 C733.2931233591444 1.6474915952243152, 511.36262568424377 1.4565270948807703, -4.015715346773948 4.191676839477273 M-4 4 C-4 4, -4 4, -4 4 M-4 4 C-4 4, -4 4, -4 4" stroke="transparent" stroke-width="1" fill="none"/></g>
<g id="clust1" class="cluster">
<title>cluster_0</title>
<g><path d="M43.19435520361141 -6.122832066288464 L41.61020714239852 -86.788382231396 L944.8925775588931 -86.14051059889108 L944.029057874314 -8.005690186712872 L43.82719710314574 -6.454332592143049" stroke="none" stroke-width="0" fill="none" fill-rule="evenodd"/><path d="M40.40277615641338 -7.874774194112717 C43.55145884053805 -32.792266371248374, 40.56514305106956 -60.12711968871343, 42.5491598468456 -83.21801119303774 M42.809067780595115 -8.960342325034746 C43.00942384378608 -33.00762744567794, 43.206318878695754 -58.915148957612004, 42.27604492666822 -84.31732740275704 M41.62502700838009 -84.97420422555177 C298.0331488526915 -87.3642717173501, 551.7563074793666 -87.00358143893781, 944.4293222114 -85.19315550920327 M42.37358186429317 -85.08932726919997 C307.67773712659454 -84.33609005674094, 573.4717386125432 -84.95098680212965, 943.2998557688429 -84.81696295306674 M942.6941941794887 -83.83416887665125 C942.2551371189022 -58.13024617599926, 945.9246893775644 -32.60696426080216, 941.6685890814092 -8.361203574457907 M943.233758296232 -84.52742894897615 C944.7451748107209 -66.87604499816258, 944.3221415849491 -46.94528790540735, 944.2424329918587 -8.908289260367841 M943.5826438249026 -7.404417221677003 C737.3826497261657 -6.337777757763822, 533.0140189613942 -6.59631053073237, 41.668410034209 -7.435860054237695 M943.4846069876351 -7.746753439199147 C722.9654936900228 -9.80783965400765, 503.09926000359275 -10.379689281128364, 42.37942633964391 -8.030173034569767 M42.27 -8 C42.27 -8, 42.27 -8, 42.27 -8 M42.27 -8 C42.27 -8, 42.27 -8, 42.27 -8" stroke="lightgrey" stroke-width="1" fill="none"/></g>
<text text-anchor="middle" x="492.95" y="-68.4" font-family="Times,serif" font-size="14.00">legend</text>
</g>
<g id="clust2" class="cluster">
<title>cluster_arch</title>
<g><path d="M7.1681414902268275 -94.76980697919774 L9.274142544614735 -523.6234609947301 L314.8961055905459 -524.5802423607078 L314.1772454688993 -91.30222257209758 L8.458933270691617 -92.3352966988674" stroke="none" stroke-width="0" fill="none" fill-rule="evenodd"/><path d="M7.896715339585158 -92.40075214732444 C6.049771455011621 -210.0852493934837, 6.381980602114017 -329.791453317865, 8.531150551030938 -523.6621573670584 M7.901266822818717 -93.1142023866531 C7.975573636472236 -260.39351951738973, 7.951820447673378 -428.98188351759177, 7.8719602601137275 -523.1439561090407 M9.041560538841338 -521.7353357692039 C95.29470221367141 -523.5967337925898, 180.823621667706 -523.6260389447484, 313.47594578442585 -523.5310184567994 M7.986162589182248 -522.6547401304875 C106.9625717298421 -523.8729863788867, 207.20175727482456 -524.0382476218417, 313.0680735716336 -523.704182071394 M314.3239049838421 -523.7358944465275 C314.86988286776074 -408.64820237929916, 315.3066918290648 -293.01808061786045, 312.87668019532873 -93.60112078303385 M313.1776361693888 -523.5047423144717 C313.83135029916014 -381.40103915966415, 314.5091814517612 -239.88104563603954, 313.64911362464545 -92.7153884881793 M313.12672414399873 -92.53752114273009 C202.8786265053433 -92.99552504300208, 91.00903411636314 -91.82535600540213, 7.411998465891554 -93.65756573965277 M313.2541373290083 -92.9803857326126 C215.06920407152396 -93.92131259290221, 116.26730379352037 -93.16864934297791, 8.057204615122078 -92.71703804116403 M8 -93 C8 -93, 8 -93, 8 -93 M8 -93 C8 -93, 8 -93, 8 -93" stroke="black" stroke-width="1" fill="none"/></g>
</g>
<!-- FOO -->
<g id="node1" class="node">
<title>FOO</title>
<g><path d="M103.19192516261708 -52.38627192399065 L51.89921700628594 -52.3573184495057 L48.28187730142917 -17.12539369221075 L105.48433161673911 -16.352475368887966 L103.65052319849337 -52.871175540452704" stroke="none" stroke-width="0" fill="white" fill-rule="evenodd"/><path d="M103.4799733094363 -53.25746934148028 C90.56341858663536 -50.26881633955348, 71.84100191979753 -53.08589454421161, 51.0296004116656 -50.9805568038239 M105.1163441868551 -52.35412927928468 C93.08466083878913 -52.47290490124244, 82.15601623882473 -51.397495360039706, 49.94521419900046 -51.07611414949652 M49.64658956942724 -51.35462168455902 C51.53335337655598 -42.86032994792915, 51.784458850202064 -36.35659765722728, 50.53046813246521 -14.681196929182729 M50.34641155807061 -52.15545373095562 C51.36439925530967 -40.7356918415682, 51.03477399561663 -28.89191989508856, 49.46513219324936 -16.63518353472871 M51.485669546755545 -17.103200567676957 C70.89366414418078 -14.739141989696563, 90.67818290008925 -14.257950585391521, 103.07502652550892 -14.99581381276792 M51.2083611948718 -15.243656451439287 C71.47996605646149 -17.37548176486599, 90.92570914776734 -17.31110793815863, 104.76551411409126 -15.9078611746599 M104.74534028208456 -17.044498907240886 C105.25203513182342 -25.824018582784888, 104.12461322335844 -30.52100363718317, 105.22473853085114 -50.234711809720686 M105.25114373338553 -15.245777189791035 C103.15204853222492 -29.486011656218857, 103.84866059487464 -43.253882098539776, 105.25353083480071 -52.53119658790612 M104.27 -52 C104.27 -52, 104.27 -52, 104.27 -52 M104.27 -52 C104.27 -52, 104.27 -52, 104.27 -52" stroke="white" stroke-width="1" fill="none"/></g>
<text text-anchor="middle" x="77.27" y="-29.8" font-family="Times,serif" font-size="14.00">FOO</text>
</g>
<!-- FOO1 -->
<g id="node2" class="node">
<title>FOO1</title>
<g><path d="M266.44594990235254 -50.16465341089808 L214.29769807506483 -53.57800334088554 L212.02049475136104 -16.632714526631013 L266.0022854889026 -14.029173098960836 L268.6931103783306 -51.0342447059977" stroke="none" stroke-width="0" fill="white" fill-rule="evenodd"/><path d="M268.72216073347334 -51.51593968643389 C250.66743809149614 -53.70900241382537, 230.5019796590203 -53.675981057839124, 212.53886268688402 -52.36693614254717 M267.5604883601868 -52.17054998647402 C249.1217327649492 -52.60806960771452, 232.15324824872962 -51.48694335053213, 213.33476870768408 -51.780467068347875 M214.1771518600445 -53.265118173713034 C213.23186028909728 -43.36087955990228, 212.26632897379173 -32.402654518914076, 211.6289823194484 -14.004181152738688 M212.60215312502407 -52.81968323433565 C213.9208910753958 -38.761147969316475, 213.85275013038432 -26.181188349187813, 213.40203170320402 -16.91918419642407 M213.44744419705412 -16.47002204478716 C231.37755686881465 -15.081104187963348, 252.33617855604894 -17.856358371688014, 265.90167045781374 -17.145772412583728 M213.0452959358276 -15.77159812707525 C228.11135563762573 -16.18942970572604, 241.28343308953004 -16.01306782877507, 267.1213969175146 -16.61921845430775 M268.27451843027615 -15.537746529690532 C267.0864606992413 -30.74743097121293, 267.18789469914003 -43.51552472159236, 267.191956643025 -52.36830259462003 M266.3845622809441 -16.03281827004748 C267.0417003754777 -27.93758666037988, 266.533226343957 -39.12928847142112, 266.67207898706454 -51.72693546862983 M267.09 -52 C267.09 -52, 267.09 -52, 267.09 -52 M267.09 -52 C267.09 -52, 267.09 -52, 267.09 -52" stroke="white" stroke-width="1" fill="none"/></g>
<text text-anchor="middle" x="240.09" y="-29.8" font-family="Times,serif" font-size="14.00">FOO1</text>
</g>
<!-- FOO&#45;&gt;FOO1 -->
<!-- FOO2 -->
<g id="node3" class="node">
<title>FOO2</title>
<g><path d="M397.2843210308583 -53.45857381127892 L340.1017399388768 -53.89164961545094 L342.0245446184168 -16.726942153568416 L394.3272572341947 -14.807257788604247 L395.1034479172579 -50.78402835841597" stroke="none" stroke-width="0" fill="white" fill-rule="evenodd"/><path d="M395.3206185667884 -50.83077201765394 C381.83786669210684 -51.532287257598256, 365.04493917371707 -53.92865340726961, 341.4466398645502 -53.85973336780624 M395.11971845994196 -52.226434154897596 C383.17217623932345 -52.96780171814764, 373.1132010455016 -52.690928466262555, 342.2825250237689 -51.69215439142161 M340.2598056475165 -50.125248061849256 C343.59313391773435 -39.82866154401518, 343.1590924105809 -24.194434073760366, 341.54379656429137 -14.665425121902338 M341.5901232377762 -52.1351113317782 C341.67707814578097 -38.5146608685049, 341.71707020936503 -24.22447807475034, 341.141694128328 -15.993993199617414 M341.69950783927163 -16.25406459391657 C356.5223674465574 -16.9135122578817, 369.4856725555965 -14.127479127907758, 397.0671388991546 -15.597032265495965 M342.30495850634964 -16.116516843769148 C357.2616795453114 -15.315814740737665, 374.22187200698716 -15.527384435073555, 395.54730052431455 -16.700721515047512 M396.65573131366193 -14.52050050208592 C394.2683736716878 -26.270327207436946, 393.9426875407275 -37.81791150251865, 394.7330411870047 -52.52243909356411 M396.49365304526157 -15.257449639862495 C394.83285313402683 -25.1819858268573, 394.84334373734924 -36.70909579492643, 395.439425640528 -52.929290734459954 M395.64 -52 C395.64 -52, 395.64 -52, 395.64 -52 M395.64 -52 C395.64 -52, 395.64 -52, 395.64 -52" stroke="white" stroke-width="1" fill="none"/></g>
<text text-anchor="middle" x="368.64" y="-29.8" font-family="Times,serif" font-size="14.00">FOO2</text>
</g>
<!-- FOO1&#45;&gt;FOO2 -->
<!-- FOO3 -->
<g id="node4" class="node">
<title>FOO3</title>
<g><path d="M483.8241169244244 -51.49950679346249 L431.15978387407824 -53.18689729781521 L430.38617790160635 -16.75658496401825 L484.5183909536633 -14.787825237552719 L486.65386223221697 -52.22094131136494" stroke="none" stroke-width="0" fill="white" fill-rule="evenodd"/><path d="M484.2379027023797 -52.339164369428254 C466.04090180622376 -52.57689645131272, 449.2738524489448 -50.23397038828316, 429.7215826767935 -50.36931371379665 M484.81426546371983 -52.656005915494035 C466.87951966189706 -51.79334106296262, 446.73199930278173 -50.88961409492826, 432.61409761604006 -52.246383591911815 M432.4513062029761 -53.846778245007854 C430.5698711734181 -41.9386670228385, 429.7810186561165 -28.38987635925582, 433.4224198948927 -15.007721980661726 M431.4569762933799 -52.267707061094946 C432.55275480972585 -44.51773337123881, 430.7367864377402 -36.640928030109194, 431.59333832664373 -16.16704973501703 M432.8936640414245 -16.63602850866183 C448.7522682777644 -15.728947870622921, 465.4466156916144 -14.634206498407274, 485.31539198291944 -17.80367380386519 M432.23493210142 -16.445875680707786 C442.78056547487864 -15.337345070212677, 456.06280021779446 -16.744718843876825, 485.82253285903477 -15.595085102850136 M483.6857727557538 -17.945968961196343 C486.47753188700955 -25.093805071920748, 487.18776010186536 -35.015504075133904, 485.497017828488 -51.52817205478769 M485.21499699138985 -16.935657777601342 C484.80200048633327 -29.110497005625998, 484.71782161236064 -43.54003268792591, 485.0673525084283 -52.67299811635925 M485.64 -52 C485.64 -52, 485.64 -52, 485.64 -52 M485.64 -52 C485.64 -52, 485.64 -52, 485.64 -52" stroke="white" stroke-width="1" fill="none"/></g>
<text text-anchor="middle" x="458.64" y="-29.8" font-family="Times,serif" font-size="14.00">FOO3</text>
</g>
<!-- FOO2&#45;&gt;FOO3 -->
<!-- FOO4 -->
<g id="node5" class="node">
<title>FOO4</title>
<g><path d="M577.4127304525069 -53.033140489875464 L520.7460704983972 -53.615823336954605 L521.8907857351116 -17.131749750961397 L575.6120978022905 -17.419519222333836 L577.188413619467 -51.2257769262428" stroke="none" stroke-width="0" fill="white" fill-rule="evenodd"/><path d="M576.8292893985492 -52.96276187435683 C564.1160555860569 -52.972449867991756, 550.0191352573879 -51.74086574610064, 523.0443202507931 -50.0550429061112 M576.1936059569301 -51.19626492706087 C559.2628323379581 -53.359904135196544, 543.5512919604882 -53.21835711571502, 522.3603354523966 -51.392311323986135 M520.4547710817042 -50.54951511113377 C521.243201664844 -41.22819557231184, 523.1495761270562 -28.069098954329732, 522.5650122375829 -15.201599077732926 M522.6367113094675 -52.05824231174443 C522.008257550924 -36.82172710171427, 521.9835078606833 -23.721914301265908, 520.7307304112103 -16.6331039698062 M520.6493042953741 -14.173113810504852 C539.4798582013713 -17.21711915345336, 558.7330929934081 -13.775763145441005, 576.0619138789197 -17.339018698896883 M522.1871772311298 -15.475846228381574 C538.1200079929382 -15.808272397995362, 555.5418223096419 -16.560505649216793, 576.4356114761196 -15.006838795597828 M575.7763191868231 -16.147297766116633 C576.4782702019769 -25.092659280828123, 575.2815960272733 -30.578247777077486, 574.1511916282299 -52.424373298365595 M575.5865238957527 -15.895460480322887 C574.363206041765 -25.85857920296819, 575.9525986181445 -36.51327767017945, 574.7122481691422 -51.74948197809889 M575.64 -52 C575.64 -52, 575.64 -52, 575.64 -52 M575.64 -52 C575.64 -52, 575.64 -52, 575.64 -52" stroke="white" stroke-width="1" fill="none"/></g>
<text text-anchor="middle" x="548.64" y="-29.8" font-family="Times,serif" font-size="14.00">FOO4</text>
</g>
<!-- FOO3&#45;&gt;FOO4 -->
<!-- FOO5 -->
<g id="node6" class="node">
<title>FOO5</title>
<g><path d="M664.965383196442 -50.19091529223087 L609.9860877858815 -50.95221464544832 L610.9806326787381 -16.40006211278393 L666.2659305992183 -17.565342981868003 L664.4968585012747 -51.919269248515505" stroke="none" stroke-width="0" fill="white" fill-rule="evenodd"/><path d="M665.2709858133107 -50.0360293307533 C653.4126607111888 -51.58718976827551, 645.1081286371361 -50.3197392596067, 609.8770697239519 -53.21463734725454 M666.1797460585852 -51.6440944505572 C653.3755448409154 -51.86958997446093, 643.6412507056236 -51.46615251241358, 612.1878989545796 -52.06557262848249 M611.8302874841348 -53.30022451803641 C611.8145064104417 -43.77948651316931, 611.3060894465651 -35.40922337973806, 613.1312037458889 -17.710221009997884 M610.6999656540414 -51.55577163156417 C610.889254426194 -40.57115888536139, 611.5349587314591 -27.80555020634682, 611.8848249375793 -15.077566319291407 M612.8875022024431 -15.628648388344601 C631.4415825376572 -16.27193916001996, 655.1474153420885 -14.6842434184455, 665.7195988134589 -16.14316931414137 M611.4894614852286 -16.18736298868879 C627.9608427345859 -15.442371143058594, 645.370821483688 -16.14947114902429, 665.9637421116869 -16.182866271523203 M666.6439256872375 -17.069531863081902 C663.9408580804894 -25.396206197762048, 665.114951578905 -31.75509629977133, 666.5826819964012 -50.835977155780846 M666.279243842663 -15.63319447053959 C665.0674215978933 -23.724382556426892, 665.3583143452606 -32.15247748131677, 664.90407055517 -51.03937968860354 M665.64 -52 C665.64 -52, 665.64 -52, 665.64 -52 M665.64 -52 C665.64 -52, 665.64 -52, 665.64 -52" stroke="white" stroke-width="1" fill="none"/></g>
<text text-anchor="middle" x="638.64" y="-29.8" font-family="Times,serif" font-size="14.00">FOO5</text>
</g>
<!-- FOO4&#45;&gt;FOO5 -->
<!-- FOO6 -->
<g id="node7" class="node">
<title>FOO6</title>
<g><path d="M756.0871466352123 -51.16517009623778 L702.4377297808812 -51.85896369927362 L703.0002952603811 -14.456250792796467 L757.270797798958 -15.611345495464588 L757.4178170132566 -52.78839629036768" stroke="none" stroke-width="0" fill="white" fill-rule="evenodd"/><path d="M755.6448734096656 -50.87168096062733 C741.2990919541708 -53.480227403404676, 726.9905970214447 -53.58581081930616, 700.944478795207 -51.09606746152165 M755.8886696049859 -52.36713914993314 C742.1824485760858 -53.40177220189289, 729.4420645590236 -51.979720160862534, 701.0343106191508 -51.88804662924019 M702.6672497486204 -52.39558456267061 C703.4095492008266 -40.81036021075678, 700.1630639465517 -32.451259103524166, 701.2588956722441 -17.047229558861183 M701.0614591323562 -51.761264939203365 C700.6749462822654 -40.1229099769781, 700.5861424523625 -27.367562690196554, 702.0763162526608 -16.718915901532448 M700.819362970017 -15.130838620295364 C720.4984738340004 -14.202067013938983, 742.1522553794362 -14.862611967629931, 755.0900800469316 -16.96355588427579 M700.7119158424075 -15.038370736342376 C712.3407427193271 -15.154411816250821, 723.9397946876479 -16.04055175699729, 754.8565690439974 -15.500699790913352 M754.2950989540776 -17.996485195109997 C755.8622751436814 -27.72699349497196, 756.1900943535375 -42.04807619617494, 754.7893618258514 -51.00595414628043 M755.1224295283765 -16.343368824733254 C756.0994229127068 -26.715913962086297, 756.0988040341051 -36.453352446283944, 755.1846247684907 -51.18458424531564 M755.64 -52 C755.64 -52, 755.64 -52, 755.64 -52 M755.64 -52 C755.64 -52, 755.64 -52, 755.64 -52" stroke="white" stroke-width="1" fill="none"/></g>
<text text-anchor="middle" x="728.64" y="-29.8" font-family="Times,serif" font-size="14.00">FOO6</text>
</g>
<!-- FOO5&#45;&gt;FOO6 -->
<!-- FOO7 -->
<g id="node8" class="node">
<title>FOO7</title>
<g><path d="M844.3377120849992 -50.203515805374295 L790.473364447662 -51.986661777899705 L791.1945920560938 -16.036747161288254 L845.9985875186297 -16.287176357986805 L845.4119118782153 -53.725772832599645" stroke="none" stroke-width="0" fill="white" fill-rule="evenodd"/><path d="M845.0460134642174 -52.50952862831671 C825.473887495432 -54.11068108338908, 803.3226327054986 -52.24068071307927, 792.491519927517 -52.80013064998283 M846.2179707496231 -51.13786298325828 C829.1621280751436 -51.79083190797185, 811.8931491189377 -51.688166690145074, 792.0192397741212 -51.679664253509465 M790.5567819246223 -53.43245671168667 C791.5840864142314 -41.65915854445933, 791.670095769695 -28.299864189807323, 790.8819373156163 -14.601965932153137 M790.6597116222218 -52.764710929552834 C791.5446107751645 -43.53180199295939, 792.285212949227 -35.2413440846565, 791.3228652218468 -16.001013281071195 M792.7328628157168 -16.38950406303689 C807.8979767124417 -16.693123127764544, 822.6124490741871 -15.690079742012955, 844.2148101960044 -17.153487387040634 M791.9104364806457 -16.325392065413677 C810.9075968527573 -15.415345915377472, 829.0364430392948 -16.187001594300433, 846.1624277301603 -15.430205514033116 M844.8220838724066 -17.83584358923168 C845.5657767063527 -26.446790181070455, 844.9268821082909 -40.646753511698435, 844.2614223360201 -52.558075866612576 M845.5623035870296 -15.161558385143957 C846.4485067713352 -28.51934029872019, 845.4553156119678 -40.71880233926266, 844.7570323429813 -51.7089314474106 M845.64 -52 C845.64 -52, 845.64 -52, 845.64 -52 M845.64 -52 C845.64 -52, 845.64 -52, 845.64 -52" stroke="white" stroke-width="1" fill="none"/></g>
<text text-anchor="middle" x="818.64" y="-29.8" font-family="Times,serif" font-size="14.00">FOO7</text>
</g>
<!-- FOO6&#45;&gt;FOO7 -->
<!-- FOO8 -->
<g id="node9" class="node">
<title>FOO8</title>
<g><path d="M933.9663153970845 -50.38035307846481 L883.3871886214015 -50.77270327702194 L879.812229368881 -14.404616289630685 L935.0909914848202 -16.492462227609 L934.1757494930491 -53.887616982656766" stroke="none" stroke-width="0" fill="white" fill-rule="evenodd"/><path d="M934.2386000379526 -52.823864745742505 C920.1172031441776 -51.026023890585236, 906.8675094795382 -53.30636826136838, 882.7606865310628 -52.67202718446818 M935.6414914654671 -51.77436103467067 C924.3957718216245 -51.612685776315466, 912.110051520296 -52.307170732135226, 881.8268321919393 -51.793185874788776 M879.8229645320349 -53.850833265709674 C879.4916885899316 -42.036622177053125, 880.208383224925 -33.4652056310715, 882.9144029072522 -16.94778971009338 M881.4089728952018 -52.847406482808005 C880.9276314136761 -40.47092425786931, 881.0619825659064 -30.55270716854704, 880.9608342307902 -15.800405742040656 M882.5767369309896 -16.99805056091796 C901.7270570780516 -16.592940255482194, 922.9833138875132 -15.36638107128573, 935.6827906534999 -15.39848250662512 M881.1304076671506 -15.457785506215206 C894.2146772017675 -16.520948718245144, 908.5438277127232 -16.29013806860646, 935.7300094542229 -15.997991226278524 M936.0841375133134 -16.595780575042273 C935.170529615823 -28.665806038458967, 934.2390795941194 -39.56144565533079, 934.5119267984044 -50.02951053846278 M934.7876785670333 -15.349833705847967 C935.1329947432068 -27.066817480707076, 934.9782828912871 -37.50968097513241, 934.7436254281661 -52.489225901002705 M935.64 -52 C935.64 -52, 935.64 -52, 935.64 -52 M935.64 -52 C935.64 -52, 935.64 -52, 935.64 -52" stroke="white" stroke-width="1" fill="none"/></g>
<text text-anchor="middle" x="908.64" y="-29.8" font-family="Times,serif" font-size="14.00">FOO8</text>
</g>
<!-- FOO7&#45;&gt;FOO8 -->
<!-- submitTaskFunction___Func -->
<g id="node10" class="node">
<title>submitTaskFunction___Func</title>
<g><path d="M306.5228852786899 -515.4936064353454 L176.334452674145 -514.8016900523304 L174.85959808545698 -479.2804486845315 L304.3080106807616 -480.6687110106616 L305.42016542740566 -515.483722161164" stroke="none" stroke-width="0" fill="none" fill-rule="evenodd"/><path d="M307.6711992140075 -515.3049377891217 C259.55574545872497 -516.2412915866211, 212.76738906250696 -516.6407018493232, 174.60746797602494 -516.7645771058615 M305.18082815571034 -514.320641530102 C277.6300606297407 -516.9952214008672, 248.76104086924212 -515.2244375412881, 174.50676500069295 -515.0675782883116 M173.49694177762672 -514.6911516781543 C176.23126520069877 -508.8694490020616, 173.63088689735764 -501.3014215036406, 174.572376653693 -477.9824827131442 M174.32859671032057 -515.2834576506965 C174.25345992103388 -504.7471515576492, 174.19385058519435 -495.8204189025588, 174.6967095518004 -478.34621378033927 M173.01966002639944 -480.8153783727519 C218.4864215187453 -480.7334401941465, 266.7328229228812 -478.28051536518825, 307.0961136837385 -477.9987121650664 M175.23240569544936 -478.4337709713432 C212.85505574145702 -478.1107672782149, 249.2931412324221 -478.74904687611985, 306.21630545713094 -478.3106551893124 M306.8574743892328 -477.17148598371745 C305.76628554550143 -487.4911548438078, 305.86924455597205 -495.1572205702288, 306.32607608402174 -516.9804572006572 M305.02159503779495 -479.3415080857737 C306.80835994460455 -488.06614388564475, 305.5537550751545 -498.9742579138295, 304.7644605485467 -514.3180568963818 M305.7 -515 C305.7 -515, 305.7 -515, 305.7 -515 M305.7 -515 C305.7 -515, 305.7 -515, 305.7 -515" stroke="black" stroke-width="1" fill="none"/></g>
<text text-anchor="middle" x="240.09" y="-492.8" font-family="Times,serif" font-size="14.00">submitTaskFunction</text>
</g>
<!-- apiRunTask___Api -->
<g id="node11" class="node">
<title>apiRunTask___Api</title>
<g><path d="M120.08356344314176 -516.8165964616613 L36.491848085172435 -513.238862388804 L33.93659738534552 -478.626705907831 L120.71631874329309 -477.7551099457879 L119.51921007419911 -514.7136950573779" stroke="none" stroke-width="0" fill="none" fill-rule="evenodd"/><path d="M120.5587377664339 -513.7040470330272 C94.45580027651441 -514.5145809383479, 71.65931412142874 -516.1683579280408, 37.14846889419664 -516.5514689698173 M118.00609710758665 -514.1728224168589 C86.59298979688565 -514.6128708543511, 54.089175662557565 -515.1801144329893, 34.723552947534344 -514.4001832324803 M37.07274915913756 -513.0922517284259 C35.02493391789815 -507.9772274624509, 35.62639624136705 -501.07478509081346, 33.74128065038999 -480.5012341551285 M35.90730208684145 -515.8729102897249 C35.12115948935209 -501.05336865298267, 36.26200336138701 -486.0117509502891, 34.873794678449656 -478.01062460625354 M37.27786597166693 -477.56675460914187 C57.76698536584654 -478.21738125284463, 80.40490992452605 -479.17031580651036, 119.7450708360723 -480.2750664943796 M34.74041777363106 -478.8836029756774 C65.86703579275664 -479.35372088703826, 93.69385907378924 -479.1302612410179, 119.72541987565378 -479.04169022719236 M118.13631610740339 -479.14731085975455 C118.15464746903689 -490.83334009009513, 118.47604219803553 -507.1042286549025, 117.49949177642938 -514.5352113140832 M118.32906546797219 -478.2602804820795 C118.62442071864045 -490.8868441231888, 118.00545528779867 -501.91455791479194, 119.15003902839057 -514.4960957786259 M118.92 -515 C118.92 -515, 118.92 -515, 118.92 -515 M118.92 -515 C118.92 -515, 118.92 -515, 118.92 -515" stroke="black" stroke-width="1" fill="none"/></g>
<text text-anchor="middle" x="77.27" y="-492.8" font-family="Times,serif" font-size="14.00">apiRunTask</text>
</g>
<!-- apiRunTask___Api&#45;&gt;submitTaskFunction___Func -->
<g id="edge9" class="edge">
<title>apiRunTask___Api-&gt;submitTaskFunction___Func</title>
<g><path d="M121.06731088820476 -495.8945686157129 M119.2 -497 C117.49959465956881 -496.4761044975032, 162.70937262694977 -498.7779079884364, 164.96243198575172 -498.20918160758885 M119.3091406712091 -496.48398868404206 C117.3472225063851 -496.70821467725085, 163.43380109371057 -499.15460283668307, 166.35142532142478 -497.95691429982696" stroke="black" stroke-width="1" fill="none"/></g>
<g><path d="M166.00524265797355 -499.60692177604716 L172.8262586688199 -495.49995971496395 L164.07097065406984 -493.76451731183965 L163.12804304650783 -501.3624310165637" stroke="none" stroke-width="0" fill="black" fill-rule="evenodd"/><path d="M163.59100190435046 -500.65765839431043 C169.09861752171545 -499.32411826816326, 172.66586602992246 -497.1187902474265, 174.77885529547635 -497.144386117612 M164.1345985644808 -500.4293018883528 C168.22479248244747 -499.79713379370617, 171.5010282350099 -498.0082924198948, 174.21906926349612 -497.18458505659447 M174.46358249896264 -496.7191279172769 C171.8650226193445 -496.35952366533087, 167.76170351374634 -495.4802343746351, 164.95332779765616 -493.0874183523714 M174.4691655274523 -497.17552454373777 C171.84311146354858 -495.8404075158548, 170.20541966844456 -495.7643139379437, 164.11841769950945 -493.0149877516585 M164.05937147853703 -494.09888172937633 C164.8123756705622 -495.47760814408105, 164.1961658727712 -498.4394103502431, 164.53185136702527 -500.9439913812189 M164.29995026895355 -493.1919391467346 C164.38703416596812 -496.304009750397, 164.41650327272203 -499.2740154160469, 164.44504242952797 -500.39797470302807 M164.28 -500.5 C164.28 -500.5, 164.28 -500.5, 164.28 -500.5 M164.28 -500.5 C164.28 -500.5, 164.28 -500.5, 164.28 -500.5" stroke="black" stroke-width="1" fill="none"/></g>
</g>
<!-- runTaskFunction___Func -->
<g id="node12" class="node">
<title>runTaskFunction___Func</title>
<g><path d="M132.62605813496128 -461.0707767554962 L19.61946096857216 -460.6349535346985 L23.033164510768476 -424.9339791379152 L131.1524358556405 -423.4372957072153 L132.52216596055362 -460.5025109697879" stroke="none" stroke-width="0" fill="none" fill-rule="evenodd"/><path d="M132.08741687192725 -459.4842885226478 C88.66811232810947 -461.20636260017346, 43.28065969460925 -460.7346149057743, 20.418951030260274 -459.4014327379744 M133.79555116248545 -460.3400934808279 C95.90026975802064 -461.4502736147578, 58.455268082933635 -460.188472783809, 21.42046489981623 -460.47863600014966 M23.083012992103914 -461.03246680521954 C19.991758981323883 -452.24792122134255, 20.01376621523066 -443.26933362789146, 22.95067334396386 -426.822669103162 M20.877495347412342 -461.9941571498701 C22.404445591884972 -453.8506474583661, 22.183962594351396 -445.2577233455942, 21.612599284320968 -425.4690433204351 M23.027934829006888 -423.2208526181396 C64.79214500683157 -423.59782783117214, 108.19828716546193 -425.4000874228406, 133.0906398717835 -424.7564533754577 M22.035300232145413 -424.45535607630165 C55.808762410798614 -424.66007641769556, 91.2650057481367 -424.91510536932, 132.98765658136415 -424.4739849454084 M132.57423498627566 -426.8683447992961 C133.871339999795 -434.5741460174437, 131.44804717412455 -443.40138541213366, 132.98573074417413 -460.05356845408767 M132.8365153849681 -424.08158643843313 C133.79006103753343 -439.7929876996535, 132.45724878511157 -452.5598457709442, 133.18755844204483 -460.6199067809744 M132.92 -461 C132.92 -461, 132.92 -461, 132.92 -461 M132.92 -461 C132.92 -461, 132.92 -461, 132.92 -461" stroke="black" stroke-width="1" fill="none"/></g>
<text text-anchor="middle" x="77.27" y="-438.8" font-family="Times,serif" font-size="14.00">runTaskFunction</text>
</g>
<!-- listTasksFunction___Func -->
<g id="node13" class="node">
<title>listTasksFunction___Func</title>
<g><path d="M296.0108021914454 -407.9856211328093 L184.1300297993469 -407.93560176608855 L181.0322680803414 -372.8099105803963 L296.8317643189376 -371.1788176539846 L298.5754314975559 -407.82419752151884" stroke="none" stroke-width="0" fill="none" fill-rule="evenodd"/><path d="M297.86346435740404 -405.4780377680669 C265.23833022620425 -408.0827776273265, 235.3062982777271 -407.6176358277584, 183.3991311350004 -407.211370137279 M297.30428121179114 -406.24538350815186 C265.14120090178363 -407.65590996400607, 233.05795989928276 -406.96999253290727, 183.0856327352878 -406.1474666795473 M180.8960964823811 -407.51308880003614 C183.96133687154108 -393.1358531001692, 183.14251636307424 -381.95592938453376, 184.24846055239615 -371.2572711833878 M182.3042294362912 -406.04185863938517 C182.303849383454 -397.7262758577115, 182.25492003380148 -387.1858073275355, 183.24522903922937 -371.92439925692935 M182.54987082633554 -369.55086225684 C211.7158354257065 -370.8368215737774, 241.3622993540423 -371.3890342365435, 299.0859448849839 -370.57059049049764 M183.15942102016538 -370.873508696846 C224.13022921205246 -371.1976653920596, 267.6196708962261 -372.4373831186108, 297.8512135530817 -370.6658060776319 M298.0798278810222 -372.2531272200139 C297.2853860038737 -378.36794675022065, 299.2680952400932 -390.7679428890928, 297.2085367798875 -405.2805440027124 M297.6355311097078 -371.6786475089554 C298.27637550912635 -380.3990714493995, 298.440001450139 -389.7967793151534, 297.96323521125555 -407.9154781248763 M297.65 -407 C297.65 -407, 297.65 -407, 297.65 -407 M297.65 -407 C297.65 -407, 297.65 -407, 297.65 -407" stroke="black" stroke-width="1" fill="none"/></g>
<text text-anchor="middle" x="240.09" y="-384.8" font-family="Times,serif" font-size="14.00">listTasksFunction</text>
</g>
<!-- apiListTasks___Api -->
<g id="node14" class="node">
<title>apiListTasks___Api</title>
<g><path d="M119.85595592673936 -407.54345534243004 L34.976853490549026 -406.4863695249125 L35.650926582277116 -371.6881270245756 L121.95701718284852 -370.99652857585403 L121.3927507602205 -406.273130633008" stroke="none" stroke-width="0" fill="none" fill-rule="evenodd"/><path d="M122.39471234041304 -405.6682690212467 C95.53839477621196 -408.6720655463688, 69.56387366577064 -406.75614868681583, 34.354233596690854 -407.7730181429753 M121.12132894810156 -407.6258916203317 C102.71183480894543 -407.45436943007843, 82.07738657023343 -406.71496440984174, 33.569741254483596 -407.9141771732788 M35.54992554283488 -408.83850703130344 C34.25717166002876 -396.74446721488783, 34.20767582782085 -384.0901887689904, 33.67023913428769 -371.11482037605265 M34.2309258103732 -406.66425126788255 C34.1067117940856 -395.0428913322577, 34.81006768533471 -381.50218304758255, 34.59612685288874 -370.4683557945256 M33.175791435933036 -372.6603353719692 C49.961919205420415 -369.80445762056223, 67.78399283083316 -369.6191121173386, 118.88663759551672 -371.58665277434716 M33.54704896733358 -371.4817455780845 C67.3381967092881 -371.9318426067922, 100.58580615531378 -371.4339619037477, 121.62486173222801 -371.3594730382672 M119.50444591101856 -370.961134759588 C122.17099937159513 -382.7073533477692, 119.47874483544601 -391.846433948791, 122.76915674599375 -408.4261205490435 M121.0445886059899 -371.1270680955643 C120.92322266280388 -382.0379844799448, 120.45221100573644 -392.37433028975477, 120.10734829768279 -407.5953361602774 M120.81 -407 C120.81 -407, 120.81 -407, 120.81 -407 M120.81 -407 C120.81 -407, 120.81 -407, 120.81 -407" stroke="black" stroke-width="1" fill="none"/></g>
<text text-anchor="middle" x="77.27" y="-384.8" font-family="Times,serif" font-size="14.00">apiListTasks</text>
</g>
<!-- apiListTasks___Api&#45;&gt;listTasksFunction___Func -->
<g id="edge10" class="edge">
<title>apiListTasks___Api-&gt;listTasksFunction___Func</title>
<g><path d="M120.87296927412334 -388.1352012612 M120.9 -389 C118.96361498627095 -387.8911078003002, 171.3565649995673 -390.40763347522585, 174.0502022312215 -388.05504990933207 M119.04696951952181 -389.1505172945081 C120.7683743001653 -390.6305026276354, 171.74790598778227 -389.0824160510298, 171.11920867501175 -390.273551026889" stroke="black" stroke-width="1" fill="none"/></g>
<g><path d="M171.31116926446265 -390.84298869734664 L184.05011646493304 -390.67024705409005 L171.02748885661555 -385.480941939599 L171.08970880532593 -393.709545363097" stroke="none" stroke-width="0" fill="black" fill-rule="evenodd"/><path d="M172.01106674472217 -393.28768864497687 C175.41262905045718 -391.52540744057944, 175.91519688574735 -391.5290551745633, 181.98227864604263 -388.79652344246836 M171.75746247224504 -392.22969083870464 C175.86630269040478 -390.9271656962609, 178.05548181872035 -390.52928827586464, 181.82962009653014 -388.5165539054062 M182.9313711158501 -389.74269828666365 C179.86649786581367 -387.29837665926243, 175.75839507379067 -386.32738512335493, 171.7217908716117 -386.43757740197356 M182.72330270393155 -388.6863857229145 C179.60323446378024 -388.103162559877, 177.6527237816586 -387.46250859978, 172.38177480371317 -385.13205429906003 M172.57794610590366 -385.20045500346976 C172.7904856648085 -387.56545763147864, 172.8947456467446 -389.82560460908877, 172.24956468810234 -392.7674502161551 M172.1840816906649 -385.2863436743892 C171.96446608854757 -388.0657462295959, 172.5306006307464 -390.54802993415467, 172.4334930536039 -392.539292255374 M172.24 -392.5 C172.24 -392.5, 172.24 -392.5, 172.24 -392.5 M172.24 -392.5 C172.24 -392.5, 172.24 -392.5, 172.24 -392.5" stroke="black" stroke-width="1" fill="none"/></g>
</g>
<!-- getTaskFunction___Func -->
<g id="node15" class="node">
<title>getTaskFunction___Func</title>
<g><path d="M294.5450977308662 -352.2833814292212 L186.732148440331 -351.58414526237755 L184.91096057361867 -317.0165320064613 L295.35521551104887 -318.17330324428997 L296.1721312343898 -353.698600365097" stroke="none" stroke-width="0" fill="none" fill-rule="evenodd"/><path d="M296.46704254700745 -352.7202839105483 C265.41434687382787 -354.4947948723748, 237.85756142619124 -355.11552477062077, 184.73080067223196 -353.7009190329746 M294.9462756676142 -353.1251592590198 C272.1450140067558 -354.8794836368352, 250.19580408095686 -354.3352024135106, 184.50942166986601 -353.16552700046424 M183.67351122290734 -352.7006891811299 C183.3963548372406 -341.71609557473545, 183.85660359413282 -330.01995710387496, 185.72288042225435 -315.486885377701 M185.30472382609483 -353.573916394352 C185.03226505079965 -339.2256343085417, 184.73535119075578 -326.6613068819153, 184.3502940052504 -316.22382972725836 M183.35403705729613 -317.1682896510588 C225.35877178560727 -316.66440806902233, 266.2847511765896 -315.11334852652215, 293.87550981551715 -316.8316906433966 M185.9534511918323 -317.9702942531187 C221.34159726834758 -315.5760437515227, 258.02503452615065 -315.60289603341806, 295.762186872645 -316.8226437844028 M296.9803407859854 -317.6986974569432 C294.9432895487073 -325.6845382312346, 296.91183017716236 -330.14132191831453, 293.931842609858 -352.5978673650894 M294.87396693258154 -316.232364689744 C295.57537353892764 -328.6530242518726, 295.28794734743485 -338.90571985590196, 294.43311277307333 -352.7460730601623 M295.18 -353 C295.18 -353, 295.18 -353, 295.18 -353 M295.18 -353 C295.18 -353, 295.18 -353, 295.18 -353" stroke="black" stroke-width="1" fill="none"/></g>
<text text-anchor="middle" x="240.09" y="-330.8" font-family="Times,serif" font-size="14.00">getTaskFunction</text>
</g>
<!-- apiGetTask___Api -->
<g id="node16" class="node">
<title>apiGetTask___Api</title>
<g><path d="M118.42029034034556 -353.58048324461265 L38.866501054917364 -353.1937600337259 L38.82945463662899 -318.42314639466736 L116.0277931797004 -317.0241363271231 L119.21803487042193 -352.840538951559" stroke="none" stroke-width="0" fill="none" fill-rule="evenodd"/><path d="M117.9917537537928 -352.9051925241639 C91.36781033491386 -354.5891829859828, 62.94172596095672 -354.3277073027895, 37.24069496957153 -353.7688632344917 M116.77833545406632 -353.45863518415723 C85.47267871622192 -352.5954129913641, 54.99199312842144 -352.76658364920746, 36.52610133809557 -353.34644788926846 M38.96867511525878 -353.87854119216047 C38.432855340435324 -342.02705108690145, 37.464782545655225 -334.95567476904984, 36.170048653153614 -315.4358436755672 M37.06497283010834 -353.1634481351531 C38.091470331238504 -340.9214636185005, 36.89821784977755 -328.47821462283423, 37.766723754691874 -317.99245096134564 M37.61012247063017 -318.1245993181489 C62.46099512832557 -319.14628414432724, 83.91758867089139 -319.55348526671764, 117.69085128459416 -317.181575338401 M37.892878619967405 -316.5272414594326 C54.85153638745508 -317.6318846952564, 74.00152069090792 -317.2920419810312, 117.76432639077876 -316.6965905733237 M117.06517838026983 -315.28638304248267 C116.07990846601818 -331.0433600668283, 115.48101181450772 -344.9618881458401, 116.46220715229522 -352.53547114665207 M116.5568746806829 -317.8833715616613 C117.16158869826417 -330.26229494162266, 116.73713922305001 -342.4537331707878, 116.57513463977969 -352.91018877704346 M117.3 -353 C117.3 -353, 117.3 -353, 117.3 -353 M117.3 -353 C117.3 -353, 117.3 -353, 117.3 -353" stroke="black" stroke-width="1" fill="none"/></g>
<text text-anchor="middle" x="77.27" y="-330.8" font-family="Times,serif" font-size="14.00">apiGetTask</text>
</g>
<!-- apiGetTask___Api&#45;&gt;getTaskFunction___Func -->
<g id="edge11" class="edge">
<title>apiGetTask___Api-&gt;getTaskFunction___Func</title>
<g><path d="M119.45225909695002 -333.0711099858476 M117.51 -335 C117.39323938993151 -333.4007209279159, 175.49605876688238 -335.5511607675445, 176.6284271827513 -333.7008768259735 M116.8544164549145 -335.0401113184783 C117.5722632656686 -333.7382989906758, 176.62774352233686 -334.9590786513678, 173.0561027662626 -335.4842218078239" stroke="black" stroke-width="1" fill="none"/></g>
<g><path d="M176.27026822819647 -339.5014356832767 L186.0106199064531 -334.0683716394198 L175.06062860379964 -332.228027615837 L174.38033197144958 -337.31981003024475" stroke="none" stroke-width="0" fill="black" fill-rule="evenodd"/><path d="M175.1919762452409 -337.4886485727728 C179.24854210377106 -337.49487415892986, 181.9189555200931 -335.73482367974714, 184.36373498270524 -335.38377314313124 M174.6266796180836 -338.89368257945256 C177.55935109484054 -337.99964972593654, 179.1265579300605 -336.48004543170043, 184.7707732401967 -334.9892369493144 M185.4763246076903 -335.8474273096223 C182.7497542669998 -332.98230266480823, 180.13997088168034 -333.2515133218265, 174.73840809915384 -332.1172473948085 M185.27925298795978 -335.07102750706645 C182.212456602771 -333.7707555560103, 179.54082644068438 -333.16011029152247, 175.07727011641057 -331.55169265447114 M174.6330179397758 -331.17753571818594 C174.5099198648253 -334.13719457816387, 175.36119697959847 -336.02057561211126, 174.98648293046122 -338.5295515767523 M174.77766576599802 -331.57379297297473 C174.59831913880657 -333.5408073961169, 174.66356152671923 -334.9452946537932, 175.05059285741095 -338.361841659465 M174.95 -338.5 C174.95 -338.5, 174.95 -338.5, 174.95 -338.5 M174.95 -338.5 C174.95 -338.5, 174.95 -338.5, 174.95 -338.5" stroke="black" stroke-width="1" fill="none"/></g>
</g>
<!-- apiGetTaskHistory___Api -->
<g id="node17" class="node">
<title>apiGetTaskHistory___Api</title>
<g><path d="M139.39780392302652 -299.66849663241663 L17.653566953153675 -300.277031599706 L15.537318044751988 -261.7466355900313 L139.43777079303314 -261.23213438361853 L137.36588816225188 -297.898834967214" stroke="none" stroke-width="0" fill="none" fill-rule="evenodd"/><path d="M140.03172008430587 -298.17547155365503 C92.32188422763919 -301.03421388972254, 44.55243439001158 -299.67337413445665, 14.804308421073461 -299.2266588894657 M138.58623991710493 -299.82352368557315 C93.28470566356768 -297.0112649497148, 46.452867355688674 -298.5701520261307, 16.491037738054942 -299.2983153113256 M17.281189412197858 -297.56642297315653 C15.558693078907748 -285.3542738788992, 16.620760697066913 -270.9737121596294, 17.394529849205004 -264.3844186253316 M16.395158075441014 -299.20405317351447 C16.599921224110737 -287.3811639105423, 17.12672603169247 -276.3092470946449, 15.361625951017281 -262.23518288322157 M17.818654914211542 -263.27199895236924 C66.263347890721 -261.02580610194286, 112.6694897163639 -261.40573371603347, 138.04680994798642 -261.638382223435 M16.628864841317714 -262.876947715804 C56.88953252362309 -263.23695740453275, 99.43000515637412 -262.3223740377359, 138.29747884412245 -262.07328219242544 M138.95906670218798 -263.3560544316688 C138.24035926097025 -277.45909996024784, 137.04188739876813 -290.30363677371304, 140.2927238634681 -300.6336245574758 M138.70635280856814 -263.77041284028036 C138.03273765136325 -273.31079491631914, 138.71566101444986 -284.5229973673297, 138.84927345341455 -298.69848662075094 M138.3 -299 C138.3 -299, 138.3 -299, 138.3 -299 M138.3 -299 C138.3 -299, 138.3 -299, 138.3 -299" stroke="black" stroke-width="1" fill="none"/></g>
<text text-anchor="middle" x="77.27" y="-276.8" font-family="Times,serif" font-size="14.00">apiGetTaskHistory</text>
</g>
<!-- _i_Func_5902___Func -->
<g id="node18" class="node">
<title>_i_Func_5902___Func</title>
<g><path d="M265.6335522262854 -298.63769658228546 L214.20206457538538 -300.8089364241341 L211.99778777200575 -261.6232924792516 L265.2553184454638 -261.4372347769432 L266.5427867779455 -300.4902827285604" stroke="none" stroke-width="0" fill="none" fill-rule="evenodd"/><path d="M266.3864158122386 -297.2086572061895 C249.57887497310804 -296.7715709099405, 229.56413047033357 -297.33453260470174, 213.39520563654477 -298.1837630305669 M267.2758588582998 -298.12492277835196 C254.84280152404284 -298.43992235263437, 242.92327426817593 -299.3143268859651, 212.20979332062834 -298.8231966977219 M212.26282862571438 -299.3401626812974 C211.73643950709672 -285.7430061579948, 211.28279834476174 -274.3234995324455, 212.37374252273025 -261.5510630993499 M212.51845939727136 -298.93041558457224 C213.54428666097573 -285.22558856196065, 213.24321040102015 -270.65487704258544, 213.73750257399715 -262.93175278655366 M213.03537666871512 -264.3856380474833 C228.3443749161927 -260.764890487116, 240.71815106228016 -262.70787225921435, 267.0120856805685 -261.29421849765157 M213.3057421392257 -262.9797647992866 C231.83534047723376 -263.2180688405528, 248.29845271659772 -262.20711477543716, 267.2730845330543 -263.2093817904041 M266.3960170170498 -263.9544547751505 C268.24609847118967 -271.1449540763885, 265.4845111515473 -281.18782422040306, 266.3177956962684 -299.6748946075777 M267.3926288610175 -263.84552154197576 C266.30692428580136 -270.111414937433, 266.1592587417777 -278.4451185029378, 266.1708104226251 -298.47864280736127 M267.09 -299 C267.09 -299, 267.09 -299, 267.09 -299 M267.09 -299 C267.09 -299, 267.09 -299, 267.09 -299" stroke="black" stroke-width="1" fill="none"/></g>
<text text-anchor="middle" x="240.09" y="-276.8" font-family="Times,serif" font-size="14.00">Func</text>
</g>
<!-- apiGetTaskHistory___Api&#45;&gt;_i_Func_5902___Func -->
<g id="edge12" class="edge">
<title>apiGetTaskHistory___Api-&gt;_i_Func_5902___Func</title>
<g><path d="M137.19650555074705 -280.7398135556099 M138.36 -281 C137.2406137381962 -281.4093290019416, 203.96491916035367 -280.01060768721544, 202.3439675878334 -280.98454263011934 M140.35142911276552 -281.75161740227463 C136.77513976001973 -281.69611153908653, 202.27689863648288 -279.4458857742399, 203.7625612916706 -279.7551358605581" stroke="black" stroke-width="1" fill="none"/></g>
<g><path d="M204.07279177784972 -283.7172856188437 L214.69352062461218 -282.4686601564627 L202.51113380137463 -276.79801803798915 L203.610924255847 -282.69212583740136" stroke="none" stroke-width="0" fill="black" fill-rule="evenodd"/><path d="M203.29681224168638 -285.45712315532467 C205.99741918820308 -284.4508563071145, 207.59449479700396 -283.96674927993735, 213.7574482503915 -280.7165188567888 M202.4495525573642 -284.0156311171154 C205.8978429041585 -283.9106755505121, 207.73823177267687 -283.14425296073523, 212.71833156354273 -281.19406557708584 M213.32466960366995 -281.8375995069974 C209.49821446227912 -279.92067533615483, 206.17713096047058 -279.4225799419456, 203.15503919872359 -276.703768485506 M212.25888715370664 -280.48813036253085 C209.62044078265126 -279.7101342185611, 206.28625760740633 -278.31799765303384, 203.148031899261 -277.8505546467218 M202.17653230467536 -277.31744836411406 C202.7283013368671 -279.746706798847, 203.32376490697848 -282.0941856762098, 202.68796844580237 -284.2441904447318 M203.01578822605669 -277.29301024629035 C202.77661844854057 -280.07097627190166, 202.6377134629509 -282.34231020416297, 202.6446263763078 -284.5017009069471 M202.78 -284.5 C202.78 -284.5, 202.78 -284.5, 202.78 -284.5 M202.78 -284.5 C202.78 -284.5, 202.78 -284.5, 202.78 -284.5" stroke="black" stroke-width="1" fill="none"/></g>
</g>
<!-- apiGetTaskLogs___Api -->
<g id="node19" class="node">
<title>apiGetTaskLogs___Api</title>
<g><path d="M130.43682999332387 -244.37964725955587 L23.484186867204397 -243.90399267929288 L25.100381656714852 -207.82782937105816 L132.60850550356312 -207.32135584236897 L130.45800878927005 -243.51986670534168" stroke="none" stroke-width="0" fill="none" fill-rule="evenodd"/><path d="M130.12325143125378 -244.146425444598 C92.13279385047663 -247.4610506481616, 55.617450809410485 -245.71087401190184, 24.31725954859053 -246.7294514922762 M130.772305566294 -244.40669500009486 C94.69648646525026 -244.01961536673934, 58.1839418314702 -244.57558550285563, 22.72691688779924 -245.6053841765482 M21.298478390437214 -243.2687749514255 C22.50313637894381 -233.15691794210403, 21.30514168595989 -220.81707457224286, 24.384198190378978 -208.99193033124504 M22.283775286671055 -245.32775426486907 C23.428125648621503 -232.3238608050383, 22.464447080290814 -219.5199723655321, 24.09265261208185 -209.5580200513864 M22.992079124288843 -207.20248498219587 C48.5390651893969 -209.07943681588534, 72.34356724917653 -211.38575051900435, 133.05300853752757 -210.84623337173812 M22.82844231733615 -209.9165455705866 C58.44177606101307 -209.00570667149043, 92.22501114790518 -209.20829906592334, 130.94130942298807 -209.20386233021486 M131.27311997176784 -209.54753383536988 C130.3331299442732 -223.19849136668705, 131.3388198730901 -236.0785263675063, 130.6896431866311 -246.14892305961015 M131.47796500278452 -208.85650840713095 C130.40310974784177 -217.068371365444, 131.4340899531249 -227.1428621900107, 130.58024573905524 -244.80315546557694 M131.3 -245 C131.3 -245, 131.3 -245, 131.3 -245 M131.3 -245 C131.3 -245, 131.3 -245, 131.3 -245" stroke="black" stroke-width="1" fill="none"/></g>
<text text-anchor="middle" x="77.27" y="-222.8" font-family="Times,serif" font-size="14.00">apiGetTaskLogs</text>
</g>
<!-- _i_Func_8630___Func -->
<g id="node20" class="node">
<title>_i_Func_8630___Func</title>
<g><path d="M267.756564907774 -245.37696909307616 L214.27142653800425 -244.28512096123447 L212.82234988843646 -207.1679786627505 L266.2305576823721 -208.57320349184877 L265.34472248324835 -246.46373049670714" stroke="none" stroke-width="0" fill="none" fill-rule="evenodd"/><path d="M266.9908599193629 -246.55913847197462 C248.9182881299201 -245.85256761459848, 231.9265034342973 -245.68202221106023, 214.828220106459 -246.7272769224342 M266.31640941144036 -244.4712385994692 C249.07612947858155 -245.3484806699374, 230.90211371512908 -245.01104266271446, 213.69644106720617 -244.72995490091805 M213.92753852696325 -246.76916470185301 C214.38608443567327 -232.04422991940928, 213.88537192932338 -217.63850293245733, 214.22040369257434 -208.36183394829644 M214.03561683943366 -245.47924513060778 C211.89338932714992 -230.32810547334228, 213.67584051699112 -217.48364366438312, 212.4062795965204 -209.50326369811003 M212.29294846654116 -210.37514577028867 C232.97343851659815 -209.9621228785059, 254.38866188247775 -210.02793302590007, 266.4830145050389 -209.2799648921305 M212.14369487721703 -208.46651715491 C233.47174011228978 -208.86089637645105, 254.255868725728 -209.69316472504931, 267.41644811589333 -209.94712906513604 M269.086381413428 -207.2260522161189 C268.5255619724245 -219.1625782980122, 267.0497853703823 -229.31014818560882, 266.1503313761304 -244.84882874481713 M266.44430092917986 -208.50450513452265 C267.7939562379063 -221.35485893158193, 267.8668514088816 -235.7977744736758, 266.22292759790787 -244.45306113650238 M267.09 -245 C267.09 -245, 267.09 -245, 267.09 -245 M267.09 -245 C267.09 -245, 267.09 -245, 267.09 -245" stroke="black" stroke-width="1" fill="none"/></g>
<text text-anchor="middle" x="240.09" y="-222.8" font-family="Times,serif" font-size="14.00">Func</text>
</g>
<!-- apiGetTaskLogs___Api&#45;&gt;_i_Func_8630___Func -->
<g id="edge13" class="edge">
<title>apiGetTaskLogs___Api-&gt;_i_Func_8630___Func</title>
<g><path d="M129.60165747180028 -225.41850006454956 M131.48 -227 C130.19210570006086 -227.56730138865922, 203.84509864709275 -228.06456287899704, 202.9836045193226 -226.18424693490985 M129.88234641396764 -226.11229581608458 C133.06954337756093 -225.30793450778842, 203.3041323070265 -226.579836921874, 202.82018042469406 -227.86409051877726" stroke="black" stroke-width="1" fill="none"/></g>
<g><path d="M201.1715350697437 -231.74759359430564 L213.25143254989658 -226.9053172021847 L204.17590442450393 -222.15832204645912 L203.08904036631677 -230.53320971918166" stroke="none" stroke-width="0" fill="black" fill-rule="evenodd"/><path d="M202.7467845441734 -231.51350797898175 C205.3003444547311 -229.21961302498292, 208.598819800663 -228.78031680969013, 214.038614250825 -226.29754950801686 M202.87399173812452 -230.90857036922498 C206.13535607838702 -228.87941482796626, 209.4021992499471 -227.73444120573663, 212.73126579519365 -227.3254857886437 M213.65400616895394 -227.1874771256643 C209.35364962074618 -225.59655096761767, 206.5368068332637 -225.96308959099602, 202.32076580619645 -222.8164312913913 M213.29604190610834 -227.2938589297995 C209.43303795696235 -226.11737193930483, 207.3974300033054 -225.07308590394334, 202.9834341780348 -223.33105817170522 M202.34648926867456 -223.81673244726392 C202.84904836942425 -225.8784595409307, 202.84647728811237 -228.09797405506228, 202.37722882695445 -231.00816351560363 M202.87544513706874 -223.20426380472796 C202.86293163173093 -225.38619470147728, 203.31608351281582 -227.09861035976235, 203.07614382486537 -230.31384396843836 M203.03 -230.5 C203.03 -230.5, 203.03 -230.5, 203.03 -230.5 M203.03 -230.5 C203.03 -230.5, 203.03 -230.5, 203.03 -230.5" stroke="black" stroke-width="1" fill="none"/></g>
</g>
<!-- taskStateFunction___Func -->
<g id="node21" class="node">
<title>taskStateFunction___Func</title>
<g><path d="M136.79629543723925 -190.55314254537245 L17.272272657960794 -191.36524396898153 L17.933622426493837 -153.31028235857832 L136.8366135555531 -154.8156043735661 L134.52751023713913 -192.2195107820527" stroke="none" stroke-width="0" fill="none" fill-rule="evenodd"/><path d="M134.49597691707982 -192.7170851384244 C108.98554014036895 -189.70330027511162, 78.0207333868866 -189.84614241554215, 19.35523082236206 -189.49827306663508 M135.82989095967596 -191.52736066755807 C101.99910248670759 -189.65462448510192, 67.85152381546449 -190.71068956717394, 18.456284943471015 -191.81458088420578 M20.698548144221117 -190.53332156124847 C20.864716056034837 -177.87530597112828, 20.40450481561229 -164.1104490826796, 17.540622192568414 -153.77225633060982 M18.208573694473618 -191.68352249355047 C18.81587752878555 -179.97840790981883, 18.74370255716593 -167.02749679442095, 18.378115283511598 -155.4905925775718 M17.924826106751333 -153.0917637046166 C49.473763509557514 -154.98695750509293, 76.61333464888344 -154.0085032417159, 134.0205643639862 -156.22809097820712 M18.46286134430109 -155.35796263738524 C51.24211085709908 -156.7370213918619, 84.94650974407136 -155.20757307224127, 134.6328136024778 -154.09187825495857 M134.85959070648323 -153.2262716953943 C134.50809663166797 -167.3235234354229, 136.00998130842356 -181.87254780276774, 134.67394133735053 -191.7801764897843 M136.0212041031601 -155.1341702538086 C136.16343785665356 -162.44911747673476, 135.39262720031448 -170.21703796447676, 135.3415401527155 -190.9520866856227 M135.59 -191 C135.59 -191, 135.59 -191, 135.59 -191 M135.59 -191 C135.59 -191, 135.59 -191, 135.59 -191" stroke="black" stroke-width="1" fill="none"/></g>
<text text-anchor="middle" x="77.27" y="-168.8" font-family="Times,serif" font-size="14.00">taskStateFunction</text>
</g>
<!-- _i_ApiServer_3455___ApiServer -->
<g id="node22" class="node">
<title>_i_ApiServer_3455___ApiServer</title>
<g><path d="M113.68781816855821 -138.30687123397806 L39.091627704164395 -138.1004419272462 L39.41672801046323 -100.50982639707178 L114.93936758421391 -99.23832623724664 L113.46166774633865 -136.99893374535455" stroke="none" stroke-width="0" fill="none" fill-rule="evenodd"/><path d="M115.47577933850897 -138.13758900038235 C95.21456467891491 -137.89826139002213, 73.89367580368831 -136.76540750076254, 41.23828267831475 -137.24468684932532 M114.35038179590673 -136.08376950594112 C91.9907360884925 -137.3056782767393, 68.87242305945365 -138.06777540276846, 41.328482835674095 -137.42065720693262 M42.56867899936789 -138.81043110136122 C39.224650060487676 -126.45122779136337, 39.21581585491066 -113.25705248340269, 40.78365658473241 -102.96200603657722 M41.325265172497396 -136.2677959380261 C40.368798279971806 -127.09339620340981, 40.38086089032652 -117.78147904301805, 41.619771917830725 -101.7401734478057 M40.16642470158148 -101.34176878766641 C56.627106183903294 -100.43719563815625, 72.14631098430166 -99.77812580317627, 112.40697179814777 -100.01203467536439 M40.22299635638659 -101.68349257032288 C68.4865134854023 -101.08250666714136, 93.9760498417062 -101.59464223495694, 113.70055645214556 -101.82773511619307 M113.53105796922377 -102.54199982407557 C113.03721132319222 -111.66879251489523, 114.58780483774855 -120.41244692949653, 114.58998442483527 -137.40037000735043 M114.34197817178355 -101.69370323860863 C112.83125261374549 -113.18931274705213, 114.47060772203629 -124.89773258374896, 114.22119533387219 -137.2145562818065 M113.81 -137 C113.81 -137, 113.81 -137, 113.81 -137 M113.81 -137 C113.81 -137, 113.81 -137, 113.81 -137" stroke="black" stroke-width="1" fill="none"/></g>
<text text-anchor="middle" x="77.27" y="-114.8" font-family="Times,serif" font-size="14.00">ApiServer</text>
</g>
</g>
</svg>
