<!DOCTYPE svg PUBLIC "-//W3C//DTD SVG 1.1//EN" "http://www.w3.org/Graphics/SVG/1.1/DTD/svg11.dtd"><!-- Generated by graphviz version 5.0.0 (20220707.2145)
 --><!-- Title: G Pages: 1 --><svg width="213pt" height="161pt" viewBox="0.00 0.00 212.97 161.00" xmlns="http://www.w3.org/2000/svg" xmlns:xlink="http://www.w3.org/1999/xlink">
<g id="graph0" class="graph" transform="scale(1 1) rotate(0) translate(4 157)">
<title>G</title>
<g><path d="M-4.792854152228122 4.807170308995696 L-3.82282962324325 -156.35581358938242 L209.260901871301 -156.8271251009717 L209.73161046547685 4.679156692415073 L-4.528660524846927 3.590693385463556" stroke="none" stroke-width="0" fill="white" fill-rule="evenodd"/><path d="M-4.868069410325614 4.689826378780829 C-3.5153498242970636 -34.548210769955, -4.487671754535588 -74.68148397818902, -4.587498860074701 -156.20963748032892 M-4.3852582872517205 3.5864066927549327 C-5.03877650495141 -38.891976853376086, -5.0634519877345685 -80.98450167845965, -4.451348326666431 -157.3299920751322 M-4.2808757818883025 -157.75805439275092 C75.4949976825677 -157.69634274635555, 153.9928842708189 -157.4310018257467, 208.35592389152094 -157.1601010822626 M-4.243324787426219 -157.00950935768398 C41.12046608494606 -156.39941969866973, 85.45335003951331 -155.95067649241594, 208.59748292614444 -157.38285553158988 M208.76607861482663 -157.30940351621726 C209.5138342804003 -107.59461557414868, 209.46341577139393 -57.725485253430584, 208.3754063316617 4.288784272188414 M209.3370440926427 -157.33955590735908 C208.74328405280872 -101.81938108899602, 209.35706628396036 -45.58655006481185, 208.5415358420986 4.021571404826655 M209.43469742042927 3.5225527011144053 C160.3612428037387 4.368795040423354, 112.0224171678103 4.767469975026317, -4.162157875653473 3.9455391676517584 M208.5826296833834 4.202277351689405 C133.37035500212036 3.306930838482104, 57.38892193856167 3.288803165060734, -4.176621545847353 4.2959896046196135 M-4 4 C-4 4, -4 4, -4 4 M-4 4 C-4 4, -4 4, -4 4" stroke="transparent" stroke-width="1" fill="none"/></g>
<g id="clust1" class="cluster">
<title>cluster_legend</title>
<g><path d="M13.381417316174726 -85.09365990832814 C13.381417316174726 -85.09365990832814, 13.381417316174726 -85.09365990832814, 13.381417316174726 -85.09365990832814 M13.381417316174726 -85.09365990832814 C13.381417316174726 -85.09365990832814, 13.381417316174726 -85.09365990832814, 13.381417316174726 -85.09365990832814 M12.96984809648916 -79.94402281501345 C14.184551088050238 -81.60196022562916, 15.699552066665525 -83.59335872930158, 16.760769246193448 -84.69637360050949 M12.914473853004623 -79.98451702853006 C14.306762041782035 -81.68729510136106, 15.643123722816867 -83.23009308446665, 16.979947889488418 -84.65592013919903 M13.290931198078797 -76.26946134821326 C15.652601060472827 -77.6422986203596, 17.745321225464856 -80.40048893496628, 20.745111694037057 -84.57074733930945 M13.217032321180596 -75.62230567096388 C15.8074937406605 -78.67263032605648, 17.768724374724307 -81.16425104809598, 21.085028185381525 -84.9722675430202 M13.74485653612923 -71.21028200685852 C16.451140375522893 -74.56746487917964, 20.14538416957132 -78.89653425951609, 25.517515288856444 -84.44338979782455 M13.565559188124514 -71.47733178540444 C17.132558233444552 -75.49817810904602, 20.11641696429716 -79.95323494921558, 25.718434336342153 -85.65232713254595 M13.462276290352541 -65.97257495651925 C18.943524033929737 -73.88731471730203, 25.155118515341076 -81.56893495196563, 28.81358487566679 -84.18951405272068 M12.93257841924122 -66.32629201297605 C17.646636597730275 -71.96445242283262, 21.8900533357758 -77.34264674989807, 28.745783507517235 -85.14635421453981 M13.710506102182977 -61.67260220803135 C20.865831039360554 -70.832081276687, 29.340665405106023 -78.81566388305171, 32.30699554356387 -84.8690435685466 M13.947299959750058 -62.51914957101761 C17.75300620813946 -67.31761034627505, 22.513513331698594 -72.46920591083189, 32.902377474575665 -85.30497033319975 M13.19621870802682 -57.40781761049783 C23.316263808637036 -68.51090069131942, 30.987600289081 -78.00657562994431, 37.681341189517475 -84.74903606767803 M13.132157788466568 -57.59784781881562 C18.704537351601136 -63.29721337839977, 23.704413909460047 -70.01450809615316, 37.09265889117886 -84.94276484539124 M13.368014708728708 -53.8113909641357 C23.668850212705674 -64.068811958489, 32.7830525214179 -76.5769786947579, 40.49206148500714 -85.47497922434879 M13.539794581819345 -53.63491108739175 C23.043483923534126 -64.01597831644119, 32.47753247859704 -75.38035239959949, 40.83876433153056 -84.76771018691677 M13.875826278413468 -48.334499140893406 C20.385042769423446 -57.84521997751272, 29.402854711731102 -65.66144304109474, 46.20444011206792 -84.91182962215396 M12.712995345699394 -47.72507359315734 C21.680358908078993 -58.00502403377938, 30.021615472136034 -67.62369644009304, 45.210362571368265 -85.41913143287213 M14.35114795878618 -44.955585242919504 C25.9468308016676 -56.437687746934955, 36.66480890698536 -70.16411017053457, 49.00128179119163 -84.45969647922708 M13.024415404925408 -43.715977228715275 C21.018278210062206 -52.52522756933447, 28.25399232652218 -60.56846778040436, 49.11911350590798 -84.80301816960349 M12.5701994908018 -38.486784555025395 C25.754929741487857 -52.15997501188072, 36.513146550893644 -66.29487609450061, 52.39512592945148 -84.53990518371381 M13.25522464143519 -39.46376960613863 C28.090157923814107 -55.9675678353869, 43.73892846625387 -74.05101222371007, 52.940422943405 -84.63956452193072 M12.478163887234754 -35.52767638908228 C28.03501617015135 -51.809671787126305, 42.46158276398829 -67.5071006940709, 57.16317751068699 -85.3307399415902 M13.339870355144633 -34.92621740377085 C25.71786458660522 -49.23706129264988, 37.84382475135995 -63.28908724400543, 56.847655384495695 -85.7143540261402 M13.331340001785323 -30.65935256682568 C31.457880602726952 -49.928263075417064, 48.04482654343004 -69.44030229852055, 60.42321946503165 -84.1626808952703 M12.94080760376244 -29.729022852313193 C29.58781022534048 -49.19405435661251, 46.41346451055935 -68.25530063459607, 60.72027685398645 -84.59306635915682 M13.551437608902923 -26.127947101550443 C32.708590145550836 -47.87240945740664, 54.121811461258254 -72.29095894504468, 64.6095734367371 -86.00023542332139 M13.138705384746157 -25.671356240991354 C32.615387120779296 -48.503518000815, 52.33270038175405 -70.56154916481775, 64.6275038297133 -85.46588534463919 M13.807905879703396 -20.752906689806917 C28.846083226035084 -37.56907810212581, 41.593531668239976 -54.08793717706271, 69.23332461606033 -85.19025220654976 M13.431929509854427 -21.494289818673504 C30.01921416780811 -40.24698072629259, 45.544681475737846 -58.74989917843041, 68.84885622476193 -85.02469640419909 M14.016683332885995 -16.28842429028064 C28.869469228134097 -32.737184053545775, 42.704072409275 -50.834784083420914, 73.85364574492367 -84.48775803039611 M12.763273716941248 -16.664641594406273 C29.502282821871646 -35.96131725441877, 46.74311515411534 -54.34894789797793, 73.18132852929106 -84.99695979529253 M12.788305530102079 -12.813707488823816 C28.778294807996982 -31.04102781472821, 45.39289995169085 -50.123674590512536, 77.52226214029463 -85.57528953508609 M13.998682214801581 -11.776186544088528 C35.28412758875007 -37.10950350971833, 57.28831288983015 -62.715592699685146, 77.13913912148132 -85.27486067095396 M13.574986661201926 -8.505519178533607 C30.55332683322939 -25.881649447239553, 44.84690689636069 -44.86457868682831, 81.53672190254777 -85.26963822750392 M14.096590400520066 -8.086903122519145 C38.53452567045675 -37.2046498725881, 63.31573311601463 -64.85688001646224, 80.73544920599588 -84.73410062457079 M17.888091882767622 -7.689093938003346 C38.81458149747796 -30.099822164979095, 57.70410916510086 -54.132730486384595, 84.26712647342444 -85.74948683335491 M17.8300544635993 -7.252206964149966 C42.591457975544365 -36.44079137109756, 67.40070854972122 -65.63954284972561, 84.73271082013926 -85.03740430789716 M21.347310972936775 -8.61255661310108 C35.32706217281148 -24.99938038414449, 50.695489733020445 -41.19053973982481, 89.4138184021874 -84.0634100724214 M21.521162689347545 -8.030379747846174 C40.55198125881857 -30.164951471623933, 60.67603111399122 -52.55720381175031, 88.2359224231699 -84.37477907415061 M26.851490723195166 -8.19269676211864 C47.13037877905702 -31.90817672039588, 68.04574206577534 -58.34584421500102, 92.68804831989165 -85.12222330626987 M25.624190058923563 -8.07757285758011 C47.734673008413374 -33.046323877397946, 69.61216227215135 -57.68674026628717, 92.42972864660477 -85.2462989171254 M29.180491655873706 -6.657643087915002 C47.36239323683437 -27.63209529427871, 64.98424043695891 -48.968459894473874, 97.4986967143868 -85.00738325516156 M29.73635133372092 -7.311759549817233 C51.18354595151658 -32.3202522927162, 72.42421584987929 -56.4391583621043, 97.3200949416972 -84.978622752925 M34.1825409138775 -8.787139672972323 C48.13449072970537 -23.002055550291967, 61.916971767666645 -40.80371757368127, 101.14889866149066 -85.05929454885184 M33.802325784074725 -8.102468377935693 C55.00113601884953 -31.85000555766052, 75.97865963177551 -56.60274845471066, 101.05581731287275 -84.86675500879254 M38.13555365113374 -7.430329929565859 C64.25384822857745 -37.167102157214934, 89.23042208133148 -66.48169626759336, 104.76552917937946 -84.9847073659801 M37.05808036768299 -7.273078258953598 C60.80863748898236 -34.78318360385216, 83.24494922079653 -61.23804072715622, 105.01865566640498 -85.20368512705387 M41.84050557056706 -8.130374397429552 C57.565678137834766 -27.694601724074595, 74.23420795592429 -45.42481486132375, 108.81532397407256 -84.92372860329917 M41.33943143251583 -7.454415864628334 C63.944270049954895 -34.607497659099714, 87.13034631980706 -60.18474551857584, 108.50557635937338 -84.4658947116871 M45.21719589341158 -7.712150826650314 C66.52125399107307 -32.04392053409012, 88.826266837229 -56.440966706168375, 113.47372133743832 -83.97826961110573 M45.72454369553085 -8.435159061647617 C69.65059235656594 -35.466127827000896, 93.66109107659028 -62.85935601563281, 112.69392936461942 -85.05417583127593 M49.187450385165285 -8.217587943667617 C67.740302771005 -30.014157359370067, 86.6207104597744 -49.67151426774843, 116.31566313728075 -86.20329155306463 M48.89763315252419 -7.8244216830518685 C75.32459169931946 -37.603716825297305, 101.82284848525009 -67.97641880832863, 117.05007898647388 -85.19716174592757 M53.64916283296673 -8.629617584495271 C72.96368154909806 -29.815605424820944, 93.54637752546599 -52.959068922315915, 119.734804025885 -85.76237491401979 M53.89802129566794 -7.4276527631439455 C78.86306171441393 -36.658763999998946, 104.40980487282809 -66.24280949150788, 120.10383416594212 -85.02403357934008 M57.18753053112828 -8.079186729756564 C78.18065756288314 -30.753498327458313, 99.94933454320709 -54.864551231680025, 125.13600066537829 -84.81895055486932 M56.73617668836872 -6.9854626961922435 C82.05249186839788 -36.65929563421977, 107.8556524506844 -65.16541318893961, 124.52669297509475 -84.96212929648624 M60.98015167573751 -7.827226466292306 C82.97974656114056 -33.83409503866497, 105.40271222622289 -58.321738415444905, 128.76593275754976 -85.1481113630123 M61.28485546195732 -7.154509298314609 C76.26408958998836 -25.699480693073887, 91.2460159712483 -43.11393631994016, 128.75004320264233 -85.7652885751609 M66.31244349270483 -7.114096127399432 C78.72746522876953 -22.727583019447813, 93.32518282094514 -39.75191274894159, 132.66380723887718 -84.17272876678582 M65.47727235375754 -7.753647421280013 C92.17607359873593 -38.853675824693696, 118.55405917765715 -69.78643264161423, 132.78598723274078 -84.52491517151344 M68.36732486447833 -7.441536455381524 C88.34590163806202 -28.09874061385001, 105.69887985442477 -49.82628046977261, 137.16564191756603 -84.51373601410984 M69.24344410830159 -7.864444675508068 C94.05476650745766 -35.269470713255664, 117.65220026727364 -62.921648560575726, 136.32824434369832 -85.25726952076725 M73.9323109533997 -6.9878372531700546 C88.9807442893692 -25.30951675790766, 102.53858787059947 -41.988488660365256, 139.8471731128098 -84.56649101478602 M73.61072776164364 -7.791990184976103 C98.01070934245075 -35.767867543115486, 121.81471851258416 -63.264789802011514, 139.92687996368946 -84.29539743140764 M76.30693583194726 -7.141129858473123 C94.62032174627002 -27.15078355406012, 109.8179860895805 -45.63458952793461, 143.81918811200467 -85.90180189189189 M76.82581155222657 -7.628775786960954 C91.4851662368954 -23.267063109316595, 105.69057434458516 -40.30698237439154, 144.1831086928829 -84.57847133704267 M81.03857813704319 -8.010920148700635 C105.3673690044145 -35.641557553921466, 129.91301319813005 -62.98278663993298, 147.7952013947693 -85.61990639429649 M80.71617737057885 -7.8515618173230415 C102.5638957491485 -32.7920086542563, 124.25668037044296 -58.457080577500655, 148.85822648055833 -85.06423963781283 M84.81088765548122 -8.094083921896665 C104.05493870524458 -28.352158989096523, 121.82401905824132 -50.393742259623316, 151.35314627593863 -85.09675196515728 M85.34914095625679 -8.37482222972769 C103.16815061069117 -27.1496948977872, 119.62458990734743 -47.05399781217372, 152.29028505820992 -84.86874433399771 M88.79340787060835 -7.668774192312237 C109.82357762171306 -30.38804259833077, 128.27245463393592 -51.263257365835365, 157.42597959498673 -84.9127960234292 M88.51560810775835 -7.124526796015741 C104.39234981908653 -25.954584894260755, 120.0608719348572 -43.253005551577154, 156.55510291084138 -85.0611860023545 M93.73196880806947 -7.683321610498446 C119.75913099690658 -38.37841199731409, 145.94348492749327 -67.92134711196488, 160.690523502194 -85.53680784234159 M93.46046355580006 -7.930505252363547 C107.15846058740374 -24.37950021608012, 122.04735675202811 -41.20955208312165, 159.92177367851497 -84.31763199357236 M96.58041306799876 -7.212639617904995 C118.41037663514159 -32.86953172138578, 139.89258577506777 -55.644852687412104, 164.2207618251432 -84.49595033395399 M97.20076568771897 -7.71018823490593 C115.24527650298673 -28.387150304925765, 133.27431862906394 -50.0443248320455, 163.93324913764738 -85.51625388139666 M101.55114311548542 -7.033194805699987 C120.56988114016744 -28.709169066478967, 137.46649095612202 -49.528005950106134, 169.0122546551441 -84.35304887950997 M101.42480448143056 -7.94560924288921 C119.73850392462755 -29.60296209823956, 139.2861652619901 -50.99760700956522, 168.72518398683064 -85.58096358125488 M104.86698757999811 -7.775421980423285 C126.96569175503258 -32.47417512603281, 148.96590425932183 -58.373525714876, 172.21885541638702 -84.96314960491847 M105.08776686889928 -8.322463610206482 C121.06257939030904 -26.446653675860485, 137.078504928896 -44.01197156555367, 172.40165845844365 -85.10833221765915 M107.84058690846437 -7.342292311828649 C124.99177771047587 -25.43898061808173, 139.54917676704872 -41.89574591016789, 175.8738810301753 -84.83668369401896 M109.14354451712035 -7.0143533589731275 C128.43600837848706 -29.98254131729123, 147.80361186656603 -51.767315926152854, 176.28258509538333 -85.41240266699468 M113.17946677249262 -8.656970709785622 C126.77998755854856 -24.837671566459917, 141.71562269087602 -41.003830172897906, 180.32090482340317 -83.9019200261463 M112.9344521039464 -8.137555364901644 C133.2699486100539 -31.949589158839096, 154.91957627433482 -56.404880998286984, 179.6236928459677 -84.50134429584128 M116.4762203522341 -8.886297713553368 C133.8862894625923 -28.40655583941227, 151.60933411685895 -49.34631423450428, 183.63854844279837 -85.01590885504392 M117.05704128530614 -8.113541228911188 C137.38960805258793 -29.75601083609295, 156.10717595349635 -52.519950499016, 183.92588470242097 -85.09306188156195 M121.06700200119582 -7.704376790065971 C135.76596911821153 -25.626811702145368, 150.81957845958414 -42.92324500102246, 188.35810404918254 -83.60542354830429 M120.65992984523314 -7.851853861701382 C134.1224932358146 -23.111749702700198, 148.66922981936568 -39.34564682999672, 187.95348003448524 -84.70292207156527 M125.70385481702374 -8.357470055116359 C145.07071730819203 -29.725034618140693, 163.3118065386825 -53.09458475997786, 188.25236566991947 -80.41245666515783 M125.52416786319235 -7.790298277618149 C148.8473122396025 -35.44038215577722, 172.20128573514802 -62.01847702052012, 188.04365206233072 -80.16226634845479 M128.42101740730328 -8.040349160593992 C141.01163578166623 -21.642515266623406, 153.75060588163913 -36.80075101717058, 187.2184288341468 -74.33218997455947 M129.1225942739126 -7.666951244867363 C145.13770941154615 -26.305278873607463, 160.98499815366407 -44.492047604640106, 187.45754260332387 -75.55979809494504 M133.05930175771576 -7.8013815539395654 C149.19240882067973 -26.752794240769234, 165.5651232755702 -45.51515550277864, 188.51867989192635 -71.76670884346417 M132.7934145998428 -7.670683790773282 C151.6593956754403 -29.169101399565356, 169.73815064265114 -49.46109861045003, 188.12510599870728 -71.04654007244076 M136.8763531281131 -7.129669596068371 C154.93665115942036 -29.540103180269853, 173.7721598210721 -50.83168308686226, 187.99556622568167 -67.21489790582113 M137.22433129221827 -7.949898279926021 C156.5833027687389 -29.960594972339873, 175.8413412021744 -53.12349989602002, 188.44768073680655 -67.1281987246732 M140.00255197053662 -7.650864691152592 C156.6804693016495 -25.06971170756776, 171.542281758839 -41.30064612163649, 188.6333280521783 -61.88030250602744 M141.1163919899013 -7.556503974358656 C159.8286319463292 -29.14081232399007, 178.26906241621683 -50.93220810570077, 188.12569578429384 -62.086986615765205 M145.65648086079256 -8.321301173079158 C161.8080030282459 -27.03506591444677, 177.4537394471409 -44.342080250594044, 189.1487279307811 -58.112425112482214 M145.4060452955407 -8.144672254762156 C155.18389065114746 -19.51716145769475, 165.33057269905743 -30.688072212316545, 188.15257713961384 -57.17739540552014 M148.8019351420108 -8.001340655917442 C160.4802625147863 -21.415678730185558, 173.9496211350209 -36.69100418999884, 188.42971733931003 -53.04983221653586 M148.67723378998647 -6.876550401698913 C161.61181045309425 -22.170693929395824, 174.8064326068038 -37.115886819449535, 187.6543228660971 -52.751520090897316 M152.47134945304973 -7.870973717559282 C162.69345256845943 -19.21116266417392, 174.35138048803165 -32.20808437589678, 188.0763278144857 -48.654576814838386 M153.24080109136358 -7.349322615523145 C163.39360913602928 -20.579683293545877, 175.34414566232263 -32.89290280870642, 188.08000392341773 -48.40476925336956 M157.72754192232995 -8.416795252663347 C166.3553080147742 -18.350066948582715, 174.81158726824327 -29.105638433030872, 187.5152467328679 -44.2257338833658 M157.04988315572248 -8.31080154735652 C163.08105874616106 -15.578053206923974, 169.789119983321 -22.23784382458797, 188.1166230444435 -43.037667951222936 M161.24579511007678 -6.512172204046458 C171.31378906033467 -18.20319875340804, 179.86484999209645 -31.755530647926914, 188.13201953772963 -38.7510266943133 M161.0447677233568 -7.951580366106003 C170.5001198291551 -17.93971054649483, 179.29213624932518 -29.862062112066056, 188.45369898202955 -39.18871362353973 M163.97770473450387 -7.357017420668521 C173.09202587642127 -17.51944422563911, 183.3092239530374 -28.773019413267928, 187.5218601535986 -33.788651095406564 M164.39815479161464 -7.949434135231261 C173.81469360100897 -17.247603393292678, 182.1466899963341 -27.519672003323993, 187.4654289129302 -33.78625001559898 M167.55969557229068 -7.233006959902406 C175.72941631647598 -15.486475502368249, 181.18435808262547 -22.174786775156846, 187.66366044825452 -30.58496666011587 M168.87063094138514 -7.483335128491126 C174.00478639328497 -13.077663029266294, 178.52929254228266 -19.475921073950772, 188.0592876754846 -30.22772739695621 M172.36252168190552 -7.507304542408647 C176.51906977238923 -13.196892537578677, 181.02310365047504 -17.823942973577473, 186.84949466187592 -25.19975004447891 M172.67715246326404 -7.345593011410337 C177.95633426345094 -13.636883462462748, 183.6550419856851 -20.15395056783592, 187.56082656001396 -25.115875286171455 M177.17821600804902 -8.083552592006493 C179.70206716160737 -11.108079114401686, 181.50624938439472 -13.974607464506429, 187.5632650137754 -21.551072182963583 M176.71965990756598 -7.914122238846323 C181.0464275630387 -12.120521813983977, 184.4855519554159 -16.36726570590703, 188.17591463593286 -21.10187148195525 M180.98618704507274 -7.88382427485426 C182.64665621969655 -9.574847487988325, 183.70748252651967 -11.502753165821263, 188.20101140237813 -16.120967246879086 M180.4940550073146 -7.334779518675982 C182.67728838533594 -10.040193006680948, 184.60760686623232 -12.11433002205895, 188.06899649014045 -16.781113871805445 M184.59336890820654 -7.819315540324629 C185.79832649190254 -8.682347318046675, 186.25633300237038 -9.991206379375289, 187.9736743963067 -11.724548937165551 M184.71264362127366 -7.7533706136494125 C185.57043973963084 -8.795294981361673, 186.3719770048996 -9.534121988739447, 187.85997393920323 -11.473708543798324" stroke="white" stroke-width="0.5" fill="none"/><path d="M13.322057335029807 -7.2897009724059725 C14.350369062947593 -29.003138161101717, 14.021542120849205 -49.61637576246442, 13.358561021258303 -84.03149759163855 M13.741129509215972 -7.8785376818258435 C12.698178742692969 -25.466317426839076, 13.37503834552992 -43.206380500144654, 13.756342691301032 -84.94387559538302 M14.061749038819551 -84.67120000958634 C72.221198855401 -84.3721364349778, 133.42406203384982 -84.78980051225602, 187.61120412204434 -84.85330830543947 M13.696853731316637 -84.58081024004765 C56.93034492419195 -85.66793989204922, 100.81867015038382 -85.35956255282103, 187.77527467348685 -84.9955554404598 M187.63539066915814 -84.1111450279238 C188.61719330877324 -67.71209668120922, 187.02810237759596 -52.314497269603784, 188.03293726727273 -8.456575018823537 M187.40642385570837 -85.33429434974356 C188.27656924489693 -57.56939912149975, 188.42071170476422 -29.881664396442737, 188.03104030590737 -7.990592625919911 M187.1540672296104 -7.900044373832478 C146.24960001587914 -6.990224423246808, 105.28572461239747 -8.176383410252173, 13.774246333690506 -7.819683998776101 M188.23681962406434 -8.16777099239352 C131.91153935061067 -8.073114342756652, 77.27727663788009 -8.04622389648108, 13.048996628892274 -8.268133781672136 M13.3 -8 C13.3 -8, 13.3 -8, 13.3 -8 M13.3 -8 C13.3 -8, 13.3 -8, 13.3 -8" stroke="white" stroke-width="1" fill="none"/></g>
<text text-anchor="middle" x="100.54" y="-68.4" font-family="Times,serif" font-size="14.00">legend</text>
</g>
<g id="clust2" class="cluster">
<title>cluster_arch</title>
<g><path d="M8.20904575398474 -145.24047963104775 C8.20904575398474 -145.24047963104775, 8.20904575398474 -145.24047963104775, 8.20904575398474 -145.24047963104775 M8.20904575398474 -145.24047963104775 C8.20904575398474 -145.24047963104775, 8.20904575398474 -145.24047963104775, 8.20904575398474 -145.24047963104775 M7.840816366909503 -140.3677188879683 C9.568964565462494 -141.8108763946875, 10.788166694323259 -143.9467927531287, 11.767930943168249 -145.07240460791817 M7.773832428078811 -140.12864551899833 C8.911086033240123 -141.49610405452037, 10.065703026144208 -142.52331795125428, 11.697814961441317 -144.63544253130837 M7.971017643122605 -135.67949297851672 C10.336858584900167 -138.1567209039057, 11.829028415119886 -139.19010255976167, 15.745883653070937 -145.30766913860376 M8.012951034028232 -135.94067415110777 C10.516269213176173 -138.84196825149408, 12.668903890386627 -141.33709269666937, 15.750330408397058 -144.8407343718745 M8.161625307343792 -131.14963863466517 C12.538086747095182 -137.31006009235642, 17.665944857790365 -141.80013394523647, 19.916425840683836 -146.13897924000918 M7.5891134016678725 -130.62713762233847 C12.197084768544553 -136.15601587172617, 17.717713773845606 -141.67769765874402, 20.085248173671445 -145.0101916969407 M8.289760608679948 -125.92876109374619 C13.38651354353826 -132.14518461070614, 19.334739227654776 -137.85101719957126, 23.34979292842046 -145.5867936464214 M8.387636247219257 -126.88328574652537 C14.033647687682192 -133.57421836224339, 20.322390511905688 -140.7577723243682, 23.631874473805368 -145.08469316625693 M8.0430552941608 -122.2161170064991 C13.835953718746781 -129.77516724020788, 20.351794008134814 -136.32773369044585, 27.09297100472564 -146.1534813840066 M7.382268505641662 -121.79273621223133 C13.616697418948782 -128.48618050083144, 20.0766076822448 -135.56224011786838, 28.48603560314398 -145.0297835071353 M8.293516057099852 -117.59759877751173 C14.653095137930189 -124.98551998351842, 21.041771734830697 -132.88038838624186, 30.839210445607375 -144.0866695266036 M8.106443040299363 -117.45279186793532 C16.67483062800498 -128.022233605491, 26.455328414306553 -138.61202030839482, 31.52861767858925 -144.5867374532085 M9.072815179020221 -113.68934670450864 C17.234492536472406 -124.03251683080741, 27.758781679654156 -135.46696657326024, 36.17717497685351 -144.17312668496584 M8.420411340124291 -113.72620574446638 C14.892018954688261 -120.22110914386296, 21.069546715846734 -127.51251091922227, 35.47480688120313 -145.46607150999702 M7.821012745145534 -107.99614594670398 C14.342414117916272 -117.50362811631321, 22.24484819885402 -126.05448081510191, 39.13104959310753 -145.27455747152288 M7.606442075731511 -108.48402870873463 C15.644996317226946 -116.9571156773236, 22.413488159296982 -125.30062048862438, 40.23165308701213 -145.07207513632903 M9.111416195907351 -104.4299217796847 C22.20747260224559 -119.42289719378334, 35.14863504160898 -136.1313971854348, 42.697439726071714 -144.07248019594186 M7.757860491161217 -103.99648248681144 C18.415778948471807 -116.06911302971778, 28.126296092437943 -127.26547984097142, 43.883834577125526 -144.61000139252695 M8.056143307274558 -99.77260565472358 C18.91837349920731 -111.4546850673057, 28.724212586248804 -123.80929800581632, 47.41922355188826 -144.6749372619793 M7.86875124762039 -99.51070669718032 C24.180077919268307 -118.13424054377299, 39.38886931925696 -135.917954574379, 47.60764214326899 -145.30179934430436 M8.105925824514035 -94.57443859593802 C20.98748702165721 -110.06687035186233, 36.48832616267872 -125.61823986281314, 51.5683800732308 -144.72221397650534 M7.789034156470175 -95.34883857137342 C19.108814823939877 -107.53619426634998, 29.08385045779029 -119.48353145275553, 51.651316935680086 -144.23306542711362 M8.964478921962016 -92.03088072105139 C22.620690555556948 -105.12423392469425, 34.83336199749304 -120.98360526412709, 56.55943621979277 -144.6413335754384 M9.184714409811322 -91.04166453161729 C19.298886503031873 -102.51381585258926, 29.54524999828552 -114.09085998927269, 55.53294437954098 -145.11121193935392 M13.311533023988744 -92.09429854694652 C27.74074081817215 -108.104049173935, 40.75093004365628 -123.99798310002723, 58.99146707853328 -144.33077188574578 M13.230526874679349 -91.50241693817496 C29.778492654487767 -111.14326221411449, 46.74713776528974 -130.29939903961633, 59.80642178491369 -145.18637553210235 M18.458613874692844 -92.4102667897843 C29.221250786245044 -104.50167768642068, 41.85866153573685 -119.39399809957035, 63.80156667950456 -144.84409045294746 M17.770253971473455 -92.14861818015986 C32.21327528790993 -107.9943263281865, 46.57533306107524 -125.33098311251547, 63.28619814893876 -145.12883684905273 M21.52972742524335 -91.47991314610992 C37.02355202892152 -110.02905787028025, 54.37773620802259 -130.44540881560846, 67.06450115148787 -145.14942634250875 M20.803124006416038 -91.36498642707078 C35.98654528691068 -108.9276785118734, 51.04588797931471 -125.58181324208142, 67.87475615041565 -144.87222599402034 M26.06340344539607 -91.94788919006385 C34.08048893526245 -104.01611958680127, 43.89922844475654 -114.74331268475329, 71.99259404882305 -144.01416922047176 M25.248733545870575 -92.16841058760257 C43.64936163013746 -112.11430068447028, 61.07135738860552 -133.02723177542478, 71.28295039066838 -144.73767685908513 M29.208225762374223 -91.37310939427509 C47.67376741621122 -112.51040951404192, 65.40542005912481 -132.92734774521247, 74.87149200225846 -144.8451480888133 M28.735221155163533 -91.54221337961364 C42.63487937132757 -106.6371786576757, 55.76020495860832 -122.37542999421795, 75.8911213991312 -144.97482684329182 M33.17724268519978 -91.12000816393413 C47.214360153410844 -107.64481123897129, 60.20401785196608 -123.23127994431363, 79.38051399548303 -144.65183892840835 M33.47406006304806 -91.61943073142686 C49.179316566673464 -109.25999186804445, 64.0008725434702 -127.29936265942206, 79.75321505676453 -145.30849960127833 M37.82793896422353 -92.2957678173785 C48.11052015376654 -105.97846959096279, 60.9055578615821 -118.03886923186911, 82.71228923603891 -144.59002618844647 M37.24264283502143 -92.24578020804894 C47.993665745408464 -103.99821042146303, 58.85632371759255 -116.1912402029549, 83.34215084111975 -145.13165162075558 M41.52175026789309 -91.54723119462786 C52.109016417799246 -103.710095505725, 63.84360189780081 -117.2476960563108, 88.47883612306947 -145.11682982989285 M41.49585082534092 -91.384015876512 C52.48713050230279 -103.92482389352307, 62.43317604728269 -116.63903649952444, 87.7473809706843 -145.37294280805034 M45.92338835803847 -91.74480381695244 C61.183054883731515 -110.05807688017585, 77.13576990486769 -129.0349615923423, 91.20896601095117 -144.29362227503992 M45.118268179527284 -91.46957422128372 C58.347920226254146 -106.57026959310076, 71.65372138205827 -121.68394019164849, 91.23186000997109 -144.28057981075287 M49.050024549150116 -93.02778001129002 C68.15678910723808 -112.35445710935048, 85.65436074182028 -132.73528725067, 94.59169591566973 -144.69645954383253 M49.2183747764618 -92.21495284350263 C64.19708276039006 -109.26711436496913, 79.64466867555583 -126.1257297583395, 95.27738979687967 -144.88218187032783 M52.64334005674683 -92.50541273120584 C70.27288657759571 -109.91433868998494, 86.4531762773327 -129.77350111839274, 99.34566670725297 -144.93329811272645 M52.7466167542012 -91.64958424383816 C64.87789150344724 -105.1659664864082, 77.21491583805552 -119.26524491012876, 99.74890420890316 -145.65428455022 M58.18808619205289 -91.45812367927677 C70.23378507837411 -107.02427297958134, 84.20012408644503 -122.80915619895481, 103.52760321742107 -145.59318835753987 M57.77626259660131 -91.83110988098647 C72.60248616551004 -109.66430946330446, 87.58493538263727 -126.44967227181571, 103.38138357157732 -145.12384291614399 M60.46637408979319 -90.65264789625748 C73.67689836591295 -107.9511112528902, 87.13496083350017 -121.98638918321555, 108.20930173346358 -144.70239405112838 M60.79757415402464 -91.1329615924987 C76.87164116613239 -109.9489795017542, 92.14936142395605 -127.77516003444175, 107.66218088962444 -144.94145507350683 M65.72161979597018 -92.04002150342937 C82.50708802510835 -112.79729632704274, 100.84255554055596 -132.16465250589624, 110.21493259691955 -145.28350541233317 M65.17152972513529 -92.10961307338016 C76.67244321300785 -105.64544446986585, 88.79668600070978 -118.91765068299253, 110.83506244655392 -145.10530485374858 M68.80951775807692 -92.10949596517625 C81.5854763136379 -106.6925216980295, 94.11360447897518 -120.1164747543466, 115.23871068042239 -145.90624902691448 M69.33010130564955 -92.20091633518938 C81.07521884920077 -106.02977968490895, 92.87087542328143 -119.48022558665546, 115.68033396025544 -145.12600374075404 M72.51498089546135 -91.95738452314566 C87.3467813271484 -109.19034891589492, 102.80674520203281 -126.10743395475157, 119.71752947937311 -144.9235987620484 M72.55638966173952 -91.33637206799673 C87.98465632522829 -109.25413524190489, 104.25908021256119 -126.97093925460729, 119.10809653828511 -145.1417373929778 M77.9954471540196 -92.04263652945995 C89.93895634622713 -106.47088641098217, 102.17994418767876 -121.53853898902996, 122.91595273746957 -145.6398483800011 M77.24750162033374 -92.24566982794674 C89.67841547728636 -106.08426991613412, 102.02627618821263 -120.59410540148207, 123.07240588092273 -144.38682198788402 M80.01000136583916 -91.67415759551108 C94.18564520753843 -107.39839863495247, 109.81038722329166 -125.25549104852932, 127.07600511835534 -145.13490569111966 M80.33717386448922 -91.66945144284688 C90.59249830342193 -103.17697934964531, 100.01138536164022 -114.01356887324783, 127.26821076097252 -145.4560141439523 M85.9241833384485 -91.40550553490215 C97.9989783573659 -106.29004503357169, 108.86969713112764 -121.21665408435044, 132.29638610324923 -146.22466949931763 M85.09670107134389 -92.07543028891135 C97.11409898450339 -105.7355785440863, 108.99812014664529 -119.3355004201824, 131.5477610288204 -144.86569262009775 M88.74652686767108 -91.77514644550004 C102.11937055649105 -107.72680853797402, 116.06592778084975 -121.27120304226028, 134.14407128038062 -145.52872851053263 M89.44151057635084 -92.50809385961082 C101.85756535183725 -106.50982001755428, 114.42265954824438 -120.69536233477429, 134.88749917299444 -144.62623496499606 M93.44112851654614 -91.86609249677936 C109.38548025750173 -110.95057255323707, 125.29640609886644 -130.32088555309008, 138.72633767384778 -145.012171146456 M92.67542383264986 -91.14125325374962 C102.49901404642586 -102.35901934530696, 111.6965111436045 -113.63556728617438, 139.26763948354105 -144.86352736045288 M96.62272376911473 -91.75415262481904 C107.21631026285694 -104.25620097054014, 117.60503644144262 -114.46958732475636, 142.6568456268636 -145.30054145176618 M96.80552267326124 -92.14994673205061 C109.498462291139 -106.73292010316396, 121.59428320105906 -120.43865108925738, 142.74211417685214 -144.63613177214845 M100.79364034553934 -92.00367372703624 C112.1055663758505 -104.97510843094834, 124.151227047688 -117.57038107355255, 146.33215787267923 -145.03800274987142 M100.67365298616002 -91.34912078995615 C113.1029125533255 -106.7515943237544, 126.71854773333195 -121.67318264537333, 146.68976830611277 -144.976814821502 M104.14669482398982 -91.57179698657062 C114.78255481838693 -104.31791630637053, 125.79605418902693 -116.94890373994001, 150.50831890608018 -145.45076677619483 M104.470076655688 -92.1207397795715 C121.33107449544816 -110.5221739842584, 136.8226637213473 -128.32316888161486, 151.49107716746482 -145.10227334638947 M109.29585457910086 -91.18002338586831 C125.39824561973556 -109.79582981760674, 140.56384221204448 -129.32813353783004, 155.67325897824108 -144.28812022000702 M108.8881567032468 -91.61576247337317 C124.93498267472226 -110.96968521921629, 141.4655103891904 -129.66498371292082, 154.4650974363826 -145.12102016581767 M111.8539617834205 -91.40117476289313 C126.74182243458749 -108.04788222206551, 141.3309455122219 -124.78789489903917, 158.6664932192725 -145.2376210024156 M112.18614587508999 -91.9695410246436 C130.33430635028293 -111.6575731012351, 147.25207688515542 -131.34134170958237, 159.0043608393027 -144.80591236166794 M116.8360149202704 -91.37215499987977 C126.61676677956963 -103.59017306590829, 137.33087917935703 -117.24160095528676, 162.49696415977783 -144.5648194153287 M117.06909959824858 -91.46926774311885 C126.36914482377887 -103.08250841840483, 135.77377309125708 -113.88506735367042, 162.45994894532262 -144.33886380507442 M121.03160066900077 -90.8829944690063 C130.39281195765633 -103.31030263757752, 139.72768758625398 -114.71318281489879, 166.85727469645693 -144.23664407593222 M120.31002633653772 -91.18371143972219 C134.15258177502915 -106.9531940600173, 147.40544514826667 -122.48908881970901, 166.70370056740492 -144.51675523853748 M125.2175002321649 -92.36104814957221 C135.4417694849766 -103.30016912368647, 146.76710679794974 -116.81116022514134, 170.70829339052185 -145.6125710634755 M124.76242685500377 -92.02742096189705 C141.62992959708615 -111.20685345845534, 159.11770183341216 -130.44264748330843, 171.6838778044095 -145.11219435205894 M128.17086498298752 -92.6808476928219 C145.3728150121875 -110.66802636715362, 161.8249660630012 -129.56734226610075, 173.9425006328405 -143.8999367738272 M129.28689980384158 -91.80385973822366 C146.9676208728056 -113.24618010113811, 164.69126580088022 -133.55513345377256, 174.98696598232732 -144.53622550846336 M132.2595743705341 -92.13279449938703 C143.06768266100661 -102.71806198243468, 152.21735390979018 -113.76559374819563, 179.87711203188712 -145.36033736533807 M132.27486373775574 -91.83818312043037 C145.24170877119545 -106.01250931127692, 158.71569200606632 -121.43134979282276, 178.70490978265195 -145.33358168278397 M136.3877859221667 -91.06171825567354 C146.74807507669826 -103.59381070733768, 155.9868800373538 -113.57405780683644, 182.0670798598745 -144.44412933006157 M137.08683573178422 -92.24033798284005 C148.46138750637638 -104.3495641259902, 159.57494165522317 -117.57442227824556, 182.49656898374099 -144.21363093040637 M140.0818611142762 -91.75350393469623 C154.55578569839784 -107.12694254268429, 167.29243795285694 -123.66324069574947, 187.05338479193438 -145.9062940052705 M140.06285970745253 -91.0601537501983 C150.8666069093263 -103.00527016020237, 160.439237511934 -115.18624538206538, 186.4158712142467 -145.47345358499206 M144.28107900524174 -90.78957892799743 C161.46404424012567 -111.98762047199851, 177.56641009961115 -131.4389921298487, 192.03347109722156 -144.42632876474744 M144.4822397980689 -91.72772911246346 C162.32698946407575 -113.13427187248502, 180.71029334434238 -133.85296471446748, 191.5088990962947 -145.6574851948122 M148.76793167413746 -91.44456974475374 C164.05180716924693 -108.87319785869758, 177.72000525260842 -126.06052897284562, 194.5593349050569 -145.7705230924626 M148.59699004945304 -91.64802368329958 C160.9754431311102 -106.30642962175664, 173.65608210128408 -120.21653283615298, 194.268332195592 -144.45618613940735 M152.9421340574779 -91.0217939432097 C164.66876206546706 -106.97962082845203, 177.84309773260728 -120.31413395172103, 198.88830538414805 -143.68330171285254 M151.86711761060639 -91.03052690238133 C166.74447240159273 -107.62230808428893, 180.2884323046417 -123.71803149915407, 198.38162364634888 -144.7074505843054 M156.6522980764397 -91.43887298282971 C171.64308180525177 -110.79795917615137, 187.7621365083563 -127.91279566207058, 198.38126780045556 -139.2690527536466 M156.87578621466187 -91.56104164837056 C168.7992683095714 -106.2273100919735, 180.96001218610726 -120.80052535717493, 197.96987744907517 -139.02951989023853 M161.32514986238206 -92.66151598556122 C174.8505566745564 -108.01532724761789, 189.00232066430158 -125.36957997251102, 198.96607402270604 -135.61631213856816 M160.3214191760152 -92.58428861124496 C172.35197702347622 -104.63448121452333, 182.96273376191843 -118.13928091527225, 198.1982507726865 -135.05264859911065 M163.4101612001959 -91.59874663634533 C177.85905955841915 -107.13759299928573, 191.11317011447727 -121.62267984345043, 197.10120975617372 -129.9767135455499 M164.60009793893198 -91.87145659015098 C171.34529079049847 -100.03326148306431, 178.5062241473801 -108.46721064437745, 197.9468630312175 -129.9565565953883 M167.84531191376388 -92.82840990461251 C179.31561885785277 -104.94525798431972, 191.8848387916501 -117.67784082765105, 198.9650445517041 -126.32477903307212 M168.10325763618383 -92.35399567614189 C175.9315415388435 -100.04855659432653, 182.66744435163045 -108.27511882494483, 198.57037190445956 -125.83484216966369 M171.6160933875581 -91.78011445987056 C177.7351219334467 -98.06947807085781, 184.14675012309434 -104.89541487541632, 198.3283228560478 -119.98429816876838 M172.35103255619018 -91.50986689338548 C181.20706153609532 -101.61204052304784, 189.4008789613537 -111.428417826608, 197.79650638846059 -120.49558361045794 M175.43534758893634 -92.47329164355251 C184.35339593516386 -99.69157637988789, 190.18016527154668 -109.64327125681967, 197.76419791967132 -116.82016569443306 M176.2918052222136 -91.61212091326196 C184.28111777495326 -101.45680062329247, 192.54689771393183 -110.95295388859383, 198.38480258329344 -116.92336321097477 M180.68312788288713 -92.86717616052954 C187.28120319239474 -98.71327314192696, 191.3116059488659 -104.70791302976087, 198.0792018322372 -112.1947511988695 M181.02877302459902 -92.05069250911372 C185.4274103614695 -97.39511204870267, 190.10283698287375 -102.53203579881851, 197.747103600023 -111.24130722528056 M184.4341386310563 -91.88990997568322 C188.78089200567587 -97.69982070030214, 194.2160169106194 -103.33011319358256, 198.31297343724285 -107.21250454068027 M183.7573130934522 -91.99249834138409 C188.4785495869407 -96.06910307222512, 192.7457775710471 -100.47604273141762, 198.4269562699302 -107.70862326196026 M188.80522955772634 -91.9222835164453 C192.49683559580643 -95.47325331753974, 195.29880640131375 -99.9010613175018, 198.0495772120492 -103.07290746025312 M188.8055070272254 -91.57102371868244 C190.44851654745972 -94.4964342954961, 193.37844128497318 -97.0056601817005, 198.59343850881197 -103.33573446558552 M191.6662487749665 -91.07685742586948 C193.3791044816973 -92.7799260318219, 194.9362874857588 -94.56508272837767, 197.94490957809097 -97.96946125916666 M192.06391431611067 -91.43727876538202 C193.93177920660784 -93.66724813894088, 196.10695231445848 -96.26753193877201, 197.89922213096725 -98.42125824392448" stroke="white" stroke-width="0.5" fill="none"/><path d="M8.055391625619567 -92.46558017329883 C8.310126500025536 -107.66587957887351, 8.166510286191752 -123.01532181217227, 7.249535378267661 -144.56900833055488 M7.8129325155671765 -93.24556887804334 C7.582620753705366 -110.21299643566796, 8.364304841867433 -127.8948498870975, 7.553152038562242 -145.19503044522187 M7.9192915298645605 -145.50621770730206 C68.5929691224026 -144.83543470189886, 126.8354279680963 -145.51295717637245, 196.2370817881223 -144.18549852749626 M7.655602661364433 -145.00998947695405 C72.55284466180711 -145.2491452053004, 136.7355722391569 -145.16086244217178, 196.9468735366431 -145.01798412998207 M197.2741967648536 -144.080624383134 C196.68818706331325 -129.74333501761143, 196.3545726379505 -115.70158399403763, 196.79060546350834 -92.15896201065523 M196.5106674661236 -145.48049823846418 C197.07284985649719 -130.27633219893258, 197.42505727682075 -115.70206266895934, 196.97345620353406 -92.66866509311417 M196.04822247058178 -92.48387771361067 C122.52486742017761 -93.36126502350498, 47.61360613422438 -92.9462390132001, 8.832535987726335 -93.60423823136952 M196.78915094083612 -93.4340118346819 C153.0316081130181 -93.28523639452668, 108.13867769677437 -92.36256499339872, 7.560951669136336 -92.9096343989143 M8 -93 C8 -93, 8 -93, 8 -93 M8 -93 C8 -93, 8 -93, 8 -93" stroke="white" stroke-width="1" fill="none"/></g>
</g>
<!-- Api -->
<g id="node1" class="node">
<title>Api</title>
<g><path d="M21.156352274440756 -51.834752194747495 C21.156352274440756 -51.834752194747495, 21.156352274440756 -51.834752194747495, 21.156352274440756 -51.834752194747495 M21.156352274440756 -51.834752194747495 C21.156352274440756 -51.834752194747495, 21.156352274440756 -51.834752194747495, 21.156352274440756 -51.834752194747495 M21.68083024553983 -47.64021337636867 C22.547459781086967 -48.92796585580488, 23.497335207367552 -49.62812552854635, 25.654631568335056 -52.18027686198277 M21.475565191634388 -47.68702128390497 C22.891226635718425 -49.17061424838008, 24.096360447384008 -50.55838172614721, 25.490704021695475 -52.22032831645469 M21.40413191743687 -42.36803816991855 C24.18208763910285 -46.1408350169518, 27.0426354283889 -49.517655332989655, 29.52860642226081 -51.620516185756664 M21.333379021436258 -42.5195869702216 C23.75422293913237 -46.09308190767714, 27.02636413221073 -49.41445423253161, 29.020199350424296 -51.92619540554233 M21.035872628202263 -39.053059435244506 C24.11086350426955 -41.341621191456866, 25.785001343384614 -44.53368186356419, 33.76343076127889 -51.68847144303722 M21.36672827994697 -38.013411829367435 C26.42542416061373 -43.74938285329625, 30.67630319994872 -49.27646487237768, 33.62031007467272 -51.86828812648062 M20.763539881184876 -33.64181583090462 C26.945360869956207 -38.606113464811656, 31.773829883938227 -44.628599569258114, 36.523836268984034 -52.023584590737556 M21.332045784648873 -32.9117871910799 C27.22899673052285 -39.703717011847154, 32.72470286241963 -46.526774639034194, 37.10154474129616 -52.5909636241667 M20.404853188124687 -29.67373630214056 C28.311060902712736 -36.45103058391587, 34.54474169561207 -43.86262874466801, 40.73941649037962 -52.179202828578454 M21.488632721056437 -29.480153374327543 C29.310251559055065 -38.05047533612582, 37.04780970795214 -46.90993097116748, 40.65078627869955 -51.40223947256502 M22.42497433879977 -25.568958522846856 C30.00177523787888 -35.3015566386921, 39.627102135703716 -44.75668607603652, 44.74787868072285 -53.09080363590414 M21.567663333015467 -24.99134883079126 C27.09939568106257 -31.564389710747072, 33.49105939173751 -38.080622885229076, 45.38056146216674 -52.39456994114047 M20.782416482702537 -20.877356050014594 C29.908217004149158 -30.96740392098164, 41.14482043101638 -41.10543687525367, 49.10192092642433 -50.878211027757715 M21.472562149848848 -19.949895807974507 C29.72475415639811 -28.645075863119875, 37.008380451489444 -38.13783011795694, 48.60684249800715 -51.56965299047679 M21.06321720557878 -14.794793359585137 C33.07725177446168 -28.587514977999483, 45.230498436914225 -43.308066107656444, 52.76386085720857 -52.40021956012394 M21.618172686987165 -15.23481170421071 C31.1569144003496 -26.372434607197512, 40.19714642691379 -36.319981981119376, 52.89266182358304 -51.96557020548375 M26.272691965391413 -16.514963279952177 C31.963568436523772 -23.534396115044242, 38.88988262985732 -32.09566619937906, 56.86895063325723 -52.17874639506168 M25.992457477151444 -16.22639033763569 C35.679684448977234 -27.871633650714273, 46.64964475326613 -39.3019932861233, 57.63052524423919 -52.6344711821846 M28.77841167213364 -15.830240095066998 C36.59940847598837 -23.5711606162963, 43.923804530736916 -31.096402895609817, 60.85392111413635 -51.63687218772553 M29.181112948713476 -15.510559265389466 C40.388468075966856 -27.575271756964, 50.49367194492197 -40.24119178938891, 60.39152016562173 -51.83252567093931 M32.92007053565104 -15.049089505813452 C42.177328306799986 -26.370810761571313, 51.036449281338626 -35.3162088448535, 64.66519378156148 -51.20687149628293 M33.71015215772061 -15.46403604207042 C42.92544452987952 -27.343006570295405, 53.19855339373356 -38.061419568034445, 65.22829201732145 -52.47714757974992 M37.399830663908034 -15.764629763730289 C45.134767161594816 -24.038822458859674, 52.39941305058566 -33.397078901939686, 69.18109221585092 -51.73739548029008 M36.93522764518865 -15.089733584767199 C49.28390156512606 -29.503893120501168, 61.18290673081315 -42.85265018752376, 68.8591332656033 -52.53767761752432 M40.747362078832055 -14.699047269852956 C53.954650793361076 -30.0760777736061, 65.48818952039993 -43.9410734725021, 72.20550831808848 -52.13103721557045 M41.85274178939566 -15.433465637417058 C53.539312790013604 -30.14593526751061, 66.68566156725183 -43.58004021315075, 73.08093063272922 -51.52801400551698 M46.028318436898324 -16.781149518134043 C54.02923145880986 -27.289631716923676, 63.92635904007948 -36.739621674562414, 75.52625000801066 -50.60078991090811 M46.02267084875197 -15.631209878601858 C53.799478426089195 -25.701560137301108, 61.933723106270754 -34.73674046464279, 76.32960351406349 -51.24798300594322 M49.49210561678897 -15.805187740736466 C58.00159293911888 -26.684122782649872, 68.2085566237935 -37.52577609676327, 77.06639120092315 -46.33518366538507 M49.51315115930866 -15.37390399100836 C56.76353383926603 -23.5041789474878, 63.55755153598903 -31.885155445256654, 75.7902061359587 -46.05340566702885 M54.423107545471325 -15.589613609338102 C59.97272655174129 -22.805957281887263, 67.54263401489887 -31.755008880055357, 76.50884535645969 -42.00934579585234 M53.106897093962246 -16.1424075625741 C59.46056626383798 -22.271763746695825, 64.17001974980805 -28.252325101371007, 76.06602118347519 -41.76742799950254 M57.57158042553024 -15.721312323894594 C62.49978577420859 -22.96084139439223, 68.43367586460042 -29.498294163993883, 75.10321080017617 -38.09645252319071 M58.01243197637127 -16.190818637547082 C64.21629461959147 -23.743997465613823, 70.62817243054613 -31.01761583063283, 76.39449852515618 -37.62482677131889 M60.96666501509466 -16.310836278938726 C65.42733041045766 -19.28362672008472, 69.30395160404493 -25.65249658373866, 75.8141384410943 -32.08006290069181 M61.076413015076774 -15.837686992387617 C64.47485825314291 -19.487719711992135, 68.40418369231433 -24.05527409590024, 76.58576796776747 -32.76072968447185 M65.88440235830818 -16.393404814809227 C68.82210030515067 -18.996425326990508, 70.59386525808803 -22.487832831114517, 76.3301195385288 -28.797771452470315 M65.39504862902001 -15.644491191358627 C69.09667556474862 -20.65103304811562, 73.48200569243136 -25.21825119448263, 75.82463059534751 -27.66846760194873 M69.1997156587203 -15.395529523809321 C72.18882487933152 -18.27950312226431, 75.07949776608592 -22.497222257933338, 76.10731131071454 -23.730603119478015 M69.24862988169443 -15.34859636929522 C71.58368919996187 -17.97471377260581, 73.79966862535169 -20.44626613836069, 76.25736542130804 -23.650305095914852 M73.13302554264338 -15.757235767463646 C73.70184092323579 -16.267660880828807, 74.50969599505743 -16.86373533615425, 75.83863035546209 -18.767879711038916 M73.30571887345182 -15.762654735758733 C74.04807366573277 -16.63835145813171, 74.82631794475027 -17.38750906572709, 75.99661876261592 -18.72429235166228" stroke="#3bfdea" stroke-width="0.5" fill="none"/><path d="M74.60834963763303 -51.3588377704722 C55.110169640071014 -52.089612916577344, 36.561518704348174 -52.70729720868331, 20.78379673724284 -51.02253297824471 M74.94315630992661 -52.27128237570217 C58.881008445600756 -52.26214023491556, 42.45930288935008 -52.45115119997068, 21.744075338098543 -51.556955919837414 M21.160482758440782 -51.725137243789916 C20.512110424174555 -42.20019654043959, 21.711385103722787 -33.523513074974275, 21.78852165910073 -15.822855227317111 M21.56666723351076 -51.523790183561374 C21.661651856484248 -38.16115710674977, 21.07048802623987 -24.68084730144493, 21.16977903221191 -16.2105688617935 M21.57906143778896 -15.443318349269843 C39.7918970397892 -16.6187454971406, 58.265051504911696 -15.447532073317193, 74.69576547946471 -16.16868266808737 M21.465061879916703 -16.185502667800282 C33.56371483362882 -15.674118182415627, 45.21605487198583 -16.2951135346256, 75.44856117602917 -15.691701241179516 M74.74560051541248 -16.46411384336114 C76.17205484329139 -23.355810068382915, 75.65757265491524 -31.750589718675453, 75.80828873243769 -51.37118000407249 M75.32820011479424 -16.021348593975855 C74.75345687775031 -29.23530923969336, 75.16048466607378 -43.76496927469695, 74.94847725166171 -52.46062505112222 M75.3 -52 C75.3 -52, 75.3 -52, 75.3 -52 M75.3 -52 C75.3 -52, 75.3 -52, 75.3 -52" stroke="black" stroke-width="1" fill="none"/></g>
<text text-anchor="middle" x="48.3" y="-29.8" font-family="Times,serif" font-size="14.00">Api</text>
</g>
<!-- Func -->
<g id="node2" class="node">
<title>Func</title>
<g><path d="M125.93482806893958 -52.17810931905912 C125.93482806893958 -52.17810931905912, 125.93482806893958 -52.17810931905912, 125.93482806893958 -52.17810931905912 M125.93482806893958 -52.17810931905912 C125.93482806893958 -52.17810931905912, 125.93482806893958 -52.17810931905912, 125.93482806893958 -52.17810931905912 M125.66994349866465 -46.9132078935193 C126.53186027872171 -48.7660910995703, 128.3274022906213 -50.09247336643622, 129.32687524567936 -51.548123496314886 M125.5279082938559 -47.0847245863439 C126.81756284363522 -48.71241785909742, 128.12577809241708 -50.2060744912906, 129.45485261625558 -51.83898310176033 M125.43498305575136 -43.20526670450836 C129.21503871810307 -46.93232345083536, 131.46997470297023 -49.91309888732168, 133.16102562824827 -52.08749207084101 M125.68820012816987 -42.86291756243673 C128.3816257930534 -45.91855240436981, 131.04495406490847 -48.67514006923772, 133.91481149206984 -51.92030645644516 M125.49696026723139 -37.94854757975514 C129.18099425349305 -42.765714473346954, 132.98893745433432 -48.28748821678226, 138.50715077886287 -51.91060584340926 M125.44172944923436 -37.51604126335621 C129.7015889752162 -42.658076554332084, 134.43972631382252 -48.44870964334443, 138.39212727863426 -52.77847535317539 M126.35387938701528 -33.378921996057244 C130.9988659647663 -40.636414124970415, 136.5353018192021 -47.14209490557754, 140.75343221527515 -51.61763455865646 M125.39688374838993 -33.388809594768134 C129.5466724790093 -37.58570735479773, 133.1722651492234 -41.92380706028027, 141.16858921995674 -51.49671132409974 M126.50817887360182 -29.227316208154246 C132.0873668036965 -35.31977995398906, 137.85623620323275 -42.6697233258697, 145.25537950866052 -51.604170213451184 M126.00053853589989 -29.717745977795797 C130.04544501115134 -34.316695789634934, 134.6773313832609 -39.49440914407142, 145.87675851569978 -52.55776926209791 M125.7263431527717 -24.832808292327066 C130.55739283164888 -30.597605616424975, 136.61575538159306 -36.82521776726647, 148.68219073636035 -50.733283054622184 M125.57419347833452 -24.612847622222557 C134.5738471152703 -34.62306997696612, 142.9361516662173 -44.35511792056281, 148.97990550649138 -52.06424295810213 M126.85530096338556 -20.872134969434978 C135.85706744434398 -31.139502943785022, 146.07339699885537 -43.76647136087534, 154.52620724700407 -52.49267531346658 M125.76986638374589 -20.08260792964915 C133.5941052887626 -28.51494147478006, 140.78606380409838 -37.666411707911216, 153.75971385860527 -51.8784568894678 M125.94661173138383 -15.504541318758177 C134.2085802319634 -25.221388015391533, 140.16363120208518 -31.83078132638413, 158.10468808457782 -51.60236964795057 M125.86586433136097 -15.802324520624078 C137.93791652635593 -29.077394955750623, 149.03978222701727 -42.44724762101453, 158.0977506999389 -52.67899614759018 M130.84793106488902 -14.72427081861508 C137.57533327490188 -24.025960062401065, 144.42993219031365 -32.23111842782586, 160.83668331796952 -52.62605307291273 M129.4916749347088 -15.516785356192717 C137.47816039445829 -24.806798481222554, 146.1042436590179 -34.065499207635966, 161.32285907856948 -51.999116549083645 M133.20251455693125 -15.111361090505309 C144.5074142187118 -27.4294235692767, 153.51221344444343 -38.140636187443924, 166.5469799337783 -52.7019111964528 M133.93539757970254 -15.901148761552854 C144.02268090397646 -26.85239256573473, 153.31098932688056 -37.609303283565225, 165.1891759417666 -52.405349644628906 M138.015284491117 -16.01857681774461 C147.661565766171 -26.711165987487572, 157.57564636064836 -37.27986268379766, 170.1080790648896 -52.44108765657542 M137.67484328937886 -15.625491835932209 C146.39423156099716 -25.06193332191056, 154.72937536894563 -35.249146313571316, 169.5050663099426 -51.45034913827758 M141.41615278037787 -16.305254862507347 C150.41527249317204 -27.30281619487034, 160.3441607670479 -36.19862002456167, 172.58183072884316 -51.89212670661573 M142.20028711319597 -16.14949279552921 C149.05447889234352 -24.42197043732537, 156.70704822116022 -32.463245982496964, 173.7710692868744 -51.808013007891184 M145.41640311831637 -15.463439561369471 C155.70825531488154 -28.35018700191377, 165.17088897234402 -38.95744139239366, 176.8368401451353 -51.735480928264124 M146.3776968336729 -15.95886250706507 C156.411329451046 -27.422830121208925, 166.45274267151416 -39.48326059208306, 177.23383829188734 -52.65644263714041 M150.00570243875697 -15.016189172251336 C156.44331741011575 -22.33199775723636, 162.27146200402603 -29.40790838470612, 181.44611670150246 -51.011677038065706 M149.4178137377969 -15.17668221391729 C159.95776845376756 -26.66668769750698, 169.18812614713806 -37.68766612517416, 180.92529767320627 -50.68013083358813 M154.10593076062804 -15.378510074694429 C160.88240807822194 -24.82031671575143, 169.04858802232602 -34.25013177922532, 180.6319601658846 -46.1538731299347 M154.3476330156434 -15.627509455191529 C160.04311424637908 -23.018606768542966, 165.82095087827648 -28.947507249893057, 180.49263922322467 -46.34473389934562 M156.8665627581092 -15.797865716112506 C167.32461342302528 -25.47156933944069, 174.92786594269532 -35.416018278219795, 180.11190624547137 -41.312494180130656 M157.3343182241202 -15.388445020118366 C165.02558857640702 -23.971137034812976, 172.1585963797927 -32.24274583066164, 180.33710825124908 -41.98418786480059 M162.09923661504317 -15.261776731814274 C167.34781441193527 -21.279948282231935, 172.2481083702201 -26.846919595937223, 181.82068108443735 -38.02490311688364 M161.53895155211694 -15.809783323993724 C167.22497432420505 -22.180715271597286, 173.08488406752232 -29.018396564267256, 180.9492261825356 -37.22108503502395 M165.58470563606903 -16.172645799356705 C170.409259166453 -20.898941960421975, 174.03150077748734 -24.93167620635352, 180.03875783368952 -32.630766028407784 M165.59892977557178 -15.953791464931488 C171.231664599901 -21.683412067928653, 176.72024546355627 -27.337256205548393, 180.10293486912659 -32.194568080804196 M169.9490761311163 -15.926495113894216 C173.0504704857278 -17.712270817109562, 174.44769287413973 -22.306185814628833, 181.41275349604803 -28.455306078834788 M169.742291825252 -15.902990732758912 C172.6835393731452 -19.394861117215598, 175.84555932031182 -23.20634503030191, 180.93546356649506 -28.44705234356558 M174.25413802706507 -15.853184137710816 C174.8696711072899 -17.90398543049516, 176.43796762959772 -18.93690663124447, 180.05957684021388 -23.87628551553516 M174.05080670643085 -15.653681796319662 C175.22605652037242 -17.438937418282684, 176.60054756712944 -19.186187521619885, 180.56117331527466 -23.377118854618605 M177.37447989580983 -15.541499102384 C178.50283192499046 -16.46590096596558, 179.31695264109132 -17.487413620280183, 180.68262567318476 -19.348400084075646 M177.5019735233879 -15.497922013693941 C178.37907825397926 -16.307622713771984, 179.1397712811551 -17.43460539993204, 180.7462594461747 -19.166404918098962" stroke="#62ffd1" stroke-width="0.5" fill="none"/><path d="M179.6416568847321 -51.47637785018548 C164.3849529956993 -51.15912885126885, 148.29113616855258 -52.70814696511543, 125.70205794013023 -51.61643963061452 M179.78345617876352 -52.4070859036371 C160.8284176455756 -52.395393178548524, 143.10136689523836 -51.695314569809, 126.22546269328161 -51.6886603921549 M126.2992211552037 -51.551238967283204 C125.52065910631852 -37.88295793444672, 125.08157527983663 -24.046061008152336, 126.30329124357941 -15.275301391635717 M125.49363834451897 -52.22549892544365 C125.78715925772602 -43.95415829921834, 126.45631714368753 -36.952120340515975, 125.78350893257584 -15.903160404291425 M126.19249607125495 -15.4921189918981 C146.33785552749646 -15.620070035345666, 166.17828846201618 -14.97893218387398, 180.4543496175841 -16.942828597964027 M125.3233943125224 -15.985582203474879 C143.0850505648995 -16.120694152875316, 160.918262201142 -16.43977826107279, 179.70954653105906 -15.667732168959947 M180.0150936333958 -15.296221088404986 C179.64742424978954 -28.393422959054835, 178.88416816951025 -40.27234789234181, 179.31579856103863 -52.82452819529409 M180.0019163857906 -15.528093747390738 C179.54092620443117 -23.095557659688392, 179.9075921429659 -30.252919681416092, 179.98907936214175 -51.64300825062264 M179.78 -52 C179.78 -52, 179.78 -52, 179.78 -52 M179.78 -52 C179.78 -52, 179.78 -52, 179.78 -52" stroke="black" stroke-width="1" fill="none"/></g>
<text text-anchor="middle" x="152.78" y="-29.8" font-family="Times,serif" font-size="14.00">Func</text>
</g>
<!-- Api&#45;&gt;Func -->
<!-- helloApi___Api -->
<g id="node3" class="node">
<title>helloApi___Api</title>
<g><path d="M16.184668713896798 -136.9823633728248 C16.184668713896798 -136.9823633728248, 16.184668713896798 -136.9823633728248, 16.184668713896798 -136.9823633728248 M16.184668713896798 -136.9823633728248 C16.184668713896798 -136.9823633728248, 16.184668713896798 -136.9823633728248, 16.184668713896798 -136.9823633728248 M16.23410272456653 -132.6801291413347 C17.33469908747566 -133.63214793509852, 18.261292747420665 -134.93376918487957, 20.498986985574945 -137.49511121879806 M16.56040730589291 -132.67815189278372 C18.012432033074713 -134.2730788567402, 19.259198779604237 -135.97052128126998, 20.501682561283573 -137.37659113864035 M15.869719045899256 -128.2970720587943 C19.629814962874875 -131.13951429237903, 22.39691734313516 -134.6937591110142, 24.12400904377799 -136.33685588647518 M16.28383941587635 -127.69413430535005 C19.455109576985055 -131.15375466978026, 22.516048859902977 -134.9971241694872, 24.0564298810598 -136.72657582610688 M17.082094009905056 -124.07752793378283 C19.904498560390124 -127.2930549220075, 21.7059612524587 -129.26417597191855, 28.116525273091646 -136.93596398215183 M16.038073388198676 -123.38288718399687 C19.04568577164747 -126.56560572855945, 21.068647946420125 -129.0513664548798, 28.020833266907776 -136.70532483634344 M16.645475284866038 -117.626935347476 C19.777152719928484 -123.37893374106201, 25.055252940011126 -128.6225039594165, 31.344049102610814 -136.6629125351668 M16.341227996352718 -118.32826013514517 C19.183669296318467 -122.29854942868361, 22.687421930382435 -126.15890830134553, 31.394224576046383 -136.6935882822604 M16.528022977930735 -115.0014403041725 C23.5458818814988 -124.02966719956032, 30.801519618358103 -132.32416585254134, 35.20948196756229 -136.47927074599582 M16.682028354697948 -114.76078172964061 C20.514728740799317 -119.11557045871703, 25.393470074669146 -124.53084526942372, 36.128569183957914 -136.97856279061477 M16.30754318069483 -108.53122243745719 C21.804947600435888 -116.19728259459218, 28.21182716041014 -122.15048177891923, 40.616134264140314 -136.53739023206697 M15.572892878842765 -109.4103273028985 C21.612905303868057 -115.61984735824086, 26.229497914403737 -121.28953056614226, 39.96653029704552 -137.11689306364542 M15.364221251358082 -104.5951653902024 C21.664245164458663 -112.01300616886591, 28.655862352290917 -118.94362334993023, 43.39623101851103 -136.87179575182395 M16.338670743234573 -105.17101748868598 C22.37437287615339 -112.27719937048512, 29.456799620881586 -120.40896348888478, 43.97135309588715 -136.923505284221 M16.538984665882843 -100.56944310528608 C25.522516772975468 -109.7273644044585, 31.83469996516879 -119.47900777213599, 48.298963160057006 -137.95067437295373 M16.52115396928345 -101.19743396751305 C23.568465840368365 -108.640329160911, 29.783231833562045 -115.80691771500712, 48.305377797312545 -137.35068960075154 M19.88677586565845 -99.99992485974757 C27.582664320761385 -109.32329836997481, 33.343501418012806 -116.30316196743573, 52.044611748281234 -136.36135203258146 M19.745773480883486 -100.17155067994065 C27.152198612109625 -108.51827610345991, 35.27677073708604 -116.80484568027838, 51.44413570907837 -136.76674207433476 M23.669163728560207 -101.0922402536606 C33.9326063821435 -111.33469038333887, 43.43890726805218 -124.73251210262146, 56.501827992354364 -136.75068777603082 M24.161592447987083 -100.36813018055759 C31.345938620025244 -108.80401801291801, 38.79886007970361 -116.62436545190265, 55.46903694875088 -136.98599642129213 M28.579167135641605 -101.87857966599988 C35.40745678762626 -109.19425689357253, 42.016352768161426 -117.86282814157383, 60.51546991871421 -136.79917125813552 M28.298815598930876 -100.53734415850711 C40.296009368674156 -114.4321769126428, 52.394417328701834 -127.57907879894793, 60.11113349540818 -137.56758363051424 M32.361495108024066 -101.36077530219194 C40.04004849378208 -109.40954142090196, 47.601122558444644 -119.99533254575209, 63.33699971068293 -136.71543842331764 M32.46681130636467 -100.40579871904109 C41.198246558134024 -110.72014374195538, 49.43192527171824 -120.24046343480866, 63.73455283611991 -137.021143265113 M35.78222694749314 -100.95812345322538 C47.46008226610753 -114.78546785051051, 59.74803436732552 -128.18515103407174, 67.74565706103604 -137.55324977665083 M36.47786729119449 -100.37907117286625 C48.80814115753414 -114.77387382642021, 61.13084074204857 -129.48815004429716, 67.93720850915874 -137.3188738463586 M40.98774253735683 -100.6123942129939 C48.47781078641917 -110.61213233188704, 57.01496929987387 -120.49459277375225, 71.37766790407035 -136.93260369186694 M40.60711389454337 -101.23070576534649 C51.041590640699226 -113.39676008917904, 62.17347778609994 -125.83464033609353, 72.22257921657796 -137.5286707650834 M44.851531104027316 -100.47084865925797 C50.408364573698535 -109.5640429288523, 58.490070431150826 -116.98370655433018, 76.55276599751237 -136.82365564355115 M44.097291279232614 -100.84221463472375 C52.73049517444321 -110.2389249336182, 61.46094011998904 -120.89171366918977, 75.57957787060586 -137.074007636523 M49.24616639987062 -100.78841162381674 C55.41320721191969 -109.26674081689171, 62.04430917415242 -117.06660773443814, 79.87148588938481 -138.16699304628256 M48.50959365375857 -101.42301618285858 C56.57689035705219 -110.79302357852669, 64.59195490842644 -120.34819763827893, 79.84309242188664 -137.6484318388555 M52.08754353228953 -100.13590457165884 C62.55519576058914 -112.1242296978643, 73.3667726500419 -124.5690228714741, 82.19162346611654 -135.63064239424244 M52.507605916321 -100.33333669644509 C58.4740167817374 -107.78198771697545, 64.32899570729606 -114.26697293263817, 82.63368914133939 -135.30798166509572 M55.62714911611377 -100.17392725726634 C66.59053274234377 -111.89737181046748, 74.57755405247013 -122.5523345333669, 82.88191750175493 -131.9353088188854 M56.76042661101572 -100.85942374693717 C64.8649600158533 -111.24359285500454, 73.36367160233351 -120.72392442692106, 82.02784127818579 -130.7827069576404 M59.63671097703807 -101.72837951728728 C68.37864643672981 -109.23556255577832, 74.38999497239864 -119.08336534139335, 83.01120053602338 -125.22961913706196 M60.49826752143392 -100.73274491869519 C66.33924294625288 -107.54055170238384, 72.46174444538609 -114.36096737015868, 82.65134722471505 -126.12146396547587 M63.41202010599888 -99.76922790993326 C68.10160128427995 -106.83764917642549, 74.68782994681176 -110.85696279096062, 81.53066154945951 -121.99785938877346 M64.01316873152166 -100.16374107973542 C68.27445486916996 -105.71247418403235, 71.92515428373116 -109.56920592183876, 82.44196632410231 -121.5971995833876 M68.56843743681152 -100.3217658821269 C72.51935335235537 -106.27758506744215, 77.19325245028216 -111.91693824345406, 81.5977608138688 -115.9140531309941 M68.69406402658595 -101.40746483256737 C72.84251883197109 -105.67266726138293, 77.11362273982748 -110.58454886651761, 81.93976616780694 -116.36316273911805 M71.36253383634231 -100.26828973069598 C75.55993672716558 -104.97392317436872, 79.4489673839661 -109.896091977506, 83.13545738216894 -112.73139476249013 M71.60986659303347 -100.69945540110734 C74.11808915236682 -102.77483192350024, 76.36394141505471 -105.00468679734671, 82.46602568265554 -112.25426602567453 M75.80672685939271 -100.52938053250398 C78.75277908149458 -102.9682211807053, 80.27231567001463 -106.33292133853388, 81.93902594730149 -107.26684140891979 M76.05338550193596 -100.78570332990807 C78.0401417203931 -103.1229795982696, 79.79685951958768 -105.02782652435229, 82.06908931089177 -107.46984200325979 M80.39801765471871 -100.94894579778288 C80.8244874825858 -101.80281302934493, 81.48419353258073 -102.4460053999063, 82.25389239918827 -103.4363884014351 M80.41585874992006 -101.00247516104446 C80.90452295738618 -101.74508488305852, 81.5273805507067 -102.44276822207422, 82.25793608229817 -103.32466050132788" stroke="#3bfdea" stroke-width="0.5" fill="none"/><path d="M81.28869972736788 -137.7803669840441 C55.28075355665899 -137.9373795481868, 32.65862226438201 -137.06635414451767, 16.97641788067493 -137.23767256196237 M80.52503027205584 -136.98061249631607 C55.854930364976305 -137.1220602675897, 32.50111937880819 -137.3258605860887, 16.435780380400903 -137.25184131073775 M15.712535454343818 -136.00460088023132 C16.19578782201323 -125.71782063829718, 17.09793056337739 -113.28293237617721, 16.598150343251483 -100.40599977665975 M16.21566144551633 -136.80010166335688 C16.739943046363372 -126.52833171474903, 16.0584774164936 -115.38328753025372, 15.767312726541189 -100.93212499921981 M15.663779836631306 -101.46653228517566 C30.379149237999712 -100.94729939940451, 43.29632603958435 -101.59331414753237, 81.08572418916424 -101.44886497449595 M16.088134292768803 -101.49390165150963 C31.76158269906268 -100.88228816903549, 48.670291331517575 -101.39228511005189, 80.090503192032 -100.50733202371752 M81.32378627121561 -100.4229768095007 C79.6306732528339 -115.13794696056121, 80.13652714718914 -129.58359669226087, 81.24259174453512 -137.61685595777774 M80.3775781216529 -100.7469361520248 C80.47562486346055 -110.77112371214558, 80.54073784123518 -119.46331260050411, 80.74259015300034 -137.00728994837397 M80.4 -137 C80.4 -137, 80.4 -137, 80.4 -137 M80.4 -137 C80.4 -137, 80.4 -137, 80.4 -137" stroke="black" stroke-width="1" fill="none"/></g>
<text text-anchor="middle" x="48.3" y="-114.8" font-family="Times,serif" font-size="14.00">hello api</text>
</g>
<!-- helloFunc___Func -->
<g id="node4" class="node">
<title>helloFunc___Func</title>
<g><path d="M116.56283285087434 -137.1758140832314 C116.56283285087434 -137.1758140832314, 116.56283285087434 -137.1758140832314, 116.56283285087434 -137.1758140832314 M116.56283285087434 -137.1758140832314 C116.56283285087434 -137.1758140832314, 116.56283285087434 -137.1758140832314, 116.56283285087434 -137.1758140832314 M115.9398232873332 -132.0207174332649 C117.77518667401543 -133.68741253529035, 118.64890399696415 -134.9633918433519, 120.32107204114781 -136.92120108261895 M116.06621791048957 -132.1553534730307 C117.19571571384007 -133.18507426296904, 117.99636837532867 -134.26068153045867, 120.26717251556906 -136.7286147442623 M116.63449720625928 -128.26560271296813 C118.38988223686954 -130.99353558088285, 121.02280775350299 -132.53090467954337, 124.89978116083155 -136.61478990555568 M116.6140407986093 -128.01400721249274 C118.04903910321403 -129.95204037891756, 120.15038031589265 -132.0162764582481, 124.07393484628832 -136.852579202962 M115.96996766049311 -122.8992274174738 C121.05473134450243 -128.69046381389148, 126.46969106018022 -134.677850977658, 129.07116144966267 -136.39318475415038 M116.00383764809004 -122.97625657257552 C120.17898884843316 -128.08018039332697, 125.2819723338489 -132.52762183390126, 128.76884622284769 -137.12463749871839 M116.57912917211169 -117.97563161445544 C122.31509058160023 -126.35475105134283, 129.14693301708445 -133.76331214562447, 131.78296924449185 -136.02128339866601 M116.19622038190427 -119.11446741625196 C121.255088952489 -124.48382861754267, 125.86006230302954 -130.1739965633996, 132.17136446680513 -137.30360105168864 M116.40510033898987 -114.02252845793214 C120.81219012017363 -119.8563371783822, 124.6315686757996 -124.94647107884431, 136.66430218961423 -137.72566827536062 M117.1060238492374 -114.56524082441955 C123.9072384564552 -122.80422436153245, 131.85116085764167 -132.2229709439404, 136.18249304774469 -136.89025522972003 M115.7329436962357 -108.79117266004324 C123.5344307435857 -118.17524761863557, 132.6982508086116 -128.29371661227174, 139.79502326369717 -137.02550235880952 M116.1571206193367 -109.65878051917274 C123.62825596224721 -118.15386438127337, 130.7853397287269 -126.62954461044221, 139.97791592302835 -136.2295977437806 M115.71989166707422 -105.56237084120303 C127.50869364920936 -118.53859047914476, 137.4798873753261 -130.41771395897356, 144.64547724935954 -136.9626387339179 M117.10953492745323 -105.72090621510847 C125.03476321888272 -114.20629224548543, 132.7464764919885 -123.66291150324356, 144.12092776993555 -136.71749242716956 M117.72028935616608 -101.81632887177628 C127.00399959041943 -112.67015080556611, 137.25403462411467 -125.311084114113, 148.45868922870895 -136.512878107589 M117.21217600100414 -101.1843173240076 C124.05220600236032 -108.83105090707863, 130.45479656239587 -115.99485752053639, 148.7641472961725 -137.28533151084176 M120.40180847796726 -101.41533052968644 C129.98718075611947 -113.01143235752583, 140.55040709039807 -123.74295703255353, 151.43388969005917 -137.3853496364268 M120.11513078178038 -100.96247001172684 C129.73118907716574 -111.92324852041567, 139.65108057209866 -121.99666863775694, 151.76667323831003 -136.78981285848 M124.10290543194735 -101.4427829536421 C136.00883811140923 -113.40628344834786, 148.19785061744952 -127.57352201863934, 156.11203414658385 -136.44026039065056 M124.45640890877416 -100.88445486324453 C131.790990879868 -107.83294956221418, 138.02064393512757 -116.10632066081318, 156.30463487087164 -137.5492335694216 M127.44292342243865 -99.61045958119237 C136.09474733553557 -109.31550678895269, 141.94638416139605 -116.86221450723009, 160.05112122420445 -137.30620475231646 M128.49800435294662 -100.64508709734424 C140.97908774196222 -114.77571886258147, 152.60251835263264 -128.6432097518782, 159.9820733087557 -136.85126203463193 M132.33123564142053 -100.51819411964368 C141.7621406115441 -110.66011593068183, 150.33229576238153 -120.62444090028582, 164.5330662238359 -135.97306470789616 M132.96256800928404 -101.15075750773408 C143.9118106460746 -113.92937920295941, 154.76525839538039 -126.11540317570908, 163.7718495537862 -136.87103785522996 M136.33239639792572 -101.82474048417612 C146.40844413631808 -111.22857386540302, 155.98727550826302 -122.6997665887902, 167.50061637629207 -137.3469163076042 M136.63410222509816 -101.44008821471535 C147.7201416929637 -113.45132074211512, 157.60535532220104 -125.20794165122679, 168.5845339642484 -137.0222381145645 M139.97518999059693 -101.18765389741264 C149.40010249526594 -110.19388942147314, 157.01738071132647 -121.21316894382373, 172.59784279144537 -136.2802809823407 M140.29349072193358 -100.35476083154043 C147.39851079820238 -108.64525325758461, 154.0910643220968 -116.28366417760114, 172.34472474028874 -136.6840081943586 M144.0688613399374 -101.15112096342793 C153.97048866647845 -111.11036011289467, 163.90388556659354 -123.32055458277462, 176.1687176737246 -136.8720722735947 M144.9704291030137 -100.50746606513032 C151.1547138268394 -109.13882716277156, 158.69446294094038 -116.38880309955677, 176.44219487124738 -137.07316397496223 M148.66378777327031 -101.2228002060112 C158.6497830669403 -111.15889687809815, 167.99823586634372 -121.307304648182, 179.88776320887177 -136.87754726997397 M148.03308181451672 -100.28343768115413 C157.83902166562825 -111.46117914922124, 167.237113593821 -122.04041314128911, 180.0245121319238 -136.74651550041864 M153.4188558126578 -100.3976628985666 C160.4637001703593 -110.05266961220741, 167.75237366026752 -117.68018441584296, 184.6108923890952 -136.88667688499442 M152.67487272691818 -100.60911062092639 C162.05721340648145 -111.23731774004547, 171.39233266006104 -122.43693453051667, 183.93468954033904 -137.37439890435016 M157.29280456463218 -101.55485785687792 C164.3589116598027 -110.018448959691, 171.50558178561897 -119.00064657970903, 187.8140506637997 -136.76024689241117 M156.4380466372073 -101.10487080776998 C169.2029437881218 -115.54940744556025, 180.97629357747584 -128.7067687689368, 187.79719283561155 -137.4285271693495 M159.39088524137426 -101.28451572945634 C171.66080939831846 -112.18259674082918, 182.31185382069427 -124.05877971985036, 191.36410564485243 -134.60017193130858 M159.73937372356679 -100.41996886068223 C168.30765095618207 -109.80584629929373, 176.31237770202338 -118.79885018873003, 190.69154730324354 -135.37822813643754 M164.55109328834055 -101.05118875219118 C174.752320558512 -112.3102488527511, 183.6877812010813 -124.13955336084884, 189.95120005072565 -130.81168615720614 M164.90224486132226 -100.44463503576793 C174.39006061437547 -112.15689841116429, 183.28950504729409 -123.32138330332604, 190.67048213453012 -130.79733212557574 M168.36953508135463 -101.29915835968879 C176.38579843987623 -110.88932888977811, 187.08572825222768 -121.3071553944821, 191.30714185427388 -126.7424040480112 M167.70620667851443 -100.83408747462441 C173.28656689067228 -106.18621778718087, 178.36711498757865 -112.52471097181196, 190.5815184653436 -126.62561264366062 M173.212175962793 -100.41435806498313 C177.80942274059288 -107.20210065140164, 183.08717863620322 -111.46226120511412, 190.38928722053595 -122.42654553265194 M172.3159850703255 -100.91760768844793 C176.8605688455015 -106.1350639828508, 181.3100073670855 -111.27311538942755, 191.06412559622825 -121.30316822430203 M177.4830726375716 -101.35890063039292 C182.01210286488904 -106.27415674697866, 187.13609502913363 -112.2262758521683, 190.63466731215306 -117.01890554490683 M176.50935064144534 -100.70640773208743 C179.65400204824857 -105.22438902473185, 183.5832518248725 -108.97987415920065, 191.34244472647347 -117.84347753679249 M179.68505516350032 -99.87166405946424 C182.88728832295436 -102.90966652124357, 184.9139543780233 -106.35781329813835, 190.12684822732325 -111.90570345744474 M180.16787169755221 -100.11564545329193 C183.06301707821603 -103.88527112046064, 186.18735556708006 -107.06835684114733, 190.95958534837675 -112.7419777843261 M184.34699378092532 -100.3262006981852 C187.33226192882478 -103.97320451766218, 189.95107368704672 -106.6313436993118, 191.36075986180322 -108.46423446553075 M184.53908264746894 -100.7393464631335 C186.75336427728627 -103.62848101037024, 189.28574121509308 -106.50263274638975, 191.10315249967258 -108.58725295247736 M188.40785488572575 -100.94810640338628 C189.2475672345364 -101.81296751339507, 190.16596290942533 -102.83377337029604, 190.4710722607901 -103.35414856491663 M188.49065506009688 -101.16651533243308 C189.07511820261294 -101.66022921329784, 189.51438352516823 -102.18158723079776, 190.56376981794855 -103.28952857472123" stroke="#62ffd1" stroke-width="0.5" fill="none"/><path d="M189.19241825999663 -137.01671372522188 C167.33635155788502 -137.2192890209897, 143.1702766732675 -137.84185676609374, 115.49789278453322 -136.18333316922482 M188.86551309297144 -136.679200207604 C173.6821495107115 -137.55412524262874, 158.98184487088494 -136.73508416694023, 116.15389340884501 -137.2122754370601 M115.4646415627688 -136.6577691646964 C116.30813248967046 -123.40368872849899, 117.22729866626143 -110.85617513419277, 117.34421037997008 -101.79030255665761 M116.35420866172639 -136.7154294500479 C116.32811159359221 -125.05244598044658, 115.9149911629917 -112.39800554600141, 116.29530531256617 -100.51994182953754 M117.04987031342465 -100.9961548874657 C132.76492320179764 -100.42016042043198, 146.63978621999112 -100.35634899039377, 188.17793477217123 -100.05898259495936 M115.9393519774 -100.70650862121703 C144.81633755360397 -101.24983614654386, 173.76703645451656 -101.25154147401562, 188.99727693210392 -100.71377287813667 M188.60588185388798 -101.37309975183601 C188.8622475107448 -108.11463576370653, 190.11071904892813 -116.27686702309836, 189.19642523266154 -137.51185242919067 M188.7098265104622 -100.62160501909912 C189.27199478517906 -114.37074747896415, 189.44100724024895 -127.23218732566163, 189.29469956869255 -137.18688162064416 M189.15 -137 C189.15 -137, 189.15 -137, 189.15 -137 M189.15 -137 C189.15 -137, 189.15 -137, 189.15 -137" stroke="black" stroke-width="1" fill="none"/></g>
<text text-anchor="middle" x="152.78" y="-114.8" font-family="Times,serif" font-size="14.00">hello func</text>
</g>
<!-- helloApi___Api&#45;&gt;helloFunc___Func -->
<g id="edge2" class="edge">
<title>helloApi___Api-&gt;helloFunc___Func</title>
<g><path d="M80.86563053663252 -118.27131854611696 M80.5 -119 C81.11045373905095 -119.10463413497548, 106.595752752341 -119.18278584672927, 106.21388987162322 -119.76784095507854 M80.84023244550907 -119.97127920320878 C80.41995665570725 -119.54524109966593, 105.69526504255337 -119.49733999982476, 105.82073716357927 -119.03534491454505" stroke="black" stroke-width="1" fill="none"/></g>
<g><path d="M106.28291524665967 -122.26177624214016 C106.28291524665967 -122.26177624214016, 106.28291524665967 -122.26177624214016, 106.28291524665967 -122.26177624214016 M106.28291524665967 -122.26177624214016 C106.28291524665967 -122.26177624214016, 106.28291524665967 -122.26177624214016, 106.28291524665967 -122.26177624214016 M106.4275658384386 -117.82110284178951 C107.24957408102232 -118.89774003482313, 108.1398180139701 -120.31752841153431, 110.01332467698768 -121.93693737648634 M106.68504410258537 -118.0526354374832 C107.43908114061965 -119.20587734951557, 108.54931545396613 -120.2252382821803, 109.89379422745796 -121.70027075379373 M107.54895180412156 -114.82664035825587 C108.817694678177 -116.04837801333237, 110.60798243808077 -118.21483787228892, 113.13511181691038 -120.32720308423431 M107.59895385475373 -114.61246125306921 C108.85274567895762 -116.15941769641626, 110.30403116017632 -117.46156102401515, 112.83767891378852 -120.4451656158235 M113.00576966756283 -116.20916961184571 C113.90525662280695 -117.45340877729231, 114.91535126416025 -118.37771331683513, 115.78194682682518 -119.20575870446056 M113.10980737480155 -116.33271847530699 C113.85122186588954 -117.16807789098496, 114.5833971360862 -117.9685484208188, 115.72021770093323 -119.45663911911966" stroke="black" stroke-width="0.5" fill="none"/><path d="M106.40773378585875 -122.65843334959919 C109.37591011604542 -121.62940812486822, 112.65900472876149 -120.12831438363595, 116.8205641719161 -118.70151933852536 M106.40455026674657 -122.7371708862372 C109.2872479191967 -121.77316435405446, 111.6668576173672 -120.75050070527686, 116.53088676146267 -118.86427721771311 M116.01693157053938 -118.67576733456038 C112.11064425169599 -118.0218825853467, 108.92449833981001 -115.9835598118582, 106.93757032076556 -115.37021897848196 M116.29739100901449 -118.98104740836162 C114.06985200679533 -117.91722475597669, 111.24846394470497 -117.2513622699096, 106.59787633628257 -115.73014843143912 M106.79686756572599 -115.5137426960898 C106.7988727295916 -117.5355360415209, 106.82751206690885 -119.69528998592777, 106.81370418059 -122.73922603735197 M106.49318295261057 -115.3768403849889 C106.53046087321505 -117.56064394392008, 106.50494164288406 -119.23343652902616, 106.4518941562197 -122.54257077976459 M106.49 -122.5 C106.49 -122.5, 106.49 -122.5, 106.49 -122.5 M106.49 -122.5 C106.49 -122.5, 106.49 -122.5, 106.49 -122.5" stroke="black" stroke-width="1" fill="none"/></g>
</g>
</g>
</svg>
