<!DOCTYPE svg PUBLIC "-//W3C//DTD SVG 1.1//EN" "http://www.w3.org/Graphics/SVG/1.1/DTD/svg11.dtd"><!-- Generated by graphviz version 5.0.0 (20220707.2145)
 --><!-- Title: G Pages: 1 --><svg width="181pt" height="44pt" viewBox="0.00 0.00 180.97 44.00" xmlns="http://www.w3.org/2000/svg" xmlns:xlink="http://www.w3.org/1999/xlink">
<g id="graph0" class="graph" transform="scale(1 1) rotate(0) translate(4 40)">
<title>G</title>
<g><path d="M-4.591768489952599 4.615209232946803 L-5.947457793843372 -39.826455982225376 L176.31266799252873 -41.80695399141634 L177.27761374925547 4.641604525775151 L-4.5701349354565 3.5477512210838658" stroke="none" stroke-width="0" fill="white" fill-rule="evenodd"/><path d="M-3.330315756820183 5.4801525410617025 C-2.5551692702902526 -9.274963695747322, -5.524387955699231 -20.06405650864412, -3.3633082014891915 -38.725123618761565 M-4.588098826992046 3.086444728827167 C-4.817297030692983 -9.88065245225516, -3.99955138591702 -21.86647295859476, -3.354330177090371 -39.17449860446556 M-2.2847858019591945 -39.68601651247832 C57.39016156771161 -40.84481294705037, 124.17350007314148 -41.362508368096016, 178.78126552461754 -41.75106289917512 M-3.1548115412547313 -39.67494138422732 C41.826247672108316 -40.94896343755789, 88.69543653476364 -41.653982408129174, 177.81253004819004 -39.8626794473962 M176.2636364380972 -41.71063202032217 C177.2239452906855 -25.087248376572322, 177.16768188882955 -11.629861671746303, 176.60195658237035 3.386529838903794 M177.67588932087506 -39.33171843325755 C177.28995159881214 -25.299426197235107, 178.00436077159426 -10.794648885640072, 177.09538401440886 4.247162815132139 M177.22500850887204 2.0036898368882916 C131.07987422206162 5.917917679849831, 83.56367984110153 4.650240390326728, -5.144200369321147 3.813361277085698 M177.11950319085435 3.052731840441084 C109.69639129080991 5.933702920476751, 44.25181418816179 5.448891570622228, -3.4571922443260803 3.908587694761793 M-4 4 C-4 4, -4 4, -4 4 M-4 4 C-4 4, -4 4, -4 4" stroke="transparent" stroke-width="1" fill="none"/></g>
<!-- API -->
<g id="node1" class="node">
<title>API</title>
<g><path d="M65.5055750865307 -35.50342182553485 L2.1385312294368823 -36.61790979721214 L-1.1137762256698693 -0.27688068552690304 L65.2632325876065 1.663405990329669 L63.177688228638225 -37.1852164574257" stroke="none" stroke-width="0" fill="none" fill-rule="evenodd"/><path d="M63.637232199817305 -36.80380751489182 C40.10081271906167 -37.60812413943325, 15.89430502012396 -36.36715910071942, 1.415149338568537 -34.087167567737744 M64.3475230082718 -35.66230431692817 C49.54166739542061 -35.0674247087, 33.731692088441136 -36.58381962947678, 0.34655393272731755 -35.489001158569316 M0.9595226420098892 -37.48367204205363 C-0.900092192072276 -28.697831398134856, -1.472308462652231 -16.054693927722447, 0.2566402715222614 0.32740199747970067 M0.0018279744492034067 -35.33035173617289 C1.3608002595890376 -28.314388075547477, 1.2444792098124946 -22.05123619284909, 0.39241915041206116 -0.11648803619634807 M0.787245150915515 -1.0567298655192037 C17.164745685382258 -1.6138724161693625, 35.75844493472872 -0.4564231793432281, 63.00806684726387 -1.8848765197039707 M-0.6328303023792274 -0.5384547202193604 C17.27459175589688 0.37854367351379103, 34.419678354627536 -0.28493138045386157, 63.59936665042949 -0.16124715324593364 M62.55875965935614 1.1253779153350845 C66.30582276296894 -11.057722154757293, 63.08419268193698 -23.18133652881699, 64.67094603700876 -34.614505776251846 M63.569983246955914 0.16645687404691545 C65.10836579021104 -12.073248842540004, 64.34499154038343 -22.72037117561285, 64.48766824583929 -35.7397569381359 M64.4 -36 C64.4 -36, 64.4 -36, 64.4 -36 M64.4 -36 C64.4 -36, 64.4 -36, 64.4 -36" stroke="black" stroke-width="1" fill="none"/></g>
<text text-anchor="middle" x="32.3" y="-13.8" font-family="Times,serif" font-size="14.00">hello api</text>
</g>
<!-- Function -->
<g id="node2" class="node">
<title>Function</title>
<g><path d="M173.0865869785851 -37.52323312296936 L98.84374705070812 -36.897169463648424 L99.67142838211186 -0.7023180627526511 L171.29013101767293 -1.165085586560914 L174.6018131640674 -36.09537288476256" stroke="none" stroke-width="0" fill="none" fill-rule="evenodd"/><path d="M173.95524764334365 -35.016613723027604 C146.6227527904907 -35.458311359172406, 124.57242202994334 -37.93295634377659, 102.0137793790067 -37.70089245438496 M172.9451453743035 -36.03418315693889 C156.44096143367665 -35.56712450904887, 141.8062504461049 -36.6890454665596, 100.04924756925111 -36.384333332333576 M99.84739380468423 -34.02547793800616 C101.06975165743486 -23.552352343995413, 99.0827974079953 -9.557354890127119, 102.03905322880654 -0.7233932642000758 M100.14069483570802 -36.941945470378386 C99.9412674090606 -22.96073031389734, 101.07664309411804 -10.206314642642099, 99.47253787345471 0.6679479989830801 M99.42555919863601 -0.3041170326080014 C126.85556254736962 1.8588673710757244, 151.16813390859795 1.4617265961082837, 172.58892635339527 1.5868303249714772 M100.78445746790618 0.8156645139700931 C124.79534021513501 -1.1226809335137733, 147.8231353366577 -0.4567497222550343, 173.1184296860984 -0.5779363671676547 M174.87757732750666 -1.8543178989459985 C172.05091227846523 -11.247644052767491, 171.27197828403436 -24.948955815820568, 172.87418101300204 -35.654372603211534 M172.26397625109828 0.18931516326096176 C173.5301651422567 -7.467776582487679, 173.98939310279079 -15.685916751056466, 173.4477033559885 -35.89746424890596 M173.15 -36 C173.15 -36, 173.15 -36, 173.15 -36 M173.15 -36 C173.15 -36, 173.15 -36, 173.15 -36" stroke="black" stroke-width="1" fill="none"/></g>
<text text-anchor="middle" x="136.78" y="-13.8" font-family="Times,serif" font-size="14.00">hello func</text>
</g>
<!-- API&#45;&gt;Function -->
<g id="edge1" class="edge">
<title>API-&gt;Function</title>
<g><path d="M66.43190830698475 -17.668983892668034 M64.5 -18 C64.32438253453553 -18.978139365355783, 92.15044896818009 -16.089628068022748, 89.12443387685116 -19.382869432138214 M64.78786349746997 -16.398199769348068 C64.82619212592313 -18.515368510616366, 88.37178333254697 -16.049489926890455, 91.15823033942851 -18.390568524170593" stroke="black" stroke-width="1" fill="none"/></g>
<g><path d="M89.26025363164267 -19.607058688436034 L101.64479564950824 -16.300786561433178 L89.70729298075638 -13.443301970201643 L90.28829978453747 -21.352927576995256" stroke="none" stroke-width="0" fill="black" fill-rule="evenodd"/><path d="M90.88623789108885 -22.5013276442604 C94.15931146986786 -19.818296495340206, 95.45901782402804 -19.381817357898683, 99.56103954675405 -19.03340195250751 M90.67790890226587 -21.296401408632477 C93.03267929496964 -20.571099251154074, 96.20031965497215 -20.075686907074246, 100.86869439779787 -18.155266937725806 M100.91360482510227 -17.93641801831739 C97.48063833223988 -17.54854063944425, 93.59871221290872 -16.07319654180346, 90.22898604177372 -13.504261897362163 M100.51578232169365 -18.310554943965546 C96.80255419765943 -16.71413528647661, 92.9809796745803 -15.056052206720862, 90.98972533777602 -14.726982363212658 M90.93988780826078 -14.318304702111178 C90.74514539564345 -16.088117630076834, 90.24555541670244 -18.593230341393923, 90.72513714391083 -21.8710161857216 M90.29642888122241 -14.269816356963034 C90.17284235273083 -16.843679781856192, 90.43905440125141 -18.513613280809288, 90.7698230270627 -21.314839731858292 M90.49 -21.5 C90.49 -21.5, 90.49 -21.5, 90.49 -21.5 M90.49 -21.5 C90.49 -21.5, 90.49 -21.5, 90.49 -21.5" stroke="black" stroke-width="1" fill="none"/></g>
</g>
</g>
</svg>
