<!DOCTYPE svg PUBLIC "-//W3C//DTD SVG 1.1//EN" "http://www.w3.org/Graphics/SVG/1.1/DTD/svg11.dtd"><!-- Generated by graphviz version 5.0.0 (20220707.2145)
 --><!-- Title: G Pages: 1 --><svg width="852pt" height="215pt" viewBox="0.00 0.00 851.53 215.00" xmlns="http://www.w3.org/2000/svg" xmlns:xlink="http://www.w3.org/1999/xlink">
<g id="graph0" class="graph" transform="scale(1 1) rotate(0) translate(4 211)">
<title>G</title>
<g><path d="M-2.2658693894990476 2.1676237379168866 L-2.548260106409706 -212.4897794892018 L847.5238252043546 -210.11632876153746 L849.3184636919668 3.129467969186887 L-2.0741270752707273 2.0432117912793712" stroke="none" stroke-width="0" fill="white" fill-rule="evenodd"/><path d="M-4.1994519190917865 3.209372139983128 C-6.463333694194095 -49.27386093421351, -5.781222617167435 -99.01079038811159, -4.462543922996558 -212.35492424923459 M-3.4777098795419086 3.2578349602611403 C-4.480828678815518 -43.058880841470675, -4.4105506930265745 -89.43231558007257, -3.9300962997906184 -210.32423765373676 M-3.3900024685802976 -211.40395838195428 C174.43055218424567 -209.95350409915878, 351.8023908881916 -210.99966219150778, 847.1107346429277 -211.28842369960734 M-3.9016895791853456 -210.69212586974044 C182.43486190442528 -209.53672925787765, 369.52683671005553 -209.15618627834775, 847.5917937679408 -210.76523743520755 M847.8677088605045 -209.99116264339227 C848.2486090620212 -150.86537911386105, 847.682693416775 -94.4764007085648, 847.9931622672158 5.081371171894844 M848.1055647666022 -211.3906932056959 C848.7192466865282 -137.9464734782819, 849.3529758769438 -64.04336749700353, 846.9754061965854 3.940182673024988 M846.8806821290788 4.464551209038007 C548.883478554603 7.485797392865414, 251.13034591700838 6.260793714128521, -4.303734724889914 4.014279902798776 M847.2658248610076 3.723664490578299 C516.4244254424916 1.3653703760066436, 184.8882152981087 1.8642503198841711, -3.7864168118982042 4.274813634491544 M-4 4 C-4 4, -4 4, -4 4 M-4 4 C-4 4, -4 4, -4 4" stroke="transparent" stroke-width="1" fill="none"/></g>
<g id="clust1" class="cluster">
<title>cluster_0</title>
<g><path d="M16.262891805022758 -9.298140792928208 L19.052747688647546 -84.9704730528142 L834.580295860997 -84.2801912188665 L835.5007644340243 -9.220261153131666 L19.309905870884762 -6.463684944025049" stroke="none" stroke-width="0" fill="none" fill-rule="evenodd"/><path d="M19.057854995841605 -7.443577890195905 C17.765516839960654 -25.33843833594417, 18.613695545516045 -41.18863545900197, 17.027067807061133 -86.83002858476168 M17.034318875178112 -7.49949983040416 C17.883082383364943 -25.39135120758195, 18.41578633064628 -43.38013845153675, 18.66308065186748 -84.37372281857446 M18.33383228762055 -85.31966511590588 C326.3342327985015 -86.52792418895541, 636.1815655015905 -87.30789832866914, 835.3606318236351 -85.2848390153197 M17.47999097550162 -85.22941532351159 C205.02157621473583 -87.85219484738586, 391.14295305904864 -88.17851151494362, 835.783154635463 -84.66457632286728 M835.32746531061 -85.97995640972142 C835.5448256689858 -56.143851935116544, 835.0663283657528 -26.27977705714684, 834.1943255261567 -7.4101994145124666 M835.0396138439598 -85.36022892251495 C834.559555074282 -61.2620091142803, 834.6452069684252 -36.29595719205306, 836.1978777158071 -8.176163325018331 M835.7883831336446 -7.383640507249314 C548.35804148098 -7.69454773394077, 259.00123419647036 -8.157893112069736, 18.105109824193004 -7.312748245839195 M835.6839072090964 -7.727799559594649 C546.6905566234848 -10.234368650877004, 258.1496859945391 -10.574128635869709, 17.923757570218644 -8.133695851068646 M17.77 -8 C17.77 -8, 17.77 -8, 17.77 -8 M17.77 -8 C17.77 -8, 17.77 -8, 17.77 -8" stroke="lightgrey" stroke-width="1" fill="none"/></g>
<text text-anchor="middle" x="426.65" y="-68.4" font-family="Times,serif" font-size="14.00">legend</text>
</g>
<g id="clust2" class="cluster">
<title>cluster_arch</title>
<g><path d="M7.593780149995704 -91.66035543203708 L7.446903674212388 -198.51400228173225 L205.54049912567314 -199.28458669316177 L204.4883028856574 -93.92365833279197 L6.744536083310661 -92.62448265533752" stroke="none" stroke-width="0" fill="none" fill-rule="evenodd"/><path d="M7.715427777349967 -94.03812910275639 C9.060184611463795 -116.81953361891962, 7.084419088334963 -138.822212881228, 8.753195318373086 -199.01401412030677 M8.779534649478652 -93.8889445781286 C8.733220804627273 -115.78601121950214, 7.616089809734111 -138.96981502156373, 7.305095175663 -199.23047978478462 M7.158272722675999 -197.2522449512293 C72.03827593158753 -196.9926121508079, 133.31835370356873 -198.16042224996687, 205.60014888277257 -197.87898691937835 M7.49081354926644 -198.8829358509939 C74.76095981271844 -197.5405211336068, 142.2274513525843 -196.8964467120616, 205.53139364109978 -199.83913203591206 M203.75056006611788 -198.99750817878206 C205.31256724192346 -164.3136006209085, 204.710453154651 -129.40153864209944, 206.5338495861325 -94.2227429381025 M204.66738195134837 -199.1764307011151 C206.951652677534 -156.82452289100564, 206.61195301495775 -116.51708525869996, 206.4022432204835 -92.49870485666513 M203.5507264309187 -91.87371820545209 C166.7238234611315 -90.50879532204038, 124.24889770511 -93.3304922422676, 9.190146762249412 -94.77536447681848 M205.421425123895 -93.51004601210963 C135.71016985023223 -91.24608630643893, 65.82962333875376 -92.01509127160595, 7.717757320284253 -93.6442573355357 M8 -93 C8 -93, 8 -93, 8 -93 M8 -93 C8 -93, 8 -93, 8 -93" stroke="black" stroke-width="1" fill="none"/></g>
</g>
<!-- FOO -->
<g id="node1" class="node">
<title>FOO</title>
<g><path d="M77.78800044121357 -51.55598843386044 L26.92955893598027 -53.37925222161794 L26.508000040345923 -16.34968238859637 L77.81924620224538 -14.477808691883524 L81.73689039408163 -51.11737268238437" stroke="none" stroke-width="0" fill="white" fill-rule="evenodd"/><path d="M80.85878320247069 -53.9888244763908 C61.08106912744242 -51.03139147910433, 46.17896662651653 -51.98408211922434, 24.112621847951203 -53.26911945594021 M79.68429964015874 -51.280990174199204 C65.98350121401369 -51.631103985810306, 50.172547296345456 -52.389375663183365, 25.6421523944112 -52.8987562081986 M27.69557374561925 -53.43226897792842 C26.166541086368866 -40.499703691737565, 26.11557527611494 -26.364736524440687, 27.648691077179446 -14.800498983115045 M26.160642886615054 -51.359137098429755 C24.74232388039574 -39.577690105504175, 24.573592463783676 -26.553961519923156, 24.835157991939468 -15.716682230487516 M25.629849018044986 -17.93469120938967 C45.376554912495514 -14.336516656435283, 64.42724402760896 -13.905787557169035, 81.59107760302157 -17.56551645310359 M24.887851305487004 -15.932391682346138 C37.548460038400236 -15.885132722082336, 48.51955120823816 -16.634164078306455, 80.38914790667025 -15.040005653813491 M78.50909881782523 -16.093945315795033 C81.28426724219301 -26.3132741468556, 78.45559209675213 -36.19000018469318, 80.71559077447655 -51.13584086958273 M80.73086687400757 -16.109523139597243 C80.9160806880647 -25.938858227341463, 80.77439763066465 -35.39768837567114, 78.91061942528724 -52.36212847829674 M79.77 -52 C79.77 -52, 79.77 -52, 79.77 -52 M79.77 -52 C79.77 -52, 79.77 -52, 79.77 -52" stroke="white" stroke-width="1" fill="none"/></g>
<text text-anchor="middle" x="52.77" y="-29.8" font-family="Times,serif" font-size="14.00">FOO</text>
</g>
<!-- FOO1 -->
<g id="node2" class="node">
<title>FOO1</title>
<g><path d="M189.4040527589525 -52.56838722048011 L135.11046926798076 -51.88763023627291 L133.92962648510175 -16.227728516220846 L187.1850803204545 -15.494461549717844 L187.82818909361828 -51.36193735227223" stroke="none" stroke-width="0" fill="white" fill-rule="evenodd"/><path d="M189.20137749113448 -52.220519541916744 C166.3635245375493 -51.69838921404844, 147.03230448538682 -50.72689853774688, 135.00936693933974 -50.26076565470421 M187.71113030823292 -51.09237982972735 C170.17865003857017 -52.47310926953653, 152.27782979089685 -53.1229844949948, 133.8941155889589 -52.8411664765714 M135.93696012261933 -53.174793681488474 C134.54706362333468 -43.58311546915221, 135.3417815127433 -35.92632745210575, 135.55605813635222 -14.417191995611546 M134.429586009501 -51.82928130366009 C135.14338101703376 -39.86373932254345, 134.08699665556875 -29.249779507962888, 133.97715933448671 -16.517511337373207 M136.25985469737245 -15.121774928458516 C144.3222420658144 -16.879654190720533, 157.65339957326867 -14.565854839385146, 188.38684674542762 -14.49209674427157 M135.09011049028524 -15.27283667541122 C152.50168477606775 -15.366269887493523, 171.17070495028813 -15.989635716368156, 189.5038579346692 -16.10577278258271 M187.6570833123475 -16.268062955453214 C189.71334892120407 -31.17980187862814, 190.18251864089316 -45.57381009176899, 187.46008514064397 -51.1711870465011 M188.67324139439808 -16.92278318484334 C188.37632323740146 -25.96019056351404, 189.5753750285092 -33.95542067607752, 188.221923227664 -52.257432959350226 M188.53 -52 C188.53 -52, 188.53 -52, 188.53 -52 M188.53 -52 C188.53 -52, 188.53 -52, 188.53 -52" stroke="white" stroke-width="1" fill="none"/></g>
<text text-anchor="middle" x="161.53" y="-29.8" font-family="Times,serif" font-size="14.00">FOO1</text>
</g>
<!-- FOO&#45;&gt;FOO1 -->
<!-- FOO2 -->
<g id="node3" class="node">
<title>FOO2</title>
<g><path d="M287.08807342945113 -53.32831205603767 L235.23605594754827 -53.118304730151294 L234.0412540533718 -15.306884190929019 L288.9356667481934 -14.6612688898491 L289.4506957644137 -51.07245131560529" stroke="none" stroke-width="0" fill="white" fill-rule="evenodd"/><path d="M286.29506178839716 -52.19690263321535 C274.4942722955551 -50.8450465526798, 262.7872731812624 -51.3611141460365, 232.54516954589513 -50.449907760824274 M287.8052245947295 -51.33153531360022 C275.89678156725927 -51.15659495479398, 264.7834154197658 -51.46273731203459, 234.2191728614143 -51.750636450140476 M234.28866519447405 -53.061970609303295 C235.29877968436955 -40.71771832485403, 232.72462166504818 -28.648539812451734, 235.49527253765805 -14.583913453839138 M233.3735152182754 -51.51730307770932 C233.8945283902664 -36.894376220601686, 233.72765219915237 -23.272687084896457, 233.16620505485602 -16.586079127076992 M234.69320586940847 -17.46613621290408 C251.42696000095296 -17.171006662837616, 272.76084979802965 -17.150689255120398, 288.0871167265934 -15.649831761142229 M233.58355284124647 -16.834708665730815 C245.7837074298567 -16.10683037960768, 256.9331054006299 -15.29436392644093, 286.65297379932514 -15.146493138883628 M289.3936420938585 -17.526265299046294 C286.10692697138904 -27.742988368687936, 289.76434347232635 -42.515772861868044, 287.38577034989447 -53.53088598681374 M286.7554951425367 -16.169614961300415 C288.21916569121163 -23.507031524518457, 288.27400962415004 -33.45471016034317, 288.1214693956269 -51.957189261008125 M287.53 -52 C287.53 -52, 287.53 -52, 287.53 -52 M287.53 -52 C287.53 -52, 287.53 -52, 287.53 -52" stroke="white" stroke-width="1" fill="none"/></g>
<text text-anchor="middle" x="260.53" y="-29.8" font-family="Times,serif" font-size="14.00">FOO2</text>
</g>
<!-- FOO1&#45;&gt;FOO2 -->
<!-- FOO3 -->
<g id="node4" class="node">
<title>FOO3</title>
<g><path d="M379.44932736912443 -53.7425075037813 L323.0985746945633 -50.92596498011331 L321.56656322235585 -14.084197885421784 L378.52034418103284 -17.425082979330032 L379.4026255529612 -51.740509384242635" stroke="none" stroke-width="0" fill="white" fill-rule="evenodd"/><path d="M378.1004231223248 -52.37365928942053 C354.60046736999305 -51.39371557957445, 335.90813289979747 -53.54369446578375, 325.4600619298233 -50.53997802147496 M378.10796884473393 -51.57432407254253 C357.7274350873658 -52.24275150508312, 336.2037666763765 -52.30949256723562, 323.1874960860335 -52.39870896692536 M322.399305291785 -52.98585345084737 C323.1242224866302 -44.36787056365166, 323.3025839027634 -31.911155461890143, 324.31962969099465 -15.882205699714486 M324.3725212990252 -52.86781409799896 C324.6514199028386 -41.07553044887313, 323.03923040240613 -31.96258144865234, 323.34591413000624 -16.71264535419114 M323.2082819918551 -16.520491307828856 C336.36207148046594 -15.904781696857182, 345.4255718321244 -14.332550851497153, 378.6690540026419 -15.436083508351341 M322.689623356008 -15.402427736912896 C338.6291723917553 -15.741658884020406, 351.873373279002 -15.971239336679526, 377.5363663925593 -16.51517849160331 M376.5388907697213 -15.363362607126689 C376.13429841197245 -23.516577543609067, 376.36906720973695 -32.16614939615336, 379.45587442314826 -53.85310871391482 M377.4301441643227 -16.016786851173165 C377.7420203837534 -26.861887033115426, 376.650055492862 -38.71224858750524, 377.6625522649038 -51.08278113891058 M377.53 -52 C377.53 -52, 377.53 -52, 377.53 -52 M377.53 -52 C377.53 -52, 377.53 -52, 377.53 -52" stroke="white" stroke-width="1" fill="none"/></g>
<text text-anchor="middle" x="350.53" y="-29.8" font-family="Times,serif" font-size="14.00">FOO3</text>
</g>
<!-- FOO2&#45;&gt;FOO3 -->
<!-- FOO4 -->
<g id="node5" class="node">
<title>FOO4</title>
<g><path d="M465.89667602082847 -53.97996979115535 L412.2182153641491 -52.11634095421787 L414.8621146362037 -14.320020833517333 L469.38620154447324 -14.676208596791419 L466.51330693804334 -53.513206024758475" stroke="none" stroke-width="0" fill="white" fill-rule="evenodd"/><path d="M468.3514582002656 -50.94571416944768 C456.31695925496666 -49.67166301136247, 443.2682768508564 -52.29557487150791, 411.6081885665182 -51.00088027719341 M466.5835580511471 -51.82812871350875 C453.26592113268134 -50.89295137308177, 440.19662223667194 -51.28584671463783, 412.6727854044832 -51.501581852307176 M415.4945489469156 -50.603050551500615 C413.39046508658436 -41.60980267039618, 414.6684785539867 -32.71786663171666, 414.0501446904162 -15.686153770180962 M414.4368860672095 -52.04117639788573 C413.62526087351944 -37.770238344859514, 413.86098785258633 -24.068688802802356, 413.5420921130004 -16.197054552424262 M415.45731213996106 -16.009721528917463 C436.25222466957763 -15.398904566729756, 455.3557275630838 -16.080176928220112, 469.05398778494623 -14.924759042427363 M414.3446516213556 -15.813980208740539 C426.04028152338077 -16.096378183978793, 439.92071882410306 -16.19242956635145, 467.93902180191805 -15.659573619268743 M469.29502434173475 -16.21510535019952 C467.0953336348113 -25.755275001100863, 466.47861829582325 -35.19964243486479, 469.13700966500363 -52.33230408421132 M467.4426385508465 -15.716014651653499 C466.9001153966585 -24.50852013760652, 467.45523449107304 -30.613865754845822, 466.97576748674993 -52.7399642563139 M467.53 -52 C467.53 -52, 467.53 -52, 467.53 -52 M467.53 -52 C467.53 -52, 467.53 -52, 467.53 -52" stroke="white" stroke-width="1" fill="none"/></g>
<text text-anchor="middle" x="440.53" y="-29.8" font-family="Times,serif" font-size="14.00">FOO4</text>
</g>
<!-- FOO3&#45;&gt;FOO4 -->
<!-- FOO5 -->
<g id="node6" class="node">
<title>FOO5</title>
<g><path d="M559.1280807656934 -50.172994090904304 L502.6133718031545 -50.61535386527207 L502.8403465104288 -17.31672018585858 L557.4260161232245 -17.068939012561515 L558.4987600076348 -52.70752532942389" stroke="none" stroke-width="0" fill="white" fill-rule="evenodd"/><path d="M559.119749186119 -50.58219027458794 C539.015818332494 -49.85496038951283, 524.2059615489053 -51.2064135357051, 502.8797591493042 -50.2624334825113 M556.8648111063918 -52.927487758696266 C544.2797846809243 -51.272263562939145, 528.8487770995988 -53.04956801559686, 502.8824105901119 -52.023880889042374 M501.69790643282454 -52.11325822378555 C503.81067109479613 -42.0678043500002, 503.2841340451255 -31.156371085523663, 505.39597433615404 -17.54855077755822 M503.4894766035097 -51.14359042128582 C504.4365100968328 -43.27732385764355, 504.4356052552703 -32.83303152534332, 502.84121256078726 -16.732294617303488 M503.6668102846979 -16.020378734764193 C520.5247657521351 -14.035191839734475, 535.1370655004097 -16.993331361873846, 556.7459406809639 -17.411525562068757 M502.9824422451363 -16.940594195129215 C523.0710392886263 -16.574950724158825, 542.8978690245013 -17.113267243643516, 557.5310009495292 -15.432705525014523 M555.9213863507366 -14.758934896293312 C556.8262357169433 -24.52779733126114, 555.6905261413808 -32.58624867281042, 557.8210640961474 -52.83739951707987 M556.9424899000732 -16.581698655824333 C558.4424416792341 -24.36363301809047, 556.7444584127596 -31.769800587382893, 556.6247170363333 -51.06917786655595 M557.53 -52 C557.53 -52, 557.53 -52, 557.53 -52 M557.53 -52 C557.53 -52, 557.53 -52, 557.53 -52" stroke="white" stroke-width="1" fill="none"/></g>
<text text-anchor="middle" x="530.53" y="-29.8" font-family="Times,serif" font-size="14.00">FOO5</text>
</g>
<!-- FOO4&#45;&gt;FOO5 -->
<!-- FOO6 -->
<g id="node7" class="node">
<title>FOO6</title>
<g><path d="M648.3593035448608 -50.48440577764033 L595.0841022840949 -50.01514292404353 L593.9759292906947 -16.19046780418514 L645.8979165706197 -16.01729149627449 L646.295889809315 -51.482503922667874" stroke="none" stroke-width="0" fill="white" fill-rule="evenodd"/><path d="M646.7871142218918 -50.985422199154776 C630.8873499862706 -50.93502804155335, 611.079442991703 -50.69722533073211, 591.8288676235541 -53.6331973585654 M647.4981896565025 -51.43643882376135 C629.7365835846142 -51.81059948480593, 609.778981036574 -52.98810759140982, 593.0907767946954 -52.188129611537484 M593.5591403235302 -53.9527748002689 C595.1892771672748 -44.09694324085168, 594.242735652608 -36.89980066155927, 594.1106897237844 -14.242233303196567 M593.2630708542488 -51.88539055811691 C593.8311972149482 -45.018724122171434, 594.3114101221573 -36.77131508850732, 593.1466478405695 -15.795485992524933 M591.6099759313362 -14.797521491176116 C611.9273715138138 -15.840082916545523, 633.189778222245 -15.595941186080442, 647.8039346705866 -16.937998575968493 M593.9759961569739 -16.952804328414757 C612.9984903347081 -15.497155244858677, 634.7086157833824 -15.295454069921256, 647.2121820860913 -16.50622419991314 M647.5242104726314 -15.9901831163964 C649.4597137017844 -24.153617811329234, 648.4481261888245 -32.549964048831484, 645.8653737770236 -53.309511009315386 M646.5786501336005 -16.658253799408104 C647.5942078130465 -25.347656411578594, 647.0060729803836 -34.504198959296176, 647.9568589089522 -52.3109104023157 M647.53 -52 C647.53 -52, 647.53 -52, 647.53 -52 M647.53 -52 C647.53 -52, 647.53 -52, 647.53 -52" stroke="white" stroke-width="1" fill="none"/></g>
<text text-anchor="middle" x="620.53" y="-29.8" font-family="Times,serif" font-size="14.00">FOO6</text>
</g>
<!-- FOO5&#45;&gt;FOO6 -->
<!-- FOO7 -->
<g id="node8" class="node">
<title>FOO7</title>
<g><path d="M738.1239725756458 -50.4146174398044 L685.2523947892115 -50.06397440905456 L681.6459582486705 -17.925196185199624 L739.5080077882307 -17.46467883863833 L736.8793497568329 -51.656702097726296" stroke="none" stroke-width="0" fill="white" fill-rule="evenodd"/><path d="M739.3326665416281 -50.18401433969686 C715.1061102788868 -50.46346678009301, 695.7883273607388 -51.88721714546925, 683.6409144470507 -50.4941070530035 M737.875166765851 -52.214022657038534 C717.9930309555511 -51.79562513163962, 699.6445546557748 -51.415936701274866, 683.804755029948 -51.43810043383356 M684.4463631895981 -51.770551445848454 C684.4931979359623 -40.67293202244569, 681.9656498771212 -28.86985854140405, 684.658840991818 -15.05972780305359 M682.9967630627176 -52.93692186136089 C684.0021859680528 -42.67765663533747, 683.3960222059864 -32.71931719630228, 683.2170241042763 -16.570399625659274 M682.0171557293592 -14.636571003005736 C704.2566915200326 -15.367329181260235, 723.2435579969448 -13.99014710538172, 738.3967972529913 -16.94643826992488 M682.9813309837075 -16.669325455233285 C697.1103968206994 -15.43066936802335, 710.95111539225 -16.130564800372614, 737.0700071521605 -15.005341578866469 M736.5429337515583 -15.643080787982365 C738.6477987649231 -23.980684314291647, 738.1496894523656 -30.24227058408591, 736.5864142619746 -53.338458079500846 M737.3380270316641 -15.025763755252864 C737.3964455333903 -28.322593568646646, 738.3919158809846 -40.940206640124885, 736.6269484637503 -52.47513894100279 M737.53 -52 C737.53 -52, 737.53 -52, 737.53 -52 M737.53 -52 C737.53 -52, 737.53 -52, 737.53 -52" stroke="white" stroke-width="1" fill="none"/></g>
<text text-anchor="middle" x="710.53" y="-29.8" font-family="Times,serif" font-size="14.00">FOO7</text>
</g>
<!-- FOO6&#45;&gt;FOO7 -->
<!-- FOO8 -->
<g id="node9" class="node">
<title>FOO8</title>
<g><path d="M825.7659886470008 -52.513866185423154 L775.24463667923 -50.76427531668696 L774.0129982449585 -15.261744024691762 L827.1248430742652 -17.57303818596624 L825.5969925083283 -53.534801000968834" stroke="none" stroke-width="0" fill="white" fill-rule="evenodd"/><path d="M828.5438017825942 -52.98947688433694 C815.087010908377 -53.20360551926403, 798.0039793657779 -53.31745174220215, 774.7078644087429 -50.20954730937135 M827.7379202896068 -52.8871578062536 C809.465350062367 -51.89695601367476, 790.6827414226616 -50.78210652976229, 773.802160202415 -51.588222041181595 M774.3546199935873 -51.77762373207963 C773.2527581883022 -40.406185442545386, 774.1966345361765 -30.45550701744768, 773.455278981963 -16.29215598745891 M772.7995126599783 -52.47863917797263 C774.3838353041107 -43.97686602619917, 773.7751858915491 -36.11189967876293, 773.7844231405205 -15.895018121229105 M775.4416681161159 -14.024423083733861 C792.9700150107371 -14.606722927941291, 810.8052121524452 -16.000211740683405, 828.4149920933639 -16.791655257407506 M773.2832660987316 -16.63282756939422 C787.8890948365434 -15.533198872369729, 802.9365852460559 -16.937846395709258, 827.5905374334408 -16.425501639828305 M826.1280660644354 -17.484559507453124 C828.4557725748023 -29.493357943276955, 829.3288311393566 -42.06642964170619, 827.2331741639689 -52.877367168165996 M828.0726831500693 -15.84182232524182 C827.072609003515 -27.934408787079878, 827.5833663016036 -42.162772424554646, 827.3243146190922 -52.68698276489028 M827.53 -52 C827.53 -52, 827.53 -52, 827.53 -52 M827.53 -52 C827.53 -52, 827.53 -52, 827.53 -52" stroke="white" stroke-width="1" fill="none"/></g>
<text text-anchor="middle" x="800.53" y="-29.8" font-family="Times,serif" font-size="14.00">FOO8</text>
</g>
<!-- FOO7&#45;&gt;FOO8 -->
<!-- helloFunc___Func -->
<g id="node10" class="node">
<title>helloFunc___Func</title>
<g><path d="M198.678155344446 -189.61891579428007 L124.37144099299226 -192.4569879480025 L124.75280639322108 -155.79823916458022 L195.7170928007296 -154.09487247655278 L198.60647345762524 -192.71570995595098" stroke="none" stroke-width="0" fill="none" fill-rule="evenodd"/><path d="M198.36419427812694 -190.1720759113856 C178.29580989639973 -192.65577595646002, 162.66044775814623 -191.29293991309925, 125.22825602861822 -190.8866154156195 M198.11313941784567 -190.10617443983307 C180.8765743344574 -191.2619847365643, 165.87739443880838 -192.10401803592626, 125.24694878685236 -191.53288475812516 M124.3351434231452 -191.49694575721222 C125.31165515889685 -178.26712002287147, 124.35430150505911 -164.43828554816676, 125.56950582621243 -156.84288113511852 M124.95034324407222 -191.92729295325816 C124.68272031265663 -178.54094593592262, 124.63600771868492 -164.68525921924763, 126.42787105219693 -154.0204601749014 M126.59325583709204 -154.13275149428273 C139.61571791632582 -155.56731637330105, 156.1980144977613 -154.0565851704108, 195.73050695130797 -153.43172152605112 M125.66812327907 -155.97349371643188 C145.01444774496542 -155.75315578670003, 163.14013913517238 -155.40868674052038, 196.72552057759907 -155.32331873832715 M196.42121506997108 -153.84105058657653 C195.4750278913886 -169.07519338682937, 196.53164377782113 -181.7573311593893, 198.74917624559725 -190.1552099747101 M197.87296718230868 -154.51949238780242 C197.78668228628797 -170.0223963133094, 197.86455773862636 -184.31290668864443, 196.80710980180044 -191.21606745490476 M197.53 -191 C197.53 -191, 197.53 -191, 197.53 -191 M197.53 -191 C197.53 -191, 197.53 -191, 197.53 -191" stroke="black" stroke-width="1" fill="none"/></g>
<text text-anchor="middle" x="161.53" y="-168.8" font-family="Times,serif" font-size="14.00">helloFunc</text>
</g>
<!-- helloApi___Api -->
<g id="node11" class="node">
<title>helloApi___Api</title>
<g><path d="M84.73488846551844 -192.27024775883044 L18.66057060641349 -192.48473020255042 L21.951998418194194 -156.5272908998262 L84.60916383605793 -154.53380497208556 L85.678886812884 -189.44156127303452" stroke="none" stroke-width="0" fill="none" fill-rule="evenodd"/><path d="M85.00978853443621 -189.1225386395102 C65.08455656071075 -189.85444063632687, 42.86572484377938 -190.49879363257077, 20.240915001441095 -190.46285655928446 M84.53289631615954 -190.86445168510676 C68.609093178711 -191.221970933798, 51.019984376099075 -190.92454845882793, 20.47638406227069 -191.88806508703047 M20.21015071661987 -191.46993265437874 C22.21742066343877 -184.63966559260865, 19.894799109163014 -175.66343000305181, 18.58855262641928 -156.12430732860625 M20.886122660935065 -190.2261944014826 C21.086729677502802 -181.50073539340377, 20.104581419630605 -170.89054875244517, 20.238447083729955 -155.6471023352289 M21.754415522998467 -153.84100167751814 C42.66873487517722 -157.1144727594273, 62.217300486464964 -155.444810927653, 83.8996970524754 -154.68747100375856 M20.415424009462964 -154.31811114177395 C35.16849196587894 -154.62205996296626, 50.67793192807523 -155.87093826398288, 85.02619248518987 -155.28093189206066 M86.37656492852246 -156.5434113292657 C85.36044080135044 -162.7149892852821, 83.54341922291853 -169.72752306708108, 83.49797643093592 -189.7362253786723 M85.77541254937269 -155.49751646346158 C85.39188835815982 -164.79570199096554, 86.20216786683457 -174.5394590570453, 85.46762426689637 -190.0780984377674 M85.26 -191 C85.26 -191, 85.26 -191, 85.26 -191 M85.26 -191 C85.26 -191, 85.26 -191, 85.26 -191" stroke="black" stroke-width="1" fill="none"/></g>
<text text-anchor="middle" x="52.77" y="-168.8" font-family="Times,serif" font-size="14.00">helloApi</text>
</g>
<!-- helloApi___Api&#45;&gt;helloFunc___Func -->
<g id="edge9" class="edge">
<title>helloApi___Api-&gt;helloFunc___Func</title>
<g><path d="M87.19612519500339 -174.07623140081853 M85.4 -173 C86.39620284546542 -174.0084583390418, 117.25719139120474 -172.0558035607871, 115.10292896531402 -174.69573769171066 M87.17646767657938 -172.44257405690652 C87.54611896414671 -174.31746268176647, 117.23378758504654 -174.30353833976284, 115.9133617331792 -172.71940842109245" stroke="black" stroke-width="1" fill="none"/></g>
<g><path d="M113.88598849054972 -174.95096963907972 L125.50118480683723 -172.29116603266948 L114.2018260986392 -168.64104594419462 L113.66866949358213 -175.30113342305395" stroke="none" stroke-width="0" fill="black" fill-rule="evenodd"/><path d="M116.01546277472218 -176.59678666330444 C119.46779039513858 -174.97970092081772, 122.586346503479 -173.39960794828409, 126.48141268268617 -172.3772176343326 M115.03010446800086 -177.01166697411534 C118.86382942429158 -175.38918405307427, 123.13734453781397 -173.7725351631347, 125.69236533870132 -173.26212240823338 M124.95018756296544 -173.60654688073885 C122.98434126708604 -171.9182059948031, 121.80804824123376 -171.2240245454705, 116.08604671271226 -170.11860382187277 M125.17987095326914 -173.1744051787088 C122.30941093329699 -171.70641224373372, 119.71206552551519 -170.64781265911563, 115.80403659727979 -169.412160185492 M115.67943745102629 -169.71856613142268 C115.71585084953989 -170.67847695115444, 115.42897607336091 -173.22003595824796, 114.9417394456981 -177.11926948462406 M115.58867223155666 -169.36071207819975 C115.42154009563806 -171.6335832349819, 115.68590823522175 -173.87012712049068, 115.31543250192472 -176.26345295892804 M115.5 -176.5 C115.5 -176.5, 115.5 -176.5, 115.5 -176.5 M115.5 -176.5 C115.5 -176.5, 115.5 -176.5, 115.5 -176.5" stroke="black" stroke-width="1" fill="none"/></g>
</g>
<!-- _i_ApiServer_3134___ApiServer -->
<g id="node12" class="node">
<title>_i_ApiServer_3134___ApiServer</title>
<g><path d="M88.41905879000063 -137.91208666962154 L15.99166651378787 -138.07218596619944 L15.163953494034882 -101.88250862224731 L91.08457120609833 -102.23631786003462 L88.15629057227925 -138.79422185591238" stroke="none" stroke-width="0" fill="none" fill-rule="evenodd"/><path d="M88.5693288149427 -136.86559000517394 C67.36518427932975 -138.17414437052767, 46.50637547239329 -135.12685878655248, 15.015003742116107 -136.29786476606947 M90.03943310766763 -137.71120383793928 C71.32068589195435 -136.9675886498363, 53.588147749913354 -137.12952481248772, 16.585451908113107 -137.26326410930307 M17.349182158159994 -137.44965987948024 C17.4243460404154 -127.42267492423981, 16.36587753720205 -115.12651862319129, 17.703736635388534 -99.55594211196474 M15.957995553059597 -136.75709718073352 C15.693403792084334 -123.32559616090371, 16.466093113585032 -110.33051900322496, 15.498341000529447 -101.91394041159039 M14.686545072333331 -102.9445041660411 C38.775237990312945 -100.8999407969749, 56.466190078115815 -98.62285403349098, 89.28791747519713 -99.09015155373648 M16.24715880723786 -101.51476430489225 C44.04270994854491 -101.67981732462181, 69.34805391926429 -102.03252266529336, 88.758628532648 -101.51443784113525 M88.70105537803303 -99.8185874791076 C90.4485616928917 -113.3682480089721, 88.97204955324285 -125.8509633628754, 88.26129316792782 -136.68106923560194 M89.13779084454048 -101.96693383995381 C88.74745889768089 -115.74510025217583, 88.39600017110277 -128.78881839311683, 88.7386831834587 -137.1891823374687 M89.31 -137 C89.31 -137, 89.31 -137, 89.31 -137 M89.31 -137 C89.31 -137, 89.31 -137, 89.31 -137" stroke="black" stroke-width="1" fill="none"/></g>
<text text-anchor="middle" x="52.77" y="-114.8" font-family="Times,serif" font-size="14.00">ApiServer</text>
</g>
</g>
</svg>
