<!DOCTYPE svg PUBLIC "-//W3C//DTD SVG 1.1//EN" "http://www.w3.org/Graphics/SVG/1.1/DTD/svg11.dtd"><!-- Generated by graphviz version 5.0.0 (20220707.2145)
 --><!-- Title: G Pages: 1 --><svg width="181pt" height="44pt" viewBox="0.00 0.00 180.97 44.00" xmlns="http://www.w3.org/2000/svg" xmlns:xlink="http://www.w3.org/1999/xlink">
<g id="graph0" class="graph" transform="scale(1 1) rotate(0) translate(4 40)">
<title>G</title>
<g><path d="M-5.5388760636040315 5.007254360339029 L-5.095310740028594 -39.36383327627666 L176.9972898989483 -40.168127841864745 L178.11891254347302 5.291714396455076 L-4.860469662099387 4.968221738370374" stroke="none" stroke-width="0" fill="white" fill-rule="evenodd"/><path d="M-3.026655846609004 4.031966065053704 C-3.5667155287193983 -11.016158409709485, -4.093736030824435 -25.156306554213092, -5.056664083414906 -38.66330890655196 M-3.4044000590198085 3.046021848701556 C-4.66159950458378 -10.65051064777618, -4.222160785204757 -25.45187270513209, -3.826811773693982 -40.030498004104516 M-3.456844607581524 -41.65737716979682 C67.23853825611984 -42.07362532744828, 134.24513576533383 -39.31012421905911, 175.44819792901862 -41.49175142301647 M-3.6052766571600436 -40.52372321952261 C63.04889588360101 -38.799024882688336, 131.43998537584997 -38.37120556347257, 176.73882542373843 -39.82510078509565 M175.49196612606613 -39.633245981799476 C176.85025471417967 -23.523448292044723, 177.02307258909357 -9.133363444552144, 177.70783027888743 2.899268427686761 M177.41237222165185 -40.712804616047706 C176.86326359033308 -28.078264967332153, 177.306480386322 -16.063907882231476, 177.55590256118347 4.831684953603185 M178.65039979874237 4.907808588000644 C136.54382843954696 6.893724603173124, 92.77454784678095 6.240286006652222, -3.3912734342800324 3.960788292232202 M175.9799088029066 4.364345658222482 C138.3143153509295 5.53093715886245, 101.19851608180883 6.284393488820099, -4.745147059106358 4.733470201567648 M-4 4 C-4 4, -4 4, -4 4 M-4 4 C-4 4, -4 4, -4 4" stroke="transparent" stroke-width="1" fill="none"/></g>
<!-- API -->
<g id="node1" class="node">
<title>API</title>
<g><path d="M63.868353417164606 -34.88043996570141 L0.1302257929794955 -35.95087421118886 L0.3665689684840901 -1.3096837296338837 L63.936031612727604 -1.4376972064160274 L64.45718505774235 -37.70622267835096" stroke="none" stroke-width="0" fill="none" fill-rule="evenodd"/><path d="M63.70139081373773 -35.229103812280485 C45.45368395260312 -34.479862499026005, 28.447699744003835 -37.02291427960239, 2.036378131823894 -34.746554337768494 M64.64663151347361 -36.88439015646941 C39.12239409622717 -37.083474885174645, 14.957582625690248 -36.27130131884017, 0.4930954410381279 -35.398794909578015 M1.6457296638411696 -37.00961648053876 C1.1129298058649788 -23.580271431626066, -0.48138093136315324 -13.706770767042414, 1.4420614838507528 0.6992056075932345 M-0.1006527588528871 -36.31576429601309 C-0.030288405080913766 -26.890819977065707, -0.8617607362585651 -18.92276268385818, 0.9948642778887364 0.5245129426333133 M0.6612783216134497 0.6956666787512242 C26.884215926867345 -2.5282982495602915, 51.78823585724439 0.312706481578069, 64.4308202177734 1.024404514237374 M-0.4430595261057421 -0.5304598447465305 C20.911836247871243 0.3396981115651766, 41.5793422579743 -0.5634726510637632, 64.68812588589712 -0.7046600503476776 M64.3227041229466 -1.5959048726921443 C65.22777648145862 -13.921974019182358, 62.7869264633646 -27.063258998290085, 65.56242399225337 -35.74554093192806 M63.72878630336175 0.8726879080687513 C63.666962999648746 -10.121783858293176, 64.95767302082052 -21.821642276817496, 64.26332268168616 -35.400080286396 M64.4 -36 C64.4 -36, 64.4 -36, 64.4 -36 M64.4 -36 C64.4 -36, 64.4 -36, 64.4 -36" stroke="black" stroke-width="1" fill="none"/></g>
<text text-anchor="middle" x="32.3" y="-13.8" font-family="Times,serif" font-size="14.00">hello api</text>
</g>
<!-- Function -->
<g id="node2" class="node">
<title>Function</title>
<g><path d="M173.90756727258355 -36.32043794686531 L100.57887250874906 -36.36706517414636 L100.4866741757144 0.7169157295411219 L174.34734997611332 1.105528666640355 L171.2527384045509 -36.26282230114009" stroke="none" stroke-width="0" fill="none" fill-rule="evenodd"/><path d="M173.83004758388944 -35.63499774483037 C146.93459909255333 -37.12841216041705, 122.45538702833163 -36.45709460532599, 100.50452789970296 -35.1532713215433 M173.98724415829378 -35.363166112929136 C145.9366491932601 -36.3566611489322, 119.30358866753964 -35.91599404083262, 101.25311915609166 -36.16542940026855 M99.37331688052384 -37.08985374135452 C101.5355346012451 -24.40514123153272, 101.53116701343284 -11.025781695390634, 102.0322839419393 0.9987716867924332 M99.70981332793443 -35.03183592691179 C99.88467552035668 -28.343811341535286, 100.19277098943957 -20.949673285905728, 100.53388480463809 0.8758030311672589 M101.87458429710621 1.5564328466737978 C122.08197581898074 -0.3493022222098495, 142.11271274477025 -0.013541448001205159, 173.9767360068379 0.8798520332657791 M100.56686281646626 -0.17586031232456145 C114.71607270525224 0.1986622981924101, 130.98077722702843 -0.3463607655836335, 173.8965014459371 -0.2440691378204396 M173.3601146265701 -0.20959065112564357 C173.32106128718624 -7.46567911907366, 174.3655123163455 -16.675367165091583, 172.6564755493987 -36.50331032601326 M173.63047877812414 0.7027545889395492 C174.0837044935993 -8.652215944804487, 173.99505247294255 -15.473730001090244, 173.16327658061036 -35.78117169293013 M173.15 -36 C173.15 -36, 173.15 -36, 173.15 -36 M173.15 -36 C173.15 -36, 173.15 -36, 173.15 -36" stroke="black" stroke-width="1" fill="none"/></g>
<text text-anchor="middle" x="136.78" y="-13.8" font-family="Times,serif" font-size="14.00">hello func</text>
</g>
<!-- API&#45;&gt;Function -->
<g id="edge1" class="edge">
<title>API-&gt;Function</title>
<g><path d="M65.25382463913553 -16.4243515808757 M64.5 -18 C64.21113044098088 -16.481621875242222, 91.73700987968728 -16.97073128960962, 92.39346225580825 -19.18411962465087 M64.17456550381463 -16.61489656132288 C66.54292977982671 -19.79980091139998, 91.08804565322679 -18.374132637012465, 89.56824940515882 -17.184546109126" stroke="black" stroke-width="1" fill="none"/></g>
<g><path d="M90.22896899636447 -23.33938903606985 L99.16653050692943 -16.389551270558893 L89.7241435004601 -16.034447811264357 L91.14624426823615 -20.81959623145228" stroke="none" stroke-width="0" fill="black" fill-rule="evenodd"/><path d="M90.61203224424249 -22.24093402652021 C93.34100301364043 -19.829201933937224, 95.89755815307453 -20.405628755823987, 100.23288627795016 -17.258519931734792 M90.30836459688297 -21.763902469679266 C93.63410393323011 -20.10383270622523, 96.56517247029598 -19.325830159521473, 99.9898542805175 -18.186507445604406 M100.59043813619172 -17.150638637109655 C96.10092139436551 -16.994123695567875, 92.94308206442525 -16.188732926920505, 90.00315245651049 -14.464423095885557 M100.54006317656571 -18.322979432484626 C96.92148009893121 -16.462124234294176, 93.06562275969824 -15.04490764941358, 90.94421690957995 -14.849613727219756 M90.61258923059466 -13.855706394512833 C90.4485040418122 -17.32587597276276, 89.78776160959808 -20.510794919918144, 90.56060568736534 -20.96411999483608 M90.32230377419927 -14.413943286695313 C90.19292356419791 -16.18977633754302, 90.30344961660235 -17.80971289044889, 90.63696039694364 -21.663364801589665 M90.49 -21.5 C90.49 -21.5, 90.49 -21.5, 90.49 -21.5 M90.49 -21.5 C90.49 -21.5, 90.49 -21.5, 90.49 -21.5" stroke="black" stroke-width="1" fill="none"/></g>
</g>
</g>
</svg>
